<?xml version="1.0" encoding="utf-8"?>
<!-- Generator: Adobe Illustrator 18.1.1, SVG Export Plug-In . SVG Version: 6.00 Build 0)  -->
<svg version="1.1" id="Layer_1" xmlns="http://www.w3.org/2000/svg" xmlns:xlink="http://www.w3.org/1999/xlink" x="0px" y="0px"
	 viewBox="59 384.8 729.4 25.2" enable-background="new 59 384.8 729.4 25.2" xml:space="preserve">
<path d="M173.3,389.1c-1.2,0-2.2-1-2.2-2.2c0-1.2,1-2.2,2.2-2.2s2.2,1,2.2,2.2C175.4,388.2,174.5,389.1,173.3,389.1"/>
<path d="M168.7,397.2c-1.2,0-2.2-1-2.2-2.2c0-1.2,1-2.2,2.2-2.2s2.2,1,2.2,2.2C170.9,396.2,169.9,397.2,168.7,397.2"/>
<path d="M172.3,394.2c-1.2,0-2.2-1-2.2-2.2c0-1.2,1-2.2,2.2-2.2s2.2,1,2.2,2.2C174.5,393.2,173.5,394.2,172.3,394.2"/>
<path d="M168,390.7c-1.2,0-2.2-1-2.2-2.2c0-1.2,1-2.2,2.2-2.2s2.2,1,2.2,2.2C170.2,389.7,169.2,390.7,168,390.7"/>
<path d="M168.7,393.5c-1.2,0-2.2-1-2.2-2.2s1-2.2,2.2-2.2s2.2,1,2.2,2.2S169.9,393.5,168.7,393.5"/>
<path d="M163.3,393.3c-1.2,0-2.2-1-2.2-2.2c0-1.2,1-2.2,2.2-2.2s2.2,1,2.2,2.2C165.5,392.3,164.5,393.3,163.3,393.3"/>
<path d="M159.5,401.8c-1.2,0-2.2-1-2.2-2.2c0-1.2,1-2.2,2.2-2.2s2.2,1,2.2,2.2C161.7,400.8,160.7,401.8,159.5,401.8"/>
<path d="M163.7,397c-1.2,0-2.2-1-2.2-2.2s1-2.2,2.2-2.2s2.2,1,2.2,2.2S164.9,397,163.7,397"/>
<path d="M165.9,399.6c-1.2,0-2.2-1-2.2-2.2c0-1.2,1-2.2,2.2-2.2c1.2,0,2.2,1,2.2,2.2C168,398.6,167.1,399.6,165.9,399.6"/>
<path d="M170.5,407.6c-1.2,0-2.2-1-2.2-2.2c0-1.2,1-2.2,2.2-2.2s2.2,1,2.2,2.2C172.6,406.7,171.7,407.6,170.5,407.6"/>
<path d="M169.1,403.7c-1.2,0-2.2-1-2.2-2.2c0-1.2,1-2.2,2.2-2.2c1.2,0,2.2,1,2.2,2.2C171.3,402.7,170.3,403.7,169.1,403.7"/>
<path d="M155.9,391.3c-1.2,0-2.2-1-2.2-2.2c0-1.2,1-2.2,2.2-2.2c1.2,0,2.2,1,2.2,2.2C158.1,390.3,157.1,391.3,155.9,391.3"/>
<path d="M163,404.8c-1.2,0-2.2-1-2.2-2.2c0-1.2,1-2.2,2.2-2.2s2.2,1,2.2,2.2C165.2,403.9,164.2,404.8,163,404.8"/>
<path d="M156.6,405.7c-1.2,0-2.2-1-2.2-2.2c0-1.2,1-2.2,2.2-2.2c1.2,0,2.2,1,2.2,2.2C158.8,404.7,157.8,405.7,156.6,405.7"/>
<path d="M155.4,398.1c-1.2,0-2.2-1-2.2-2.2c0-1.2,1-2.2,2.2-2.2c1.2,0,2.2,1,2.2,2.2C157.6,397.1,156.6,398.1,155.4,398.1"/>
<path d="M153.7,394.6c-1.2,0-2.2-1-2.2-2.2c0-1.2,1-2.2,2.2-2.2s2.2,1,2.2,2.2C155.9,393.6,154.9,394.6,153.7,394.6"/>
<path d="M149.3,393.7c-1.2,0-2.2-1-2.2-2.2c0-1.2,1-2.2,2.2-2.2s2.2,1,2.2,2.2C151.5,392.8,150.5,393.7,149.3,393.7"/>
<path d="M147.6,402c-1.2,0-2.2-1-2.2-2.2s1-2.2,2.2-2.2c1.2,0,2.2,1,2.2,2.2S148.8,402,147.6,402"/>
<path d="M148,397.2c-1.2,0-2.2-1-2.2-2.2c0-1.2,1-2.2,2.2-2.2s2.2,1,2.2,2.2C150.2,396.2,149.2,397.2,148,397.2"/>
<path d="M145.8,392.6c-1.2,0-2.2-1-2.2-2.2c0-1.2,1-2.2,2.2-2.2s2.2,1,2.2,2.2C148,391.7,147,392.6,145.8,392.6"/>
<path d="M152.6,407.2c-1.2,0-2.2-1-2.2-2.2c0-1.2,1-2.2,2.2-2.2c1.2,0,2.2,1,2.2,2.2C154.8,406.2,153.8,407.2,152.6,407.2"/>
<path d="M150.4,403.7c-1.2,0-2.2-1-2.2-2.2c0-1.2,1-2.2,2.2-2.2c1.2,0,2.2,1,2.2,2.2C152.6,402.8,151.6,403.7,150.4,403.7"/>
<path d="M153.9,402.4c-1.2,0-2.2-1-2.2-2.2c0-1.2,1-2.2,2.2-2.2c1.2,0,2.2,1,2.2,2.2C156.1,401.5,155.1,402.4,153.9,402.4"/>
<path d="M147.6,406.1c-1.2,0-2.2-1-2.2-2.2c0-1.2,1-2.2,2.2-2.2c1.2,0,2.2,1,2.2,2.2C149.8,405.2,148.8,406.1,147.6,406.1"/>
<path d="M166.5,406.8c-1.2,0-2.2-1-2.2-2.2c0-1.2,1-2.2,2.2-2.2s2.2,1,2.2,2.2C168.7,405.8,167.7,406.8,166.5,406.8"/>
<path d="M160.2,407.6c-1.2,0-2.2-1-2.2-2.2c0-1.2,1-2.2,2.2-2.2s2.2,1,2.2,2.2C162.4,406.6,161.4,407.6,160.2,407.6"/>
<path d="M159.2,395.2c-1.2,0-2.2-1-2.2-2.2c0-1.2,1-2.2,2.2-2.2s2.2,1,2.2,2.2C161.4,394.3,160.4,395.2,159.2,395.2"/>
<path d="M147.6,400.2c-1.2,0-2.2-1-2.2-2.2c0-1.2,1-2.2,2.2-2.2c1.2,0,2.2,1,2.2,2.2C149.8,399.2,148.8,400.2,147.6,400.2"/>
<path d="M142.1,402.6c-1.2,0-2.2-1-2.2-2.2c0-1.2,1-2.2,2.2-2.2c1.2,0,2.2,1,2.2,2.2C144.3,401.7,143.3,402.6,142.1,402.6"/>
<path d="M141.3,407.6c-1.2,0-2.2-1-2.2-2.2c0-1.2,1-2.2,2.2-2.2s2.2,1,2.2,2.2C143.5,406.6,142.5,407.6,141.3,407.6"/>
<path d="M135.4,403.7c-1.2,0-2.2-1-2.2-2.2c0-1.2,1-2.2,2.2-2.2c1.2,0,2.2,1,2.2,2.2C137.6,402.7,136.6,403.7,135.4,403.7"/>
<path d="M136.5,398.1c-1.2,0-2.2-1-2.2-2.2c0-1.2,1-2.2,2.2-2.2s2.2,1,2.2,2.2C138.7,397.1,137.7,398.1,136.5,398.1"/>
<path d="M128.2,394.8c-1.2,0-2.2-1-2.2-2.2c0-1.2,1-2.2,2.2-2.2s2.2,1,2.2,2.2C130.4,393.8,129.4,394.8,128.2,394.8"/>
<path d="M124.5,390.2c-1.2,0-2.2-1-2.2-2.2c0-1.2,1-2.2,2.2-2.2s2.2,1,2.2,2.2C126.7,389.3,125.7,390.2,124.5,390.2"/>
<path d="M131.5,391.2c-1.1,0.4-2.4-0.3-2.7-1.4c-0.4-1.1,0.3-2.4,1.4-2.7c1.1-0.4,2.4,0.3,2.7,1.4
	C133.3,389.6,132.7,390.9,131.5,391.2"/>
<path d="M133,396.3c-1.2,0-2.2-1-2.2-2.2c0-1.2,1-2.2,2.2-2.2s2.2,1,2.2,2.2C135.2,395.3,134.2,396.3,133,396.3"/>
<path d="M121.9,404.4c-1.2,0-2.2-1-2.2-2.2c0-1.2,1-2.2,2.2-2.2c1.2,0,2.2,1,2.2,2.2C124.1,403.4,123.1,404.4,121.9,404.4"/>
<path d="M124.1,396.1c1.1,0.5,1.6,1.8,1.1,2.9c-0.5,1.1-1.8,1.6-2.9,1.1s-1.6-1.8-1.1-2.9S123,395.6,124.1,396.1"/>
<path d="M130,400.2c-1.2,0-2.2-1-2.2-2.2c0-1.2,1-2.2,2.2-2.2s2.2,1,2.2,2.2C132.2,399.2,131.2,400.2,130,400.2"/>
<path d="M140.6,398.3c-1.2,0-2.2-1-2.2-2.2c0-1.2,1-2.2,2.2-2.2c1.2,0,2.2,1,2.2,2.2C142.8,397.3,141.8,398.3,140.6,398.3"/>
<path d="M136.5,392.6c-1.2,0-2.2-1-2.2-2.2c0-1.2,1-2.2,2.2-2.2s2.2,1,2.2,2.2C138.7,391.7,137.7,392.6,136.5,392.6"/>
<path d="M140.6,391.3c-1.2,0-2.2-1-2.2-2.2c0-1.2,1-2.2,2.2-2.2c1.2,0,2.2,1,2.2,2.2C142.8,390.4,141.8,391.3,140.6,391.3"/>
<path d="M127.6,404.8c-1.2,0-2.2-1-2.2-2.2c0-1.2,1-2.2,2.2-2.2c1.2,0,2.2,1,2.2,2.2C129.7,403.8,128.8,404.8,127.6,404.8"/>
<path d="M123.9,395.5c-1.2,0-2.2-1-2.2-2.2s1-2.2,2.2-2.2c1.2,0,2.2,1,2.2,2.2C126,394.5,125.1,395.5,123.9,395.5"/>
<path d="M118.2,399.4c-1.2,0-2.2-1-2.2-2.2c0-1.2,1-2.2,2.2-2.2c1.2,0,2.2,1,2.2,2.2C120.4,398.4,119.4,399.4,118.2,399.4"/>
<path d="M118.7,392.6c-1.2,0-2.2-1-2.2-2.2c0-1.2,1-2.2,2.2-2.2c1.2,0,2.2,1,2.2,2.2C120.9,391.7,119.9,392.6,118.7,392.6"/>
<path d="M118.7,403.1c-1.2,0-2.2-1-2.2-2.2c0-1.2,1-2.2,2.2-2.2c1.2,0,2.2,1,2.2,2.2C120.9,402.1,119.9,403.1,118.7,403.1"/>
<path d="M117.9,407.2c-1.2,0-2.2-1-2.2-2.2c0-1.2,1-2.2,2.2-2.2s2.2,1,2.2,2.2C120,406.2,119.1,407.2,117.9,407.2"/>
<path d="M132.1,407.2c-1.2,0-2.2-1-2.2-2.2c0-1.2,1-2.2,2.2-2.2c1.2,0,2.2,1,2.2,2.2C134.3,406.2,133.3,407.2,132.1,407.2"/>
<path d="M229.1,390.5c-1.2,0-2.2-1-2.2-2.2s1-2.2,2.2-2.2s2.2,1,2.2,2.2C231.2,389.5,230.3,390.5,229.1,390.5"/>
<path d="M223,396.1c-1.2,0-2.2-1-2.2-2.2c0-1.2,1-2.2,2.2-2.2s2.2,1,2.2,2.2C225.2,395.1,224.2,396.1,223,396.1"/>
<path d="M225.2,392.9c-1.2,0-2.2-1-2.2-2.2c0-1.2,1-2.2,2.2-2.2s2.2,1,2.2,2.2C227.4,391.9,226.4,392.9,225.2,392.9"/>
<path d="M221.9,390c-1.2,0-2.2-1-2.2-2.2s1-2.2,2.2-2.2s2.2,1,2.2,2.2C224.1,389,223.1,390,221.9,390"/>
<path d="M225.9,398.3c-1.2,0-2.2-1-2.2-2.2c0-1.2,1-2.2,2.2-2.2s2.2,1,2.2,2.2C228.1,397.3,227.1,398.3,225.9,398.3"/>
<path d="M217.6,392.9c-1.2,0-2.2-1-2.2-2.2c0-1.2,1-2.2,2.2-2.2s2.2,1,2.2,2.2C219.8,391.9,218.8,392.9,217.6,392.9"/>
<path d="M214.1,401.1c-1.2,0-2.2-1-2.2-2.2c0-1.2,1-2.2,2.2-2.2s2.2,1,2.2,2.2C216.3,400.1,215.3,401.1,214.1,401.1"/>
<path d="M216.7,397.6c-1.2,0-2.2-1-2.2-2.2c0-1.2,1-2.2,2.2-2.2s2.2,1,2.2,2.2C218.9,396.6,217.9,397.6,216.7,397.6"/>
<path d="M220.9,401.1c-1.2,0-2.2-1-2.2-2.2c0-1.2,1-2.2,2.2-2.2s2.2,1,2.2,2.2C223,400.1,222.1,401.1,220.9,401.1"/>
<path d="M226.3,407.9c-1.2,0-2.2-1-2.2-2.2c0-1.2,1-2.2,2.2-2.2s2.2,1,2.2,2.2C228.5,406.9,227.5,407.9,226.3,407.9"/>
<path d="M225.4,403.5c-1.2,0-2.2-1-2.2-2.2s1-2.2,2.2-2.2s2.2,1,2.2,2.2S226.6,403.5,225.4,403.5"/>
<path d="M208.5,391.8c-1.2,0-2.2-1-2.2-2.2c0-1.2,1-2.2,2.2-2.2s2.2,1,2.2,2.2C210.7,390.8,209.7,391.8,208.5,391.8"/>
<path d="M217.8,404.2c-1.2,0-2.2-1-2.2-2.2c0-1.2,1-2.2,2.2-2.2s2.2,1,2.2,2.2C220,403.2,219,404.2,217.8,404.2"/>
<path d="M208.5,406.6c-1.2,0-2.2-1-2.2-2.2c0-1.2,1-2.2,2.2-2.2s2.2,1,2.2,2.2C210.7,405.6,209.7,406.6,208.5,406.6"/>
<path d="M209.3,402.2c-1.2,0-2.2-1-2.2-2.2c0-1.2,1-2.2,2.2-2.2s2.2,1,2.2,2.2C211.5,401.2,210.5,402.2,209.3,402.2"/>
<path d="M207.1,395.5c-1.2,0-2.2-1-2.2-2.2s1-2.2,2.2-2.2s2.2,1,2.2,2.2S208.3,395.5,207.1,395.5"/>
<path d="M202.4,391.5c-1.2,0-2.2-1-2.2-2.2s1-2.2,2.2-2.2s2.2,1,2.2,2.2C204.5,390.6,203.6,391.5,202.4,391.5"/>
<path d="M199.7,402.4c-1.2,0-2.2-1-2.2-2.2c0-1.2,1-2.2,2.2-2.2s2.2,1,2.2,2.2C201.9,401.4,200.9,402.4,199.7,402.4"/>
<path d="M199.3,397.6c-1.2,0-2.2-1-2.2-2.2c0-1.2,1-2.2,2.2-2.2s2.2,1,2.2,2.2C201.5,396.6,200.5,397.6,199.3,397.6"/>
<path d="M195.6,396.8c-1.2,0-2.2-1-2.2-2.2c0-1.2,1-2.2,2.2-2.2s2.2,1,2.2,2.2C197.8,395.8,196.8,396.8,195.6,396.8"/>
<path d="M203.9,407.6c-1.2,0-2.2-1-2.2-2.2c0-1.2,1-2.2,2.2-2.2s2.2,1,2.2,2.2C206.1,406.7,205.1,407.6,203.9,407.6"/>
<path d="M203.3,403.5c-1.2,0-2.2-1-2.2-2.2s1-2.2,2.2-2.2s2.2,1,2.2,2.2S204.5,403.5,203.3,403.5"/>
<path d="M204.1,399.8c-1.2,0-2.2-1-2.2-2.2c0-1.2,1-2.2,2.2-2.2s2.2,1,2.2,2.2C206.3,398.8,205.3,399.8,204.1,399.8"/>
<path d="M197.4,405.9c-1.2,0-2.2-1-2.2-2.2c0-1.2,1-2.2,2.2-2.2s2.2,1,2.2,2.2C199.5,404.9,198.6,405.9,197.4,405.9"/>
<path d="M221.5,407.2c-1.2,0-2.2-1-2.2-2.2c0-1.2,1-2.2,2.2-2.2s2.2,1,2.2,2.2C223.7,406.2,222.7,407.2,221.5,407.2"/>
<path d="M214.1,406.3c-1.2,0-2.2-1-2.2-2.2c0-1.2,1-2.2,2.2-2.2s2.2,1,2.2,2.2C216.3,405.3,215.3,406.3,214.1,406.3"/>
<path d="M213,395.2c-1.2,0-2.2-1-2.2-2.2c0-1.2,1-2.2,2.2-2.2s2.2,1,2.2,2.2C215.2,394.3,214.2,395.2,213,395.2"/>
<path d="M197.6,399.4c-1.2,0-2.2-1-2.2-2.2c0-1.2,1-2.2,2.2-2.2s2.2,1,2.2,2.2C199.8,398.4,198.8,399.4,197.6,399.4"/>
<path d="M193.4,402.2c-1.2,0-2.2-1-2.2-2.2c0-1.2,1-2.2,2.2-2.2s2.2,1,2.2,2.2C195.6,401.2,194.6,402.2,193.4,402.2"/>
<path d="M195.2,407.2c-1.2,0-2.2-1-2.2-2.2c0-1.2,1-2.2,2.2-2.2s2.2,1,2.2,2.2C197.4,406.2,196.4,407.2,195.2,407.2"/>
<path d="M190.6,406.1c-1.2,0-2.2-1-2.2-2.2c0-1.2,1-2.2,2.2-2.2s2.2,1,2.2,2.2C192.8,405.1,191.8,406.1,190.6,406.1"/>
<path d="M186.7,403.3c-1.2,0-2.2-1-2.2-2.2c0-1.2,1-2.2,2.2-2.2s2.2,1,2.2,2.2C188.9,402.3,187.9,403.3,186.7,403.3"/>
<path d="M182.1,393.1c-1.2,0-2.2-1-2.2-2.2c0-1.2,1-2.2,2.2-2.2c1.2,0,2.2,1,2.2,2.2C184.3,392.1,183.3,393.1,182.1,393.1"/>
<path d="M177.8,390c-1.2,0-2.2-1-2.2-2.2s1-2.2,2.2-2.2s2.2,1,2.2,2.2C179.9,389,179,390,177.8,390"/>
<path d="M179.3,392.8c-1.2,0-2.2-1-2.2-2.2c0-1.2,1-2.2,2.2-2.2s2.2,1,2.2,2.2C181.5,391.9,180.5,392.8,179.3,392.8"/>
<path d="M186.3,395c-1.2,0-2.2-1-2.2-2.2s1-2.2,2.2-2.2s2.2,1,2.2,2.2S187.5,395,186.3,395"/>
<path d="M180.4,404.6c-1.2,0-2.2-1-2.2-2.2c0-1.2,1-2.2,2.2-2.2c1.2,0,2.2,1,2.2,2.2C182.6,403.6,181.6,404.6,180.4,404.6"/>
<path d="M182.8,397.4c1.1,0.5,1.6,1.8,1.1,2.9s-1.8,1.6-2.9,1.1s-1.6-1.8-1.1-2.9C180.5,397.4,181.7,396.9,182.8,397.4"/>
<path d="M185,399.2c-1.2,0-2.2-1-2.2-2.2c0-1.2,1-2.2,2.2-2.2s2.2,1,2.2,2.2C187.2,398.2,186.2,399.2,185,399.2"/>
<path d="M191,398.1c-1.2,0-2.2-1-2.2-2.2c0-1.2,1-2.2,2.2-2.2s2.2,1,2.2,2.2C193.2,397.1,192.2,398.1,191,398.1"/>
<path d="M190.8,395.5c-1.2,0-2.2-1-2.2-2.2s1-2.2,2.2-2.2s2.2,1,2.2,2.2S192,395.5,190.8,395.5"/>
<path d="M198,390.5c-1.2,0-2.2-1-2.2-2.2s1-2.2,2.2-2.2s2.2,1,2.2,2.2S199.2,390.5,198,390.5"/>
<path d="M188,391.5c-1.2,0-2.2-1-2.2-2.2s1-2.2,2.2-2.2s2.2,1,2.2,2.2C190.2,390.6,189.2,391.5,188,391.5"/>
<path d="M178.4,395.9c-1.2,0-2.2-1-2.2-2.2c0-1.2,1-2.2,2.2-2.2c1.2,0,2.2,1,2.2,2.2C180.6,394.9,179.6,395.9,178.4,395.9"/>
<path d="M169.3,400.3c-1.2,0-2.2-1-2.2-2.2c0-1.2,1-2.2,2.2-2.2s2.2,1,2.2,2.2C171.5,399.3,170.5,400.3,169.3,400.3"/>
<path d="M174.6,396.1c-1.2,0-2.2-1-2.2-2.2c0-1.2,1-2.2,2.2-2.2c1.2,0,2.2,1,2.2,2.2C176.7,395.1,175.8,396.1,174.6,396.1"/>
<path d="M174.5,401.3c-1.1-0.5-1.6-1.8-1.1-2.9s1.8-1.6,2.9-1.1s1.6,1.8,1.1,2.9S175.6,401.8,174.5,401.3"/>
<path d="M176.7,407.2c-1.2,0-2.2-1-2.2-2.2c0-1.2,1-2.2,2.2-2.2s2.2,1,2.2,2.2C178.9,406.2,177.9,407.2,176.7,407.2"/>
<path d="M185.8,407c-1.2,0-2.2-1-2.2-2.2s1-2.2,2.2-2.2s2.2,1,2.2,2.2S187,407,185.8,407"/>
<path d="M115.7,390.2c-1.2,0-2.2-1-2.2-2.2c0-1.2,1-2.2,2.2-2.2c1.2,0,2.2,1,2.2,2.2C117.9,389.3,116.9,390.2,115.7,390.2"/>
<path d="M109,393.9c-1.2,0-2.2-1-2.2-2.2c0-1.2,1-2.2,2.2-2.2s2.2,1,2.2,2.2C111.2,392.9,110.2,393.9,109,393.9"/>
<path d="M113.8,393.7c-1.2,0-2.2-1-2.2-2.2c0-1.2,1-2.2,2.2-2.2c1.2,0,2.2,1,2.2,2.2C116,392.8,115,393.7,113.8,393.7"/>
<path d="M108.6,390.2c-1.2,0-2.2-1-2.2-2.2c0-1.2,1-2.2,2.2-2.2s2.2,1,2.2,2.2C110.8,389.3,109.8,390.2,108.6,390.2"/>
<path d="M114.4,397.4c-1.2,0-2.2-1-2.2-2.2c0-1.2,1-2.2,2.2-2.2s2.2,1,2.2,2.2C116.6,396.4,115.6,397.4,114.4,397.4"/>
<path d="M101.4,391.3c-1.2,0-2.2-1-2.2-2.2c0-1.2,1-2.2,2.2-2.2s2.2,1,2.2,2.2C103.6,390.3,102.6,391.3,101.4,391.3"/>
<path d="M101.2,402c-1.2,0-2.2-1-2.2-2.2s1-2.2,2.2-2.2c1.2,0,2.2,1,2.2,2.2S102.4,402,101.2,402"/>
<path d="M105.6,395c-1.2,0-2.2-1-2.2-2.2s1-2.2,2.2-2.2s2.2,1,2.2,2.2S106.8,395,105.6,395"/>
<path d="M103.8,398.5c-1.2,0-2.2-1-2.2-2.2s1-2.2,2.2-2.2c1.2,0,2.2,1,2.2,2.2S105,398.5,103.8,398.5"/>
<path d="M113.5,407.6c-1.2,0-2.2-1-2.2-2.2c0-1.2,1-2.2,2.2-2.2s2.2,1,2.2,2.2C115.7,406.7,114.7,407.6,113.5,407.6"/>
<path d="M112.3,402.7c-1.2,0-2.2-1-2.2-2.2c0-1.2,1-2.2,2.2-2.2c1.2,0,2.2,1,2.2,2.2C114.5,401.7,113.5,402.7,112.3,402.7"/>
<path d="M92.9,391.3c-1.2,0-2.2-1-2.2-2.2c0-1.2,1-2.2,2.2-2.2s2.2,1,2.2,2.2C95.1,390.3,94.1,391.3,92.9,391.3"/>
<path d="M106.9,402.6c-1.2,0-2.2-1-2.2-2.2c0-1.2,1-2.2,2.2-2.2s2.2,1,2.2,2.2C109,401.7,108.1,402.6,106.9,402.6"/>
<path d="M95.6,406.6c-1.2,0-2.2-1-2.2-2.2c0-1.2,1-2.2,2.2-2.2s2.2,1,2.2,2.2C97.8,405.6,96.8,406.6,95.6,406.6"/>
<path d="M96.1,397.4c-1.2,0-2.2-1-2.2-2.2c0-1.2,1-2.2,2.2-2.2s2.2,1,2.2,2.2C98.3,396.4,97.3,397.4,96.1,397.4"/>
<path d="M93.4,395.7c-1.2,0-2.2-1-2.2-2.2c0-1.2,1-2.2,2.2-2.2s2.2,1,2.2,2.2C95.6,394.8,94.6,395.7,93.4,395.7"/>
<path d="M87.9,392.8c-1.2,0-2.2-1-2.2-2.2c0-1.2,1-2.2,2.2-2.2c1.2,0,2.2,1,2.2,2.2C90.1,391.9,89.1,392.8,87.9,392.8"/>
<path d="M89,402c-1.2,0-2.2-1-2.2-2.2s1-2.2,2.2-2.2s2.2,1,2.2,2.2S90.2,402,89,402"/>
<path d="M87.5,397.4c-1.2,0-2.2-1-2.2-2.2c0-1.2,1-2.2,2.2-2.2s2.2,1,2.2,2.2C89.7,396.4,88.7,397.4,87.5,397.4"/>
<path d="M84.2,394.8c-1.2,0-2.2-1-2.2-2.2c0-1.2,1-2.2,2.2-2.2c1.2,0,2.2,1,2.2,2.2C86.4,393.8,85.4,394.8,84.2,394.8"/>
<path d="M91.2,406.1c-1.2,0-2.2-1-2.2-2.2c0-1.2,1-2.2,2.2-2.2c1.2,0,2.2,1,2.2,2.2C93.4,405.2,92.4,406.1,91.2,406.1"/>
<path d="M90.4,400.7c-1.2,0-2.2-1-2.2-2.2c0-1.2,1-2.2,2.2-2.2c1.2,0,2.2,1,2.2,2.2C92.6,399.7,91.6,400.7,90.4,400.7"/>
<path d="M94.5,401.6c-1.2,0-2.2-1-2.2-2.2c0-1.2,1-2.2,2.2-2.2s2.2,1,2.2,2.2C96.6,400.6,95.7,401.6,94.5,401.6"/>
<path d="M85.1,405.5c-1.2,0-2.2-1-2.2-2.2s1-2.2,2.2-2.2c1.2,0,2.2,1,2.2,2.2S86.3,405.5,85.1,405.5"/>
<path d="M106.9,406.1c-1.2,0-2.2-1-2.2-2.2c0-1.2,1-2.2,2.2-2.2s2.2,1,2.2,2.2C109.1,405.1,108.1,406.1,106.9,406.1"/>
<path d="M101.2,406.1c-1.2,0-2.2-1-2.2-2.2c0-1.2,1-2.2,2.2-2.2c1.2,0,2.2,1,2.2,2.2C103.4,405.1,102.4,406.1,101.2,406.1"/>
<path d="M99.3,395.2c-1.2,0-2.2-1-2.2-2.2c0-1.2,1-2.2,2.2-2.2c1.2,0,2.2,1,2.2,2.2C101.4,394.3,100.5,395.2,99.3,395.2"/>
<path d="M84.5,401.1c-1.2,0-2.2-1-2.2-2.2c0-1.2,1-2.2,2.2-2.2s2.2,1,2.2,2.2C86.7,400.1,85.7,401.1,84.5,401.1"/>
<path d="M79.5,401.1c-1.2,0-2.2-1-2.2-2.2c0-1.2,1-2.2,2.2-2.2s2.2,1,2.2,2.2C81.6,400.1,80.7,401.1,79.5,401.1"/>
<path d="M82.3,407c-1.2,0-2.2-1-2.2-2.2s1-2.2,2.2-2.2c1.2,0,2.2,1,2.2,2.2S83.5,407,82.3,407"/>
<path d="M76.8,405.7c-1.2,0-2.2-1-2.2-2.2c0-1.2,1-2.2,2.2-2.2c1.2,0,2.2,1,2.2,2.2C79,404.7,78,405.7,76.8,405.7"/>
<path d="M72.9,402.6c-1.2,0-2.2-1-2.2-2.2c0-1.2,1-2.2,2.2-2.2c1.2,0,2.2,1,2.2,2.2C75.1,401.6,74.1,402.6,72.9,402.6"/>
<path d="M69.2,394.6c-1.2,0-2.2-1-2.2-2.2c0-1.2,1-2.2,2.2-2.2c1.2,0,2.2,1,2.2,2.2C71.4,393.6,70.4,394.6,69.2,394.6"/>
<path d="M65.5,390.7c-1.2,0-2.2-1-2.2-2.2c0-1.2,1-2.2,2.2-2.2s2.2,1,2.2,2.2C67.7,389.7,66.7,390.7,65.5,390.7"/>
<path d="M72.1,391.5c-1.2,0-2.2-1-2.2-2.2s1-2.2,2.2-2.2c1.2,0,2.2,1,2.2,2.2C74.2,390.6,73.3,391.5,72.1,391.5"/>
<path d="M76.4,396.3c-1.2,0-2.2-1-2.2-2.2c0-1.2,1-2.2,2.2-2.2c1.2,0,2.2,1,2.2,2.2C78.6,395.3,77.6,396.3,76.4,396.3"/>
<path d="M69,404.6c-1.2,0-2.2-1-2.2-2.2c0-1.2,1-2.2,2.2-2.2s2.2,1,2.2,2.2C71.2,403.6,70.2,404.6,69,404.6"/>
<path d="M69.2,396.9c1.1,0.5,1.6,1.8,1.1,2.9s-1.8,1.6-2.9,1.1s-1.6-1.8-1.1-2.9C66.9,397,68.1,396.5,69.2,396.9"/>
<path d="M72.7,398.5c-1.2,0-2.2-1-2.2-2.2s1-2.2,2.2-2.2c1.2,0,2.2,1,2.2,2.2S73.9,398.5,72.7,398.5"/>
<path d="M81.6,398.5c-1.2,0-2.2-1-2.2-2.2s1-2.2,2.2-2.2c1.2,0,2.2,1,2.2,2.2S82.8,398.5,81.6,398.5"/>
<path d="M77.9,392.6c-1.2,0-2.2-1-2.2-2.2c0-1.2,1-2.2,2.2-2.2c1.2,0,2.2,1,2.2,2.2C80.1,391.7,79.1,392.6,77.9,392.6"/>
<path d="M83.6,390.2c-1.2,0-2.2-1-2.2-2.2c0-1.2,1-2.2,2.2-2.2c1.2,0,2.2,1,2.2,2.2C85.8,389.3,84.8,390.2,83.6,390.2"/>
<path d="M79.9,393.9c-1.2,0-2.2-1-2.2-2.2c0-1.2,1-2.2,2.2-2.2c1.2,0,2.2,1,2.2,2.2C82.1,393,81.1,393.9,79.9,393.9"/>
<path d="M65.5,395.2c-1.2,0-2.2-1-2.2-2.2c0-1.2,1-2.2,2.2-2.2s2.2,1,2.2,2.2C67.7,394.3,66.7,395.2,65.5,395.2"/>
<path d="M61.6,398.3c-1.2,0-2.2-1-2.2-2.2c0-1.2,1-2.2,2.2-2.2c1.2,0,2.2,1,2.2,2.2C63.8,397.3,62.8,398.3,61.6,398.3"/>
<path d="M61.6,392.4c-1.2,0-2.2-1-2.2-2.2c0-1.2,1-2.2,2.2-2.2c1.2,0,2.2,1,2.2,2.2C63.8,391.4,62.8,392.4,61.6,392.4"/>
<path d="M61.2,402.4c-1.2,0-2.2-1-2.2-2.2c0-1.2,1-2.2,2.2-2.2s2.2,1,2.2,2.2C63.4,401.5,62.4,402.4,61.2,402.4"/>
<path d="M66.2,408.3c-1.2,0-2.2-1-2.2-2.2c0-1.2,1-2.2,2.2-2.2c1.2,0,2.2,1,2.2,2.2C68.4,407.3,67.4,408.3,66.2,408.3"/>
<path d="M73.1,407.9c-1.2,0-2.2-1-2.2-2.2c0-1.2,1-2.2,2.2-2.2c1.2,0,2.2,1,2.2,2.2C75.3,406.9,74.3,407.9,73.1,407.9"/>
<path d="M242.1,396.4c-1.2,0-2.2-1-2.2-2.2c0-1.2,1-2.2,2.2-2.2s2.2,1,2.2,2.2C244.3,395.4,243.3,396.4,242.1,396.4"/>
<path d="M237.8,392.9c-1.2,0-2.2-1-2.2-2.2c0-1.2,1-2.2,2.2-2.2s2.2,1,2.2,2.2C239.9,391.9,239,392.9,237.8,392.9"/>
<path d="M241,397.2c-1.2,0-2.2-1-2.2-2.2c0-1.2,1-2.2,2.2-2.2s2.2,1,2.2,2.2C243.1,396.2,242.2,397.2,241,397.2"/>
<path d="M241.5,407.2c-1.2,0-2.2-1-2.2-2.2c0-1.2,1-2.2,2.2-2.2s2.2,1,2.2,2.2C243.6,406.3,242.7,407.2,241.5,407.2"/>
<path d="M235.9,398.9c1.1,0.5,1.6,1.8,1.1,2.9s-1.8,1.6-2.9,1.1c-1.1-0.5-1.6-1.8-1.1-2.9C233.5,398.9,234.8,398.4,235.9,398.9"/>
<path d="M242.1,401.1c-1.2,0-2.2-1-2.2-2.2c0-1.2,1-2.2,2.2-2.2s2.2,1,2.2,2.2C244.3,400.1,243.3,401.1,242.1,401.1"/>
<path d="M234.1,398.3c-1.2,0-2.2-1-2.2-2.2c0-1.2,1-2.2,2.2-2.2s2.2,1,2.2,2.2C236.3,397.3,235.3,398.3,234.1,398.3"/>
<path d="M230.6,400.9c-1.2,0-2.2-1-2.2-2.2c0-1.2,1-2.2,2.2-2.2s2.2,1,2.2,2.2C232.8,400,231.9,400.9,230.6,400.9"/>
<path d="M230.2,396.8c-1.2,0-2.2-1-2.2-2.2c0-1.2,1-2.2,2.2-2.2s2.2,1,2.2,2.2C232.4,395.8,231.4,396.8,230.2,396.8"/>
<path d="M230.2,406.4c-1.2,0-2.2-1-2.2-2.2c0-1.2,1-2.2,2.2-2.2s2.2,1,2.2,2.2C232.4,405.4,231.4,406.4,230.2,406.4"/>
<path d="M235.6,410c-1.2,0-2.2-1-2.2-2.2s1-2.2,2.2-2.2s2.2,1,2.2,2.2C237.8,409.1,236.8,410,235.6,410"/>
<path d="M353.7,389.1c-1.2,0-2.2-1-2.2-2.2c0-1.2,1-2.2,2.2-2.2s2.2,1,2.2,2.2C355.8,388.2,354.9,389.1,353.7,389.1"/>
<path d="M349.1,397.2c-1.2,0-2.2-1-2.2-2.2c0-1.2,1-2.2,2.2-2.2s2.2,1,2.2,2.2C351.3,396.2,350.3,397.2,349.1,397.2"/>
<path d="M352.7,394.2c-1.2,0-2.2-1-2.2-2.2c0-1.2,1-2.2,2.2-2.2s2.2,1,2.2,2.2C354.9,393.2,353.9,394.2,352.7,394.2"/>
<path d="M348.4,390.7c-1.2,0-2.2-1-2.2-2.2c0-1.2,1-2.2,2.2-2.2s2.2,1,2.2,2.2C350.6,389.7,349.6,390.7,348.4,390.7"/>
<path d="M349.1,393.5c-1.2,0-2.2-1-2.2-2.2s1-2.2,2.2-2.2s2.2,1,2.2,2.2S350.3,393.5,349.1,393.5"/>
<path d="M343.6,393.3c-1.2,0-2.2-1-2.2-2.2c0-1.2,1-2.2,2.2-2.2s2.2,1,2.2,2.2C345.8,392.3,344.8,393.3,343.6,393.3"/>
<path d="M339.9,401.8c-1.2,0-2.2-1-2.2-2.2c0-1.2,1-2.2,2.2-2.2s2.2,1,2.2,2.2C342.1,400.8,341.1,401.8,339.9,401.8"/>
<path d="M344.1,397c-1.2,0-2.2-1-2.2-2.2s1-2.2,2.2-2.2s2.2,1,2.2,2.2S345.3,397,344.1,397"/>
<path d="M346.3,399.6c-1.2,0-2.2-1-2.2-2.2c0-1.2,1-2.2,2.2-2.2s2.2,1,2.2,2.2C348.4,398.6,347.5,399.6,346.3,399.6"/>
<path d="M350.9,407.6c-1.2,0-2.2-1-2.2-2.2c0-1.2,1-2.2,2.2-2.2s2.2,1,2.2,2.2C353,406.7,352.1,407.6,350.9,407.6"/>
<path d="M349.5,403.7c-1.2,0-2.2-1-2.2-2.2c0-1.2,1-2.2,2.2-2.2s2.2,1,2.2,2.2C351.7,402.7,350.7,403.7,349.5,403.7"/>
<path d="M336.2,391.3c-1.2,0-2.2-1-2.2-2.2c0-1.2,1-2.2,2.2-2.2s2.2,1,2.2,2.2C338.4,390.3,337.4,391.3,336.2,391.3"/>
<path d="M343.4,404.8c-1.2,0-2.2-1-2.2-2.2c0-1.2,1-2.2,2.2-2.2s2.2,1,2.2,2.2C345.6,403.9,344.6,404.8,343.4,404.8"/>
<path d="M337,405.7c-1.2,0-2.2-1-2.2-2.2c0-1.2,1-2.2,2.2-2.2s2.2,1,2.2,2.2C339.2,404.7,338.2,405.7,337,405.7"/>
<path d="M335.8,398.1c-1.2,0-2.2-1-2.2-2.2c0-1.2,1-2.2,2.2-2.2s2.2,1,2.2,2.2C338,397.1,337,398.1,335.8,398.1"/>
<path d="M334.1,394.6c-1.2,0-2.2-1-2.2-2.2c0-1.2,1-2.2,2.2-2.2s2.2,1,2.2,2.2C336.2,393.6,335.3,394.6,334.1,394.6"/>
<path d="M329.7,393.7c-1.2,0-2.2-1-2.2-2.2c0-1.2,1-2.2,2.2-2.2s2.2,1,2.2,2.2C331.9,392.8,330.9,393.7,329.7,393.7"/>
<path d="M328,402c-1.2,0-2.2-1-2.2-2.2s1-2.2,2.2-2.2s2.2,1,2.2,2.2S329.2,402,328,402"/>
<path d="M328.4,397.2c-1.2,0-2.2-1-2.2-2.2c0-1.2,1-2.2,2.2-2.2s2.2,1,2.2,2.2C330.6,396.2,329.6,397.2,328.4,397.2"/>
<path d="M326.2,392.6c-1.2,0-2.2-1-2.2-2.2c0-1.2,1-2.2,2.2-2.2s2.2,1,2.2,2.2C328.4,391.7,327.4,392.6,326.2,392.6"/>
<path d="M333,407.2c-1.2,0-2.2-1-2.2-2.2c0-1.2,1-2.2,2.2-2.2s2.2,1,2.2,2.2C335.2,406.2,334.2,407.2,333,407.2"/>
<path d="M330.8,403.7c-1.2,0-2.2-1-2.2-2.2c0-1.2,1-2.2,2.2-2.2s2.2,1,2.2,2.2C333,402.8,332,403.7,330.8,403.7"/>
<path d="M334.3,402.4c-1.2,0-2.2-1-2.2-2.2c0-1.2,1-2.2,2.2-2.2s2.2,1,2.2,2.2C336.5,401.5,335.5,402.4,334.3,402.4"/>
<path d="M328,406.1c-1.2,0-2.2-1-2.2-2.2c0-1.2,1-2.2,2.2-2.2s2.2,1,2.2,2.2C330.2,405.2,329.2,406.1,328,406.1"/>
<path d="M346.9,406.8c-1.2,0-2.2-1-2.2-2.2c0-1.2,1-2.2,2.2-2.2s2.2,1,2.2,2.2C349.1,405.8,348.1,406.8,346.9,406.8"/>
<path d="M340.6,407.6c-1.2,0-2.2-1-2.2-2.2c0-1.2,1-2.2,2.2-2.2s2.2,1,2.2,2.2C342.8,406.6,341.8,407.6,340.6,407.6"/>
<path d="M339.6,395.2c-1.2,0-2.2-1-2.2-2.2c0-1.2,1-2.2,2.2-2.2s2.2,1,2.2,2.2C341.8,394.3,340.8,395.2,339.6,395.2"/>
<path d="M328,400.2c-1.2,0-2.2-1-2.2-2.2c0-1.2,1-2.2,2.2-2.2s2.2,1,2.2,2.2C330.2,399.2,329.2,400.2,328,400.2"/>
<path d="M322.5,402.6c-1.2,0-2.2-1-2.2-2.2c0-1.2,1-2.2,2.2-2.2s2.2,1,2.2,2.2C324.7,401.7,323.7,402.6,322.5,402.6"/>
<path d="M321.7,407.6c-1.2,0-2.2-1-2.2-2.2c0-1.2,1-2.2,2.2-2.2s2.2,1,2.2,2.2C323.9,406.6,322.9,407.6,321.7,407.6"/>
<path d="M315.8,403.7c-1.2,0-2.2-1-2.2-2.2c0-1.2,1-2.2,2.2-2.2s2.2,1,2.2,2.2C318,402.7,317,403.7,315.8,403.7"/>
<path d="M316.9,398.1c-1.2,0-2.2-1-2.2-2.2c0-1.2,1-2.2,2.2-2.2c1.2,0,2.2,1,2.2,2.2C319.1,397.1,318.1,398.1,316.9,398.1"/>
<path d="M308.6,394.8c-1.2,0-2.2-1-2.2-2.2c0-1.2,1-2.2,2.2-2.2s2.2,1,2.2,2.2C310.8,393.8,309.8,394.8,308.6,394.8"/>
<path d="M304.9,390.2c-1.2,0-2.2-1-2.2-2.2c0-1.2,1-2.2,2.2-2.2s2.2,1,2.2,2.2C307.1,389.3,306.1,390.2,304.9,390.2"/>
<path d="M311.9,391.2c-1.1,0.4-2.4-0.3-2.7-1.4c-0.4-1.1,0.3-2.4,1.4-2.7c1.1-0.4,2.4,0.3,2.7,1.4
	C313.7,389.6,313.1,390.9,311.9,391.2"/>
<path d="M313.4,396.3c-1.2,0-2.2-1-2.2-2.2c0-1.2,1-2.2,2.2-2.2s2.2,1,2.2,2.2C315.6,395.3,314.6,396.3,313.4,396.3"/>
<path d="M302.3,404.4c-1.2,0-2.2-1-2.2-2.2c0-1.2,1-2.2,2.2-2.2c1.2,0,2.2,1,2.2,2.2C304.5,403.4,303.5,404.4,302.3,404.4"/>
<path d="M304.5,396.1c1.1,0.5,1.6,1.8,1.1,2.9c-0.5,1.1-1.8,1.6-2.9,1.1c-1.1-0.5-1.6-1.8-1.1-2.9S303.4,395.6,304.5,396.1"/>
<path d="M310.4,400.2c-1.2,0-2.2-1-2.2-2.2c0-1.2,1-2.2,2.2-2.2s2.2,1,2.2,2.2C312.6,399.2,311.6,400.2,310.4,400.2"/>
<path d="M321,398.3c-1.2,0-2.2-1-2.2-2.2c0-1.2,1-2.2,2.2-2.2s2.2,1,2.2,2.2C323.2,397.3,322.2,398.3,321,398.3"/>
<path d="M316.9,392.6c-1.2,0-2.2-1-2.2-2.2c0-1.2,1-2.2,2.2-2.2c1.2,0,2.2,1,2.2,2.2C319.1,391.7,318.1,392.6,316.9,392.6"/>
<path d="M321,391.3c-1.2,0-2.2-1-2.2-2.2c0-1.2,1-2.2,2.2-2.2s2.2,1,2.2,2.2C323.2,390.4,322.2,391.3,321,391.3"/>
<path d="M308,404.8c-1.2,0-2.2-1-2.2-2.2c0-1.2,1-2.2,2.2-2.2s2.2,1,2.2,2.2C310.1,403.8,309.2,404.8,308,404.8"/>
<path d="M304.3,395.5c-1.2,0-2.2-1-2.2-2.2s1-2.2,2.2-2.2c1.2,0,2.2,1,2.2,2.2C306.4,394.5,305.5,395.5,304.3,395.5"/>
<path d="M298.6,399.4c-1.2,0-2.2-1-2.2-2.2c0-1.2,1-2.2,2.2-2.2s2.2,1,2.2,2.2C300.8,398.4,299.8,399.4,298.6,399.4"/>
<path d="M299.1,392.6c-1.2,0-2.2-1-2.2-2.2c0-1.2,1-2.2,2.2-2.2s2.2,1,2.2,2.2C301.3,391.7,300.3,392.6,299.1,392.6"/>
<path d="M299.1,403.1c-1.2,0-2.2-1-2.2-2.2c0-1.2,1-2.2,2.2-2.2s2.2,1,2.2,2.2C301.3,402.1,300.3,403.1,299.1,403.1"/>
<path d="M298.2,407.2c-1.2,0-2.2-1-2.2-2.2c0-1.2,1-2.2,2.2-2.2c1.2,0,2.2,1,2.2,2.2C300.4,406.2,299.4,407.2,298.2,407.2"/>
<path d="M312.5,407.2c-1.2,0-2.2-1-2.2-2.2c0-1.2,1-2.2,2.2-2.2s2.2,1,2.2,2.2C314.7,406.2,313.7,407.2,312.5,407.2"/>
<path d="M409.4,390.5c-1.2,0-2.2-1-2.2-2.2s1-2.2,2.2-2.2s2.2,1,2.2,2.2S410.7,390.5,409.4,390.5"/>
<path d="M403.4,396.1c-1.2,0-2.2-1-2.2-2.2c0-1.2,1-2.2,2.2-2.2s2.2,1,2.2,2.2C405.6,395.1,404.6,396.1,403.4,396.1"/>
<path d="M405.6,392.9c-1.2,0-2.2-1-2.2-2.2c0-1.2,1-2.2,2.2-2.2s2.2,1,2.2,2.2C407.8,391.9,406.8,392.9,405.6,392.9"/>
<path d="M402.3,390c-1.2,0-2.2-1-2.2-2.2s1-2.2,2.2-2.2s2.2,1,2.2,2.2S403.5,390,402.3,390"/>
<path d="M406.2,398.3c-1.2,0-2.2-1-2.2-2.2c0-1.2,1-2.2,2.2-2.2s2.2,1,2.2,2.2C408.4,397.3,407.5,398.3,406.2,398.3"/>
<path d="M398,392.9c-1.2,0-2.2-1-2.2-2.2c0-1.2,1-2.2,2.2-2.2s2.2,1,2.2,2.2C400.2,391.9,399.2,392.9,398,392.9"/>
<path d="M394.5,401.1c-1.2,0-2.2-1-2.2-2.2c0-1.2,1-2.2,2.2-2.2s2.2,1,2.2,2.2C396.7,400.1,395.7,401.1,394.5,401.1"/>
<path d="M397.1,397.6c-1.2,0-2.2-1-2.2-2.2c0-1.2,1-2.2,2.2-2.2s2.2,1,2.2,2.2C399.3,396.6,398.3,397.6,397.1,397.6"/>
<path d="M401.2,401.1c-1.2,0-2.2-1-2.2-2.2c0-1.2,1-2.2,2.2-2.2s2.2,1,2.2,2.2C403.4,400.1,402.4,401.1,401.2,401.1"/>
<path d="M406.7,407.9c-1.2,0-2.2-1-2.2-2.2c0-1.2,1-2.2,2.2-2.2s2.2,1,2.2,2.2C408.9,406.9,407.9,407.9,406.7,407.9"/>
<path d="M405.8,403.5c-1.2,0-2.2-1-2.2-2.2s1-2.2,2.2-2.2s2.2,1,2.2,2.2S407,403.5,405.8,403.5"/>
<path d="M388.8,391.8c-1.2,0-2.2-1-2.2-2.2c0-1.2,1-2.2,2.2-2.2s2.2,1,2.2,2.2C391,390.8,390,391.8,388.8,391.8"/>
<path d="M398.2,404.2c-1.2,0-2.2-1-2.2-2.2c0-1.2,1-2.2,2.2-2.2s2.2,1,2.2,2.2C400.4,403.2,399.4,404.2,398.2,404.2"/>
<path d="M388.8,406.6c-1.2,0-2.2-1-2.2-2.2c0-1.2,1-2.2,2.2-2.2s2.2,1,2.2,2.2C391,405.6,390,406.6,388.8,406.6"/>
<path d="M389.7,402.2c-1.2,0-2.2-1-2.2-2.2c0-1.2,1-2.2,2.2-2.2s2.2,1,2.2,2.2C391.9,401.2,390.9,402.2,389.7,402.2"/>
<path d="M387.5,395.5c-1.2,0-2.2-1-2.2-2.2s1-2.2,2.2-2.2s2.2,1,2.2,2.2S388.7,395.5,387.5,395.5"/>
<path d="M382.8,391.5c-1.2,0-2.2-1-2.2-2.2s1-2.2,2.2-2.2s2.2,1,2.2,2.2C384.9,390.6,384,391.5,382.8,391.5"/>
<path d="M380.1,402.4c-1.2,0-2.2-1-2.2-2.2c0-1.2,1-2.2,2.2-2.2s2.2,1,2.2,2.2C382.3,401.4,381.3,402.4,380.1,402.4"/>
<path d="M379.7,397.6c-1.2,0-2.2-1-2.2-2.2c0-1.2,1-2.2,2.2-2.2s2.2,1,2.2,2.2C381.9,396.6,380.9,397.6,379.7,397.6"/>
<path d="M376,396.8c-1.2,0-2.2-1-2.2-2.2c0-1.2,1-2.2,2.2-2.2s2.2,1,2.2,2.2C378.2,395.8,377.2,396.8,376,396.8"/>
<path d="M384.3,407.6c-1.2,0-2.2-1-2.2-2.2c0-1.2,1-2.2,2.2-2.2s2.2,1,2.2,2.2C386.5,406.7,385.5,407.6,384.3,407.6"/>
<path d="M383.7,403.5c-1.2,0-2.2-1-2.2-2.2s1-2.2,2.2-2.2s2.2,1,2.2,2.2C385.8,402.5,384.9,403.5,383.7,403.5"/>
<path d="M384.5,399.8c-1.2,0-2.2-1-2.2-2.2c0-1.2,1-2.2,2.2-2.2s2.2,1,2.2,2.2C386.7,398.8,385.7,399.8,384.5,399.8"/>
<path d="M377.7,405.9c-1.2,0-2.2-1-2.2-2.2c0-1.2,1-2.2,2.2-2.2s2.2,1,2.2,2.2C379.9,404.9,379,405.9,377.7,405.9"/>
<path d="M401.9,407.2c-1.2,0-2.2-1-2.2-2.2c0-1.2,1-2.2,2.2-2.2s2.2,1,2.2,2.2C404.1,406.2,403.1,407.2,401.9,407.2"/>
<path d="M394.5,406.3c-1.2,0-2.2-1-2.2-2.2c0-1.2,1-2.2,2.2-2.2s2.2,1,2.2,2.2C396.7,405.3,395.7,406.3,394.5,406.3"/>
<path d="M393.4,395.2c-1.2,0-2.2-1-2.2-2.2c0-1.2,1-2.2,2.2-2.2s2.2,1,2.2,2.2C395.6,394.3,394.6,395.2,393.4,395.2"/>
<path d="M378,399.4c-1.2,0-2.2-1-2.2-2.2c0-1.2,1-2.2,2.2-2.2s2.2,1,2.2,2.2C380.2,398.4,379.2,399.4,378,399.4"/>
<path d="M373.8,402.2c-1.2,0-2.2-1-2.2-2.2c0-1.2,1-2.2,2.2-2.2s2.2,1,2.2,2.2C376,401.2,375,402.2,373.8,402.2"/>
<path d="M375.6,407.2c-1.2,0-2.2-1-2.2-2.2c0-1.2,1-2.2,2.2-2.2s2.2,1,2.2,2.2C377.8,406.2,376.8,407.2,375.6,407.2"/>
<path d="M371,406.1c-1.2,0-2.2-1-2.2-2.2c0-1.2,1-2.2,2.2-2.2s2.2,1,2.2,2.2C373.2,405.1,372.2,406.1,371,406.1"/>
<path d="M367.1,403.3c-1.2,0-2.2-1-2.2-2.2c0-1.2,1-2.2,2.2-2.2s2.2,1,2.2,2.2C369.3,402.3,368.3,403.3,367.1,403.3"/>
<path d="M362.5,393.1c-1.2,0-2.2-1-2.2-2.2c0-1.2,1-2.2,2.2-2.2s2.2,1,2.2,2.2C364.7,392.1,363.7,393.1,362.5,393.1"/>
<path d="M358.2,390c-1.2,0-2.2-1-2.2-2.2s1-2.2,2.2-2.2s2.2,1,2.2,2.2C360.3,389,359.4,390,358.2,390"/>
<path d="M359.7,392.8c-1.2,0-2.2-1-2.2-2.2c0-1.2,1-2.2,2.2-2.2s2.2,1,2.2,2.2C361.9,391.9,360.9,392.8,359.7,392.8"/>
<path d="M366.7,395c-1.2,0-2.2-1-2.2-2.2s1-2.2,2.2-2.2s2.2,1,2.2,2.2S367.9,395,366.7,395"/>
<path d="M360.8,404.6c-1.2,0-2.2-1-2.2-2.2c0-1.2,1-2.2,2.2-2.2s2.2,1,2.2,2.2C363,403.6,362,404.6,360.8,404.6"/>
<path d="M363.2,397.4c1.1,0.5,1.6,1.8,1.1,2.9s-1.8,1.6-2.9,1.1s-1.6-1.8-1.1-2.9C360.9,397.4,362.1,396.9,363.2,397.4"/>
<path d="M365.3,399.2c-1.2,0-2.2-1-2.2-2.2c0-1.2,1-2.2,2.2-2.2s2.2,1,2.2,2.2C367.5,398.2,366.5,399.2,365.3,399.2"/>
<path d="M371.4,398.1c-1.2,0-2.2-1-2.2-2.2c0-1.2,1-2.2,2.2-2.2s2.2,1,2.2,2.2C373.6,397.1,372.6,398.1,371.4,398.1"/>
<path d="M371.2,395.5c-1.2,0-2.2-1-2.2-2.2s1-2.2,2.2-2.2s2.2,1,2.2,2.2C373.4,394.5,372.4,395.5,371.2,395.5"/>
<path d="M378.4,390.5c-1.2,0-2.2-1-2.2-2.2s1-2.2,2.2-2.2s2.2,1,2.2,2.2S379.6,390.5,378.4,390.5"/>
<path d="M368.4,391.5c-1.2,0-2.2-1-2.2-2.2s1-2.2,2.2-2.2s2.2,1,2.2,2.2C370.6,390.6,369.6,391.5,368.4,391.5"/>
<path d="M358.8,395.9c-1.2,0-2.2-1-2.2-2.2c0-1.2,1-2.2,2.2-2.2s2.2,1,2.2,2.2C361,394.9,360,395.9,358.8,395.9"/>
<path d="M349.7,400.3c-1.2,0-2.2-1-2.2-2.2c0-1.2,1-2.2,2.2-2.2s2.2,1,2.2,2.2C351.9,399.3,350.9,400.3,349.7,400.3"/>
<path d="M355,396.1c-1.2,0-2.2-1-2.2-2.2c0-1.2,1-2.2,2.2-2.2s2.2,1,2.2,2.2C357.1,395.1,356.2,396.1,355,396.1"/>
<path d="M354.9,401.3c-1.1-0.5-1.6-1.8-1.1-2.9s1.8-1.6,2.9-1.1s1.6,1.8,1.1,2.9S356,401.8,354.9,401.3"/>
<path d="M357.1,407.2c-1.2,0-2.2-1-2.2-2.2c0-1.2,1-2.2,2.2-2.2s2.2,1,2.2,2.2C359.3,406.2,358.3,407.2,357.1,407.2"/>
<path d="M366.2,407c-1.2,0-2.2-1-2.2-2.2s1-2.2,2.2-2.2s2.2,1,2.2,2.2C368.4,406,367.4,407,366.2,407"/>
<path d="M296.1,390.2c-1.2,0-2.2-1-2.2-2.2c0-1.2,1-2.2,2.2-2.2s2.2,1,2.2,2.2C298.2,389.3,297.3,390.2,296.1,390.2"/>
<path d="M289.4,393.9c-1.2,0-2.2-1-2.2-2.2c0-1.2,1-2.2,2.2-2.2s2.2,1,2.2,2.2C291.6,392.9,290.6,393.9,289.4,393.9"/>
<path d="M294.2,393.7c-1.2,0-2.2-1-2.2-2.2c0-1.2,1-2.2,2.2-2.2c1.2,0,2.2,1,2.2,2.2C296.4,392.8,295.4,393.7,294.2,393.7"/>
<path d="M289,390.2c-1.2,0-2.2-1-2.2-2.2c0-1.2,1-2.2,2.2-2.2s2.2,1,2.2,2.2C291.2,389.3,290.2,390.2,289,390.2"/>
<path d="M294.7,397.4c-1.2,0-2.2-1-2.2-2.2c0-1.2,1-2.2,2.2-2.2c1.2,0,2.2,1,2.2,2.2C296.9,396.4,295.9,397.4,294.7,397.4"/>
<path d="M281.8,391.3c-1.2,0-2.2-1-2.2-2.2c0-1.2,1-2.2,2.2-2.2c1.2,0,2.2,1,2.2,2.2C284,390.3,283,391.3,281.8,391.3"/>
<path d="M281.6,402c-1.2,0-2.2-1-2.2-2.2s1-2.2,2.2-2.2s2.2,1,2.2,2.2S282.8,402,281.6,402"/>
<path d="M286,395c-1.2,0-2.2-1-2.2-2.2s1-2.2,2.2-2.2s2.2,1,2.2,2.2S287.2,395,286,395"/>
<path d="M284.2,398.5c-1.2,0-2.2-1-2.2-2.2s1-2.2,2.2-2.2c1.2,0,2.2,1,2.2,2.2S285.4,398.5,284.2,398.5"/>
<path d="M293.9,407.6c-1.2,0-2.2-1-2.2-2.2c0-1.2,1-2.2,2.2-2.2s2.2,1,2.2,2.2C296.1,406.7,295.1,407.6,293.9,407.6"/>
<path d="M292.7,402.7c-1.2,0-2.2-1-2.2-2.2c0-1.2,1-2.2,2.2-2.2c1.2,0,2.2,1,2.2,2.2C294.9,401.7,293.9,402.7,292.7,402.7"/>
<path d="M273.3,391.3c-1.2,0-2.2-1-2.2-2.2c0-1.2,1-2.2,2.2-2.2c1.2,0,2.2,1,2.2,2.2C275.5,390.3,274.5,391.3,273.3,391.3"/>
<path d="M287.3,402.6c-1.2,0-2.2-1-2.2-2.2c0-1.2,1-2.2,2.2-2.2c1.2,0,2.2,1,2.2,2.2C289.4,401.7,288.5,402.6,287.3,402.6"/>
<path d="M276,406.6c-1.2,0-2.2-1-2.2-2.2c0-1.2,1-2.2,2.2-2.2s2.2,1,2.2,2.2C278.2,405.6,277.2,406.6,276,406.6"/>
<path d="M276.5,397.4c-1.2,0-2.2-1-2.2-2.2c0-1.2,1-2.2,2.2-2.2s2.2,1,2.2,2.2C278.7,396.4,277.7,397.4,276.5,397.4"/>
<path d="M273.8,395.7c-1.2,0-2.2-1-2.2-2.2c0-1.2,1-2.2,2.2-2.2c1.2,0,2.2,1,2.2,2.2C276,394.8,275,395.7,273.8,395.7"/>
<path d="M268.3,392.8c-1.2,0-2.2-1-2.2-2.2c0-1.2,1-2.2,2.2-2.2c1.2,0,2.2,1,2.2,2.2C270.5,391.9,269.5,392.8,268.3,392.8"/>
<path d="M269.4,402c-1.2,0-2.2-1-2.2-2.2s1-2.2,2.2-2.2s2.2,1,2.2,2.2S270.6,402,269.4,402"/>
<path d="M267.9,397.4c-1.2,0-2.2-1-2.2-2.2c0-1.2,1-2.2,2.2-2.2s2.2,1,2.2,2.2C270.1,396.4,269.1,397.4,267.9,397.4"/>
<path d="M264.6,394.8c-1.2,0-2.2-1-2.2-2.2c0-1.2,1-2.2,2.2-2.2s2.2,1,2.2,2.2C266.8,393.8,265.8,394.8,264.6,394.8"/>
<path d="M271.6,406.1c-1.2,0-2.2-1-2.2-2.2c0-1.2,1-2.2,2.2-2.2s2.2,1,2.2,2.2C273.8,405.2,272.8,406.1,271.6,406.1"/>
<path d="M270.8,400.7c-1.2,0-2.2-1-2.2-2.2c0-1.2,1-2.2,2.2-2.2c1.2,0,2.2,1,2.2,2.2C273,399.7,272,400.7,270.8,400.7"/>
<path d="M274.9,401.6c-1.2,0-2.2-1-2.2-2.2c0-1.2,1-2.2,2.2-2.2s2.2,1,2.2,2.2C277,400.6,276.1,401.6,274.9,401.6"/>
<path d="M265.5,405.5c-1.2,0-2.2-1-2.2-2.2s1-2.2,2.2-2.2s2.2,1,2.2,2.2S266.7,405.5,265.5,405.5"/>
<path d="M287.3,406.1c-1.2,0-2.2-1-2.2-2.2c0-1.2,1-2.2,2.2-2.2c1.2,0,2.2,1,2.2,2.2C289.5,405.1,288.5,406.1,287.3,406.1"/>
<path d="M281.6,406.1c-1.2,0-2.2-1-2.2-2.2c0-1.2,1-2.2,2.2-2.2s2.2,1,2.2,2.2C283.8,405.1,282.8,406.1,281.6,406.1"/>
<path d="M279.6,395.2c-1.2,0-2.2-1-2.2-2.2c0-1.2,1-2.2,2.2-2.2s2.2,1,2.2,2.2C281.8,394.3,280.9,395.2,279.6,395.2"/>
<path d="M264.9,401.1c-1.2,0-2.2-1-2.2-2.2c0-1.2,1-2.2,2.2-2.2s2.2,1,2.2,2.2C267.1,400.1,266.1,401.1,264.9,401.1"/>
<path d="M259.8,401.1c-1.2,0-2.2-1-2.2-2.2c0-1.2,1-2.2,2.2-2.2c1.2,0,2.2,1,2.2,2.2C262,400.1,261,401.1,259.8,401.1"/>
<path d="M262.7,407c-1.2,0-2.2-1-2.2-2.2s1-2.2,2.2-2.2c1.2,0,2.2,1,2.2,2.2S263.9,407,262.7,407"/>
<path d="M257.2,405.7c-1.2,0-2.2-1-2.2-2.2c0-1.2,1-2.2,2.2-2.2c1.2,0,2.2,1,2.2,2.2C259.4,404.7,258.4,405.7,257.2,405.7"/>
<path d="M253.3,402.6c-1.2,0-2.2-1-2.2-2.2c0-1.2,1-2.2,2.2-2.2s2.2,1,2.2,2.2C255.5,401.6,254.5,402.6,253.3,402.6"/>
<path d="M249.6,394.6c-1.2,0-2.2-1-2.2-2.2c0-1.2,1-2.2,2.2-2.2s2.2,1,2.2,2.2C251.8,393.6,250.8,394.6,249.6,394.6"/>
<path d="M245.9,390.7c-1.2,0-2.2-1-2.2-2.2c0-1.2,1-2.2,2.2-2.2s2.2,1,2.2,2.2C248.1,389.7,247.1,390.7,245.9,390.7"/>
<path d="M252.4,391.5c-1.2,0-2.2-1-2.2-2.2s1-2.2,2.2-2.2s2.2,1,2.2,2.2C254.6,390.6,253.7,391.5,252.4,391.5"/>
<path d="M256.8,396.3c-1.2,0-2.2-1-2.2-2.2c0-1.2,1-2.2,2.2-2.2c1.2,0,2.2,1,2.2,2.2C259,395.3,258,396.3,256.8,396.3"/>
<path d="M249.4,404.6c-1.2,0-2.2-1-2.2-2.2c0-1.2,1-2.2,2.2-2.2s2.2,1,2.2,2.2C251.6,403.6,250.6,404.6,249.4,404.6"/>
<path d="M249.6,396.9c1.1,0.5,1.6,1.8,1.1,2.9s-1.8,1.6-2.9,1.1c-1.1-0.5-1.6-1.8-1.1-2.9C247.3,397,248.5,396.5,249.6,396.9"/>
<path d="M253.1,398.5c-1.2,0-2.2-1-2.2-2.2s1-2.2,2.2-2.2s2.2,1,2.2,2.2S254.3,398.5,253.1,398.5"/>
<path d="M262,398.5c-1.2,0-2.2-1-2.2-2.2s1-2.2,2.2-2.2s2.2,1,2.2,2.2S263.2,398.5,262,398.5"/>
<path d="M258.3,392.6c-1.2,0-2.2-1-2.2-2.2c0-1.2,1-2.2,2.2-2.2c1.2,0,2.2,1,2.2,2.2C260.5,391.7,259.5,392.6,258.3,392.6"/>
<path d="M264,390.2c-1.2,0-2.2-1-2.2-2.2c0-1.2,1-2.2,2.2-2.2s2.2,1,2.2,2.2C266.2,389.3,265.2,390.2,264,390.2"/>
<path d="M260.3,393.9c-1.2,0-2.2-1-2.2-2.2c0-1.2,1-2.2,2.2-2.2c1.2,0,2.2,1,2.2,2.2C262.5,393,261.5,393.9,260.3,393.9"/>
<path d="M245.9,395.2c-1.2,0-2.2-1-2.2-2.2c0-1.2,1-2.2,2.2-2.2s2.2,1,2.2,2.2C248.1,394.3,247.1,395.2,245.9,395.2"/>
<path d="M242,398.3c-1.2,0-2.2-1-2.2-2.2c0-1.2,1-2.2,2.2-2.2s2.2,1,2.2,2.2C244.2,397.3,243.2,398.3,242,398.3"/>
<path d="M242,392.4c-1.2,0-2.2-1-2.2-2.2c0-1.2,1-2.2,2.2-2.2s2.2,1,2.2,2.2C244.2,391.4,243.2,392.4,242,392.4"/>
<path d="M241.6,402.4c-1.2,0-2.2-1-2.2-2.2c0-1.2,1-2.2,2.2-2.2s2.2,1,2.2,2.2C243.7,401.5,242.8,402.4,241.6,402.4"/>
<path d="M246.6,408.3c-1.2,0-2.2-1-2.2-2.2c0-1.2,1-2.2,2.2-2.2s2.2,1,2.2,2.2C248.8,407.3,247.8,408.3,246.6,408.3"/>
<path d="M253.5,407.9c-1.2,0-2.2-1-2.2-2.2c0-1.2,1-2.2,2.2-2.2s2.2,1,2.2,2.2C255.7,406.9,254.7,407.9,253.5,407.9"/>
<path d="M422.5,396.4c-1.2,0-2.2-1-2.2-2.2c0-1.2,1-2.2,2.2-2.2s2.2,1,2.2,2.2C424.7,395.4,423.7,396.4,422.5,396.4"/>
<path d="M418.2,392.9c-1.2,0-2.2-1-2.2-2.2c0-1.2,1-2.2,2.2-2.2s2.2,1,2.2,2.2C420.3,391.9,419.4,392.9,418.2,392.9"/>
<path d="M421.4,397.2c-1.2,0-2.2-1-2.2-2.2c0-1.2,1-2.2,2.2-2.2s2.2,1,2.2,2.2C423.5,396.2,422.6,397.2,421.4,397.2"/>
<path d="M421.8,407.2c-1.2,0-2.2-1-2.2-2.2c0-1.2,1-2.2,2.2-2.2s2.2,1,2.2,2.2C424,406.3,423.1,407.2,421.8,407.2"/>
<path d="M416.3,398.9c1.1,0.5,1.6,1.8,1.1,2.9s-1.8,1.6-2.9,1.1s-1.6-1.8-1.1-2.9C413.9,398.9,415.2,398.4,416.3,398.9"/>
<path d="M422.5,401.1c-1.2,0-2.2-1-2.2-2.2c0-1.2,1-2.2,2.2-2.2s2.2,1,2.2,2.2C424.7,400.1,423.7,401.1,422.5,401.1"/>
<path d="M414.5,398.3c-1.2,0-2.2-1-2.2-2.2c0-1.2,1-2.2,2.2-2.2s2.2,1,2.2,2.2C416.7,397.3,415.7,398.3,414.5,398.3"/>
<path d="M411,400.9c-1.2,0-2.2-1-2.2-2.2c0-1.2,1-2.2,2.2-2.2s2.2,1,2.2,2.2C413.2,400,412.2,400.9,411,400.9"/>
<path d="M410.6,396.8c-1.2,0-2.2-1-2.2-2.2c0-1.2,1-2.2,2.2-2.2s2.2,1,2.2,2.2C412.8,395.8,411.8,396.8,410.6,396.8"/>
<path d="M410.6,406.4c-1.2,0-2.2-1-2.2-2.2c0-1.2,1-2.2,2.2-2.2s2.2,1,2.2,2.2C412.8,405.4,411.8,406.4,410.6,406.4"/>
<path d="M416,410c-1.2,0-2.2-1-2.2-2.2s1-2.2,2.2-2.2s2.2,1,2.2,2.2C418.2,409.1,417.2,410,416,410"/>
<path d="M534.9,389.1c-1.2,0-2.2-1-2.2-2.2c0-1.2,1-2.2,2.2-2.2c1.2,0,2.2,1,2.2,2.2C537,388.2,536.1,389.1,534.9,389.1"/>
<path d="M530.3,397.2c-1.2,0-2.2-1-2.2-2.2c0-1.2,1-2.2,2.2-2.2s2.2,1,2.2,2.2C532.5,396.2,531.5,397.2,530.3,397.2"/>
<path d="M533.9,394.2c-1.2,0-2.2-1-2.2-2.2c0-1.2,1-2.2,2.2-2.2c1.2,0,2.2,1,2.2,2.2C536.1,393.2,535.1,394.2,533.9,394.2"/>
<path d="M529.6,390.7c-1.2,0-2.2-1-2.2-2.2c0-1.2,1-2.2,2.2-2.2c1.2,0,2.2,1,2.2,2.2C531.8,389.7,530.8,390.7,529.6,390.7"/>
<path d="M530.3,393.5c-1.2,0-2.2-1-2.2-2.2s1-2.2,2.2-2.2s2.2,1,2.2,2.2S531.5,393.5,530.3,393.5"/>
<path d="M524.9,393.3c-1.2,0-2.2-1-2.2-2.2c0-1.2,1-2.2,2.2-2.2c1.2,0,2.2,1,2.2,2.2C527.1,392.3,526.1,393.3,524.9,393.3"/>
<path d="M521.1,401.8c-1.2,0-2.2-1-2.2-2.2c0-1.2,1-2.2,2.2-2.2c1.2,0,2.2,1,2.2,2.2C523.3,400.8,522.3,401.8,521.1,401.8"/>
<path d="M525.3,397c-1.2,0-2.2-1-2.2-2.2s1-2.2,2.2-2.2s2.2,1,2.2,2.2S526.5,397,525.3,397"/>
<path d="M527.5,399.6c-1.2,0-2.2-1-2.2-2.2c0-1.2,1-2.2,2.2-2.2s2.2,1,2.2,2.2C529.6,398.6,528.7,399.6,527.5,399.6"/>
<path d="M532.1,407.6c-1.2,0-2.2-1-2.2-2.2c0-1.2,1-2.2,2.2-2.2c1.2,0,2.2,1,2.2,2.2C534.3,406.7,533.3,407.6,532.1,407.6"/>
<path d="M530.7,403.7c-1.2,0-2.2-1-2.2-2.2c0-1.2,1-2.2,2.2-2.2s2.2,1,2.2,2.2C532.9,402.7,531.9,403.7,530.7,403.7"/>
<path d="M517.5,391.3c-1.2,0-2.2-1-2.2-2.2c0-1.2,1-2.2,2.2-2.2s2.2,1,2.2,2.2C519.7,390.3,518.7,391.3,517.5,391.3"/>
<path d="M524.6,404.8c-1.2,0-2.2-1-2.2-2.2c0-1.2,1-2.2,2.2-2.2c1.2,0,2.2,1,2.2,2.2C526.8,403.9,525.8,404.8,524.6,404.8"/>
<path d="M518.2,405.7c-1.2,0-2.2-1-2.2-2.2c0-1.2,1-2.2,2.2-2.2s2.2,1,2.2,2.2C520.4,404.7,519.4,405.7,518.2,405.7"/>
<path d="M517,398.1c-1.2,0-2.2-1-2.2-2.2c0-1.2,1-2.2,2.2-2.2s2.2,1,2.2,2.2C519.2,397.1,518.2,398.1,517,398.1"/>
<path d="M515.3,394.6c-1.2,0-2.2-1-2.2-2.2c0-1.2,1-2.2,2.2-2.2s2.2,1,2.2,2.2C517.5,393.6,516.5,394.6,515.3,394.6"/>
<path d="M510.9,393.7c-1.2,0-2.2-1-2.2-2.2c0-1.2,1-2.2,2.2-2.2c1.2,0,2.2,1,2.2,2.2C513.1,392.8,512.1,393.7,510.9,393.7"/>
<path d="M509.2,402c-1.2,0-2.2-1-2.2-2.2s1-2.2,2.2-2.2s2.2,1,2.2,2.2S510.4,402,509.2,402"/>
<path d="M509.6,397.2c-1.2,0-2.2-1-2.2-2.2c0-1.2,1-2.2,2.2-2.2s2.2,1,2.2,2.2C511.8,396.2,510.8,397.2,509.6,397.2"/>
<path d="M507.5,392.6c-1.2,0-2.2-1-2.2-2.2c0-1.2,1-2.2,2.2-2.2s2.2,1,2.2,2.2C509.6,391.7,508.7,392.6,507.5,392.6"/>
<path d="M514.2,407.2c-1.2,0-2.2-1-2.2-2.2c0-1.2,1-2.2,2.2-2.2s2.2,1,2.2,2.2C516.4,406.2,515.4,407.2,514.2,407.2"/>
<path d="M512,403.7c-1.2,0-2.2-1-2.2-2.2c0-1.2,1-2.2,2.2-2.2s2.2,1,2.2,2.2C514.2,402.8,513.2,403.7,512,403.7"/>
<path d="M515.5,402.4c-1.2,0-2.2-1-2.2-2.2c0-1.2,1-2.2,2.2-2.2s2.2,1,2.2,2.2C517.7,401.5,516.7,402.4,515.5,402.4"/>
<path d="M509.2,406.1c-1.2,0-2.2-1-2.2-2.2c0-1.2,1-2.2,2.2-2.2s2.2,1,2.2,2.2C511.4,405.2,510.4,406.1,509.2,406.1"/>
<path d="M528.1,406.8c-1.2,0-2.2-1-2.2-2.2c0-1.2,1-2.2,2.2-2.2c1.2,0,2.2,1,2.2,2.2C530.3,405.8,529.3,406.8,528.1,406.8"/>
<path d="M521.8,407.6c-1.2,0-2.2-1-2.2-2.2c0-1.2,1-2.2,2.2-2.2s2.2,1,2.2,2.2C524,406.6,523,407.6,521.8,407.6"/>
<path d="M520.8,395.2c-1.2,0-2.2-1-2.2-2.2c0-1.2,1-2.2,2.2-2.2s2.2,1,2.2,2.2C523,394.3,522,395.2,520.8,395.2"/>
<path d="M509.2,400.2c-1.2,0-2.2-1-2.2-2.2c0-1.2,1-2.2,2.2-2.2s2.2,1,2.2,2.2C511.4,399.2,510.4,400.2,509.2,400.2"/>
<path d="M503.8,402.6c-1.2,0-2.2-1-2.2-2.2c0-1.2,1-2.2,2.2-2.2s2.2,1,2.2,2.2C505.9,401.7,505,402.6,503.8,402.6"/>
<path d="M502.9,407.6c-1.2,0-2.2-1-2.2-2.2c0-1.2,1-2.2,2.2-2.2s2.2,1,2.2,2.2C505.1,406.6,504.1,407.6,502.9,407.6"/>
<path d="M497,403.7c-1.2,0-2.2-1-2.2-2.2c0-1.2,1-2.2,2.2-2.2s2.2,1,2.2,2.2C499.2,402.7,498.2,403.7,497,403.7"/>
<path d="M498.1,398.1c-1.2,0-2.2-1-2.2-2.2c0-1.2,1-2.2,2.2-2.2s2.2,1,2.2,2.2C500.3,397.1,499.3,398.1,498.1,398.1"/>
<path d="M489.8,394.8c-1.2,0-2.2-1-2.2-2.2c0-1.2,1-2.2,2.2-2.2s2.2,1,2.2,2.2C492,393.8,491,394.8,489.8,394.8"/>
<path d="M486.1,390.2c-1.2,0-2.2-1-2.2-2.2c0-1.2,1-2.2,2.2-2.2s2.2,1,2.2,2.2C488.3,389.3,487.3,390.2,486.1,390.2"/>
<path d="M493.1,391.2c-1.1,0.4-2.4-0.3-2.7-1.4c-0.4-1.1,0.3-2.4,1.4-2.7c1.1-0.4,2.4,0.3,2.7,1.4
	C494.9,389.6,494.3,390.9,493.1,391.2"/>
<path d="M494.6,396.3c-1.2,0-2.2-1-2.2-2.2c0-1.2,1-2.2,2.2-2.2s2.2,1,2.2,2.2C496.8,395.3,495.8,396.3,494.6,396.3"/>
<path d="M483.5,404.4c-1.2,0-2.2-1-2.2-2.2c0-1.2,1-2.2,2.2-2.2s2.2,1,2.2,2.2C485.7,403.4,484.7,404.4,483.5,404.4"/>
<path d="M485.7,396.1c1.1,0.5,1.6,1.8,1.1,2.9c-0.5,1.1-1.8,1.6-2.9,1.1s-1.6-1.8-1.1-2.9C483.3,396.1,484.6,395.6,485.7,396.1"/>
<path d="M491.6,400.2c-1.2,0-2.2-1-2.2-2.2c0-1.2,1-2.2,2.2-2.2s2.2,1,2.2,2.2C493.8,399.2,492.8,400.2,491.6,400.2"/>
<path d="M502.2,398.3c-1.2,0-2.2-1-2.2-2.2c0-1.2,1-2.2,2.2-2.2s2.2,1,2.2,2.2C504.4,397.3,503.4,398.3,502.2,398.3"/>
<path d="M498.1,392.6c-1.2,0-2.2-1-2.2-2.2c0-1.2,1-2.2,2.2-2.2s2.2,1,2.2,2.2C500.3,391.7,499.3,392.6,498.1,392.6"/>
<path d="M502.2,391.3c-1.2,0-2.2-1-2.2-2.2c0-1.2,1-2.2,2.2-2.2s2.2,1,2.2,2.2C504.4,390.4,503.4,391.3,502.2,391.3"/>
<path d="M489.2,404.8c-1.2,0-2.2-1-2.2-2.2c0-1.2,1-2.2,2.2-2.2s2.2,1,2.2,2.2C491.4,403.8,490.4,404.8,489.2,404.8"/>
<path d="M485.5,395.5c-1.2,0-2.2-1-2.2-2.2s1-2.2,2.2-2.2s2.2,1,2.2,2.2S486.7,395.5,485.5,395.5"/>
<path d="M479.8,399.4c-1.2,0-2.2-1-2.2-2.2c0-1.2,1-2.2,2.2-2.2s2.2,1,2.2,2.2C482,398.4,481,399.4,479.8,399.4"/>
<path d="M480.3,392.6c-1.2,0-2.2-1-2.2-2.2c0-1.2,1-2.2,2.2-2.2s2.2,1,2.2,2.2C482.5,391.7,481.5,392.6,480.3,392.6"/>
<path d="M480.3,403.1c-1.2,0-2.2-1-2.2-2.2c0-1.2,1-2.2,2.2-2.2s2.2,1,2.2,2.2C482.5,402.1,481.5,403.1,480.3,403.1"/>
<path d="M479.5,407.2c-1.2,0-2.2-1-2.2-2.2c0-1.2,1-2.2,2.2-2.2s2.2,1,2.2,2.2C481.6,406.2,480.7,407.2,479.5,407.2"/>
<path d="M493.7,407.2c-1.2,0-2.2-1-2.2-2.2c0-1.2,1-2.2,2.2-2.2s2.2,1,2.2,2.2C495.9,406.2,495,407.2,493.7,407.2"/>
<path d="M590.7,390.5c-1.2,0-2.2-1-2.2-2.2s1-2.2,2.2-2.2s2.2,1,2.2,2.2C592.8,389.5,591.9,390.5,590.7,390.5"/>
<path d="M584.6,396.1c-1.2,0-2.2-1-2.2-2.2c0-1.2,1-2.2,2.2-2.2s2.2,1,2.2,2.2C586.8,395.1,585.8,396.1,584.6,396.1"/>
<path d="M586.8,392.9c-1.2,0-2.2-1-2.2-2.2c0-1.2,1-2.2,2.2-2.2s2.2,1,2.2,2.2C589,391.9,588,392.9,586.8,392.9"/>
<path d="M583.6,390c-1.2,0-2.2-1-2.2-2.2s1-2.2,2.2-2.2s2.2,1,2.2,2.2C585.7,389,584.8,390,583.6,390"/>
<path d="M587.5,398.3c-1.2,0-2.2-1-2.2-2.2c0-1.2,1-2.2,2.2-2.2s2.2,1,2.2,2.2C589.7,397.3,588.7,398.3,587.5,398.3"/>
<path d="M579.2,392.9c-1.2,0-2.2-1-2.2-2.2c0-1.2,1-2.2,2.2-2.2s2.2,1,2.2,2.2C581.4,391.9,580.4,392.9,579.2,392.9"/>
<path d="M575.7,401.1c-1.2,0-2.2-1-2.2-2.2c0-1.2,1-2.2,2.2-2.2s2.2,1,2.2,2.2C577.9,400.1,576.9,401.1,575.7,401.1"/>
<path d="M578.3,397.6c-1.2,0-2.2-1-2.2-2.2c0-1.2,1-2.2,2.2-2.2s2.2,1,2.2,2.2C580.5,396.6,579.5,397.6,578.3,397.6"/>
<path d="M582.5,401.1c-1.2,0-2.2-1-2.2-2.2c0-1.2,1-2.2,2.2-2.2s2.2,1,2.2,2.2C584.6,400.1,583.7,401.1,582.5,401.1"/>
<path d="M587.9,407.9c-1.2,0-2.2-1-2.2-2.2c0-1.2,1-2.2,2.2-2.2s2.2,1,2.2,2.2C590.1,406.9,589.1,407.9,587.9,407.9"/>
<path d="M587,403.5c-1.2,0-2.2-1-2.2-2.2s1-2.2,2.2-2.2s2.2,1,2.2,2.2S588.2,403.5,587,403.5"/>
<path d="M570.1,391.8c-1.2,0-2.2-1-2.2-2.2c0-1.2,1-2.2,2.2-2.2c1.2,0,2.2,1,2.2,2.2C572.3,390.8,571.3,391.8,570.1,391.8"/>
<path d="M579.4,404.2c-1.2,0-2.2-1-2.2-2.2c0-1.2,1-2.2,2.2-2.2s2.2,1,2.2,2.2C581.6,403.2,580.6,404.2,579.4,404.2"/>
<path d="M570.1,406.6c-1.2,0-2.2-1-2.2-2.2c0-1.2,1-2.2,2.2-2.2c1.2,0,2.2,1,2.2,2.2C572.3,405.6,571.3,406.6,570.1,406.6"/>
<path d="M570.9,402.2c-1.2,0-2.2-1-2.2-2.2c0-1.2,1-2.2,2.2-2.2c1.2,0,2.2,1,2.2,2.2C573.1,401.2,572.1,402.2,570.9,402.2"/>
<path d="M568.8,395.5c-1.2,0-2.2-1-2.2-2.2s1-2.2,2.2-2.2s2.2,1,2.2,2.2C570.9,394.5,570,395.5,568.8,395.5"/>
<path d="M564,391.5c-1.2,0-2.2-1-2.2-2.2s1-2.2,2.2-2.2s2.2,1,2.2,2.2C566.1,390.6,565.2,391.5,564,391.5"/>
<path d="M561.4,402.4c-1.2,0-2.2-1-2.2-2.2c0-1.2,1-2.2,2.2-2.2c1.2,0,2.2,1,2.2,2.2C563.6,401.4,562.6,402.4,561.4,402.4"/>
<path d="M560.9,397.6c-1.2,0-2.2-1-2.2-2.2c0-1.2,1-2.2,2.2-2.2c1.2,0,2.2,1,2.2,2.2C563.1,396.6,562.1,397.6,560.9,397.6"/>
<path d="M557.2,396.8c-1.2,0-2.2-1-2.2-2.2c0-1.2,1-2.2,2.2-2.2s2.2,1,2.2,2.2C559.4,395.8,558.4,396.8,557.2,396.8"/>
<path d="M565.5,407.6c-1.2,0-2.2-1-2.2-2.2c0-1.2,1-2.2,2.2-2.2s2.2,1,2.2,2.2C567.7,406.7,566.7,407.6,565.5,407.6"/>
<path d="M564.9,403.5c-1.2,0-2.2-1-2.2-2.2s1-2.2,2.2-2.2c1.2,0,2.2,1,2.2,2.2S566.1,403.5,564.9,403.5"/>
<path d="M565.7,399.8c-1.2,0-2.2-1-2.2-2.2c0-1.2,1-2.2,2.2-2.2s2.2,1,2.2,2.2C567.9,398.8,566.9,399.8,565.7,399.8"/>
<path d="M559,405.9c-1.2,0-2.2-1-2.2-2.2c0-1.2,1-2.2,2.2-2.2s2.2,1,2.2,2.2C561.1,404.9,560.2,405.9,559,405.9"/>
<path d="M583.1,407.2c-1.2,0-2.2-1-2.2-2.2c0-1.2,1-2.2,2.2-2.2s2.2,1,2.2,2.2C585.3,406.2,584.3,407.2,583.1,407.2"/>
<path d="M575.7,406.3c-1.2,0-2.2-1-2.2-2.2c0-1.2,1-2.2,2.2-2.2s2.2,1,2.2,2.2C577.9,405.3,576.9,406.3,575.7,406.3"/>
<path d="M574.6,395.2c-1.2,0-2.2-1-2.2-2.2c0-1.2,1-2.2,2.2-2.2s2.2,1,2.2,2.2C576.8,394.3,575.8,395.2,574.6,395.2"/>
<path d="M559.2,399.4c-1.2,0-2.2-1-2.2-2.2c0-1.2,1-2.2,2.2-2.2s2.2,1,2.2,2.2C561.4,398.4,560.4,399.4,559.2,399.4"/>
<path d="M555,402.2c-1.2,0-2.2-1-2.2-2.2c0-1.2,1-2.2,2.2-2.2s2.2,1,2.2,2.2C557.2,401.2,556.2,402.2,555,402.2"/>
<path d="M556.8,407.2c-1.2,0-2.2-1-2.2-2.2c0-1.2,1-2.2,2.2-2.2s2.2,1,2.2,2.2C559,406.2,558,407.2,556.8,407.2"/>
<path d="M552.2,406.1c-1.2,0-2.2-1-2.2-2.2c0-1.2,1-2.2,2.2-2.2s2.2,1,2.2,2.2C554.4,405.1,553.4,406.1,552.2,406.1"/>
<path d="M548.3,403.3c-1.2,0-2.2-1-2.2-2.2c0-1.2,1-2.2,2.2-2.2s2.2,1,2.2,2.2C550.5,402.3,549.5,403.3,548.3,403.3"/>
<path d="M543.7,393.1c-1.2,0-2.2-1-2.2-2.2c0-1.2,1-2.2,2.2-2.2s2.2,1,2.2,2.2C545.9,392.1,544.9,393.1,543.7,393.1"/>
<path d="M539.4,390c-1.2,0-2.2-1-2.2-2.2s1-2.2,2.2-2.2c1.2,0,2.2,1,2.2,2.2S540.6,390,539.4,390"/>
<path d="M540.9,392.8c-1.2,0-2.2-1-2.2-2.2c0-1.2,1-2.2,2.2-2.2c1.2,0,2.2,1,2.2,2.2C543.1,391.9,542.1,392.8,540.9,392.8"/>
<path d="M547.9,395c-1.2,0-2.2-1-2.2-2.2s1-2.2,2.2-2.2c1.2,0,2.2,1,2.2,2.2S549.1,395,547.9,395"/>
<path d="M542,404.6c-1.2,0-2.2-1-2.2-2.2c0-1.2,1-2.2,2.2-2.2s2.2,1,2.2,2.2C544.2,403.6,543.2,404.6,542,404.6"/>
<path d="M544.5,397.4c1.1,0.5,1.6,1.8,1.1,2.9s-1.8,1.6-2.9,1.1s-1.6-1.8-1.1-2.9C542.1,397.4,543.4,396.9,544.5,397.4"/>
<path d="M546.6,399.2c-1.2,0-2.2-1-2.2-2.2c0-1.2,1-2.2,2.2-2.2c1.2,0,2.2,1,2.2,2.2C548.8,398.2,547.8,399.2,546.6,399.2"/>
<path d="M552.7,398.1c-1.2,0-2.2-1-2.2-2.2c0-1.2,1-2.2,2.2-2.2s2.2,1,2.2,2.2C554.9,397.1,553.9,398.1,552.7,398.1"/>
<path d="M552.4,395.5c-1.2,0-2.2-1-2.2-2.2s1-2.2,2.2-2.2c1.2,0,2.2,1,2.2,2.2S553.6,395.5,552.4,395.5"/>
<path d="M559.6,390.5c-1.2,0-2.2-1-2.2-2.2s1-2.2,2.2-2.2c1.2,0,2.2,1,2.2,2.2C561.8,389.5,560.8,390.5,559.6,390.5"/>
<path d="M549.6,391.5c-1.2,0-2.2-1-2.2-2.2s1-2.2,2.2-2.2c1.2,0,2.2,1,2.2,2.2C551.8,390.6,550.8,391.5,549.6,391.5"/>
<path d="M540,395.9c-1.2,0-2.2-1-2.2-2.2c0-1.2,1-2.2,2.2-2.2s2.2,1,2.2,2.2C542.2,394.9,541.2,395.9,540,395.9"/>
<path d="M531,400.3c-1.2,0-2.2-1-2.2-2.2c0-1.2,1-2.2,2.2-2.2s2.2,1,2.2,2.2C533.2,399.3,532.2,400.3,531,400.3"/>
<path d="M536.2,396.1c-1.2,0-2.2-1-2.2-2.2c0-1.2,1-2.2,2.2-2.2s2.2,1,2.2,2.2C538.4,395.1,537.4,396.1,536.2,396.1"/>
<path d="M536.1,401.3c-1.1-0.5-1.6-1.8-1.1-2.9s1.8-1.6,2.9-1.1c1.1,0.5,1.6,1.8,1.1,2.9S537.2,401.8,536.1,401.3"/>
<path d="M538.3,407.2c-1.2,0-2.2-1-2.2-2.2c0-1.2,1-2.2,2.2-2.2s2.2,1,2.2,2.2C540.5,406.2,539.5,407.2,538.3,407.2"/>
<path d="M547.4,407c-1.2,0-2.2-1-2.2-2.2s1-2.2,2.2-2.2c1.2,0,2.2,1,2.2,2.2S548.6,407,547.4,407"/>
<path d="M477.3,390.2c-1.2,0-2.2-1-2.2-2.2c0-1.2,1-2.2,2.2-2.2s2.2,1,2.2,2.2C479.5,389.3,478.5,390.2,477.3,390.2"/>
<path d="M470.7,393.9c-1.2,0-2.2-1-2.2-2.2c0-1.2,1-2.2,2.2-2.2s2.2,1,2.2,2.2C472.9,392.9,471.9,393.9,470.7,393.9"/>
<path d="M475.4,393.7c-1.2,0-2.2-1-2.2-2.2c0-1.2,1-2.2,2.2-2.2s2.2,1,2.2,2.2C477.6,392.8,476.6,393.7,475.4,393.7"/>
<path d="M470.2,390.2c-1.2,0-2.2-1-2.2-2.2c0-1.2,1-2.2,2.2-2.2s2.2,1,2.2,2.2C472.4,389.3,471.4,390.2,470.2,390.2"/>
<path d="M476,397.4c-1.2,0-2.2-1-2.2-2.2c0-1.2,1-2.2,2.2-2.2s2.2,1,2.2,2.2C478.2,396.4,477.2,397.4,476,397.4"/>
<path d="M463,391.3c-1.2,0-2.2-1-2.2-2.2c0-1.2,1-2.2,2.2-2.2s2.2,1,2.2,2.2C465.2,390.3,464.2,391.3,463,391.3"/>
<path d="M462.8,402c-1.2,0-2.2-1-2.2-2.2s1-2.2,2.2-2.2s2.2,1,2.2,2.2S464,402,462.8,402"/>
<path d="M467.2,395c-1.2,0-2.2-1-2.2-2.2s1-2.2,2.2-2.2s2.2,1,2.2,2.2S468.4,395,467.2,395"/>
<path d="M465.4,398.5c-1.2,0-2.2-1-2.2-2.2s1-2.2,2.2-2.2s2.2,1,2.2,2.2S466.6,398.5,465.4,398.5"/>
<path d="M475.1,407.6c-1.2,0-2.2-1-2.2-2.2c0-1.2,1-2.2,2.2-2.2s2.2,1,2.2,2.2C477.3,406.7,476.3,407.6,475.1,407.6"/>
<path d="M473.9,402.7c-1.2,0-2.2-1-2.2-2.2c0-1.2,1-2.2,2.2-2.2s2.2,1,2.2,2.2C476.1,401.7,475.1,402.7,473.9,402.7"/>
<path d="M454.6,391.3c-1.2,0-2.2-1-2.2-2.2c0-1.2,1-2.2,2.2-2.2s2.2,1,2.2,2.2C456.8,390.3,455.8,391.3,454.6,391.3"/>
<path d="M468.5,402.6c-1.2,0-2.2-1-2.2-2.2c0-1.2,1-2.2,2.2-2.2s2.2,1,2.2,2.2C470.7,401.7,469.7,402.6,468.5,402.6"/>
<path d="M457.2,406.6c-1.2,0-2.2-1-2.2-2.2c0-1.2,1-2.2,2.2-2.2s2.2,1,2.2,2.2C459.4,405.6,458.4,406.6,457.2,406.6"/>
<path d="M457.7,397.4c-1.2,0-2.2-1-2.2-2.2c0-1.2,1-2.2,2.2-2.2s2.2,1,2.2,2.2C459.9,396.4,458.9,397.4,457.7,397.4"/>
<path d="M455,395.7c-1.2,0-2.2-1-2.2-2.2c0-1.2,1-2.2,2.2-2.2s2.2,1,2.2,2.2C457.2,394.8,456.2,395.7,455,395.7"/>
<path d="M449.6,392.8c-1.2,0-2.2-1-2.2-2.2c0-1.2,1-2.2,2.2-2.2s2.2,1,2.2,2.2C451.7,391.9,450.8,392.8,449.6,392.8"/>
<path d="M450.6,402c-1.2,0-2.2-1-2.2-2.2s1-2.2,2.2-2.2s2.2,1,2.2,2.2S451.8,402,450.6,402"/>
<path d="M449.1,397.4c-1.2,0-2.2-1-2.2-2.2c0-1.2,1-2.2,2.2-2.2s2.2,1,2.2,2.2C451.3,396.4,450.3,397.4,449.1,397.4"/>
<path d="M445.9,394.8c-1.2,0-2.2-1-2.2-2.2c0-1.2,1-2.2,2.2-2.2s2.2,1,2.2,2.2C448,393.8,447.1,394.8,445.9,394.8"/>
<path d="M452.8,406.1c-1.2,0-2.2-1-2.2-2.2c0-1.2,1-2.2,2.2-2.2s2.2,1,2.2,2.2C455,405.2,454,406.1,452.8,406.1"/>
<path d="M452,400.7c-1.2,0-2.2-1-2.2-2.2c0-1.2,1-2.2,2.2-2.2s2.2,1,2.2,2.2C454.2,399.7,453.2,400.7,452,400.7"/>
<path d="M456.1,401.6c-1.2,0-2.2-1-2.2-2.2c0-1.2,1-2.2,2.2-2.2s2.2,1,2.2,2.2C458.3,400.6,457.3,401.6,456.1,401.6"/>
<path d="M446.7,405.5c-1.2,0-2.2-1-2.2-2.2s1-2.2,2.2-2.2s2.2,1,2.2,2.2C448.9,404.5,447.9,405.5,446.7,405.5"/>
<path d="M468.5,406.1c-1.2,0-2.2-1-2.2-2.2c0-1.2,1-2.2,2.2-2.2s2.2,1,2.2,2.2C470.7,405.1,469.7,406.1,468.5,406.1"/>
<path d="M462.8,406.1c-1.2,0-2.2-1-2.2-2.2c0-1.2,1-2.2,2.2-2.2s2.2,1,2.2,2.2C465,405.1,464,406.1,462.8,406.1"/>
<path d="M460.9,395.2c-1.2,0-2.2-1-2.2-2.2c0-1.2,1-2.2,2.2-2.2s2.2,1,2.2,2.2C463,394.3,462.1,395.2,460.9,395.2"/>
<path d="M446.1,401.1c-1.2,0-2.2-1-2.2-2.2c0-1.2,1-2.2,2.2-2.2s2.2,1,2.2,2.2C448.3,400.1,447.3,401.1,446.1,401.1"/>
<path d="M441.1,401.1c-1.2,0-2.2-1-2.2-2.2c0-1.2,1-2.2,2.2-2.2s2.2,1,2.2,2.2C443.2,400.1,442.3,401.1,441.1,401.1"/>
<path d="M443.9,407c-1.2,0-2.2-1-2.2-2.2s1-2.2,2.2-2.2s2.2,1,2.2,2.2S445.1,407,443.9,407"/>
<path d="M438.5,405.7c-1.2,0-2.2-1-2.2-2.2c0-1.2,1-2.2,2.2-2.2s2.2,1,2.2,2.2C440.7,404.7,439.7,405.7,438.5,405.7"/>
<path d="M434.5,402.6c-1.2,0-2.2-1-2.2-2.2c0-1.2,1-2.2,2.2-2.2s2.2,1,2.2,2.2C436.7,401.6,435.7,402.6,434.5,402.6"/>
<path d="M430.8,394.6c-1.2,0-2.2-1-2.2-2.2c0-1.2,1-2.2,2.2-2.2s2.2,1,2.2,2.2C433,393.6,432,394.6,430.8,394.6"/>
<path d="M427.1,390.7c-1.2,0-2.2-1-2.2-2.2c0-1.2,1-2.2,2.2-2.2s2.2,1,2.2,2.2C429.3,389.7,428.3,390.7,427.1,390.7"/>
<path d="M433.7,391.5c-1.2,0-2.2-1-2.2-2.2s1-2.2,2.2-2.2s2.2,1,2.2,2.2C435.8,390.6,434.9,391.5,433.7,391.5"/>
<path d="M438,396.3c-1.2,0-2.2-1-2.2-2.2c0-1.2,1-2.2,2.2-2.2s2.2,1,2.2,2.2C440.2,395.3,439.2,396.3,438,396.3"/>
<path d="M430.6,404.6c-1.2,0-2.2-1-2.2-2.2c0-1.2,1-2.2,2.2-2.2s2.2,1,2.2,2.2C432.8,403.6,431.8,404.6,430.6,404.6"/>
<path d="M430.9,396.9c1.1,0.5,1.6,1.8,1.1,2.9s-1.8,1.6-2.9,1.1s-1.6-1.8-1.1-2.9C428.5,397,429.8,396.5,430.9,396.9"/>
<path d="M434.3,398.5c-1.2,0-2.2-1-2.2-2.2s1-2.2,2.2-2.2s2.2,1,2.2,2.2S435.5,398.5,434.3,398.5"/>
<path d="M443.2,398.5c-1.2,0-2.2-1-2.2-2.2s1-2.2,2.2-2.2s2.2,1,2.2,2.2S444.4,398.5,443.2,398.5"/>
<path d="M439.5,392.6c-1.2,0-2.2-1-2.2-2.2c0-1.2,1-2.2,2.2-2.2s2.2,1,2.2,2.2C441.7,391.7,440.7,392.6,439.5,392.6"/>
<path d="M445.2,390.2c-1.2,0-2.2-1-2.2-2.2c0-1.2,1-2.2,2.2-2.2s2.2,1,2.2,2.2C447.4,389.3,446.4,390.2,445.2,390.2"/>
<path d="M441.5,393.9c-1.2,0-2.2-1-2.2-2.2c0-1.2,1-2.2,2.2-2.2s2.2,1,2.2,2.2C443.7,393,442.7,393.9,441.5,393.9"/>
<path d="M427.1,395.2c-1.2,0-2.2-1-2.2-2.2c0-1.2,1-2.2,2.2-2.2s2.2,1,2.2,2.2C429.3,394.3,428.3,395.2,427.1,395.2"/>
<path d="M423.2,398.3c-1.2,0-2.2-1-2.2-2.2c0-1.2,1-2.2,2.2-2.2s2.2,1,2.2,2.2C425.4,397.3,424.4,398.3,423.2,398.3"/>
<path d="M423.2,392.4c-1.2,0-2.2-1-2.2-2.2c0-1.2,1-2.2,2.2-2.2s2.2,1,2.2,2.2C425.4,391.4,424.4,392.4,423.2,392.4"/>
<path d="M422.8,402.4c-1.2,0-2.2-1-2.2-2.2c0-1.2,1-2.2,2.2-2.2s2.2,1,2.2,2.2C425,401.5,424,402.4,422.8,402.4"/>
<path d="M427.8,408.3c-1.2,0-2.2-1-2.2-2.2c0-1.2,1-2.2,2.2-2.2s2.2,1,2.2,2.2C430,407.3,429,408.3,427.8,408.3"/>
<path d="M434.8,407.9c-1.2,0-2.2-1-2.2-2.2c0-1.2,1-2.2,2.2-2.2s2.2,1,2.2,2.2C436.9,406.9,436,407.9,434.8,407.9"/>
<path d="M603.7,396.4c-1.2,0-2.2-1-2.2-2.2c0-1.2,1-2.2,2.2-2.2s2.2,1,2.2,2.2C605.9,395.4,604.9,396.4,603.7,396.4"/>
<path d="M599.4,392.9c-1.2,0-2.2-1-2.2-2.2c0-1.2,1-2.2,2.2-2.2s2.2,1,2.2,2.2C601.5,391.9,600.6,392.9,599.4,392.9"/>
<path d="M602.6,397.2c-1.2,0-2.2-1-2.2-2.2c0-1.2,1-2.2,2.2-2.2s2.2,1,2.2,2.2C604.8,396.2,603.8,397.2,602.6,397.2"/>
<path d="M603.1,407.2c-1.2,0-2.2-1-2.2-2.2c0-1.2,1-2.2,2.2-2.2s2.2,1,2.2,2.2C605.2,406.3,604.3,407.2,603.1,407.2"/>
<path d="M597.5,398.9c1.1,0.5,1.6,1.8,1.1,2.9s-1.8,1.6-2.9,1.1c-1.1-0.5-1.6-1.8-1.1-2.9C595.1,398.9,596.4,398.4,597.5,398.9"/>
<path d="M603.7,401.1c-1.2,0-2.2-1-2.2-2.2c0-1.2,1-2.2,2.2-2.2s2.2,1,2.2,2.2C605.9,400.1,604.9,401.1,603.7,401.1"/>
<path d="M595.7,398.3c-1.2,0-2.2-1-2.2-2.2c0-1.2,1-2.2,2.2-2.2s2.2,1,2.2,2.2C597.9,397.3,596.9,398.3,595.7,398.3"/>
<path d="M592.3,400.9c-1.2,0-2.2-1-2.2-2.2c0-1.2,1-2.2,2.2-2.2s2.2,1,2.2,2.2C594.4,400,593.5,400.9,592.3,400.9"/>
<path d="M591.8,396.8c-1.2,0-2.2-1-2.2-2.2c0-1.2,1-2.2,2.2-2.2s2.2,1,2.2,2.2C594,395.8,593,396.8,591.8,396.8"/>
<path d="M591.8,406.4c-1.2,0-2.2-1-2.2-2.2c0-1.2,1-2.2,2.2-2.2s2.2,1,2.2,2.2C594,405.4,593,406.4,591.8,406.4"/>
<path d="M597.2,410c-1.2,0-2.2-1-2.2-2.2s1-2.2,2.2-2.2s2.2,1,2.2,2.2C599.4,409.1,598.4,410,597.2,410"/>
<path d="M717.4,389.1c-1.2,0-2.2-1-2.2-2.2c0-1.2,1-2.2,2.2-2.2s2.2,1,2.2,2.2C719.6,388.2,718.6,389.1,717.4,389.1"/>
<path d="M712.8,397.2c-1.2,0-2.2-1-2.2-2.2c0-1.2,1-2.2,2.2-2.2s2.2,1,2.2,2.2C715,396.2,714,397.2,712.8,397.2"/>
<path d="M716.5,394.2c-1.2,0-2.2-1-2.2-2.2c0-1.2,1-2.2,2.2-2.2s2.2,1,2.2,2.2C718.7,393.2,717.7,394.2,716.5,394.2"/>
<path d="M712.2,390.7c-1.2,0-2.2-1-2.2-2.2c0-1.2,1-2.2,2.2-2.2s2.2,1,2.2,2.2C714.4,389.7,713.4,390.7,712.2,390.7"/>
<path d="M712.8,393.5c-1.2,0-2.2-1-2.2-2.2s1-2.2,2.2-2.2s2.2,1,2.2,2.2S714,393.5,712.8,393.5"/>
<path d="M707.4,393.3c-1.2,0-2.2-1-2.2-2.2c0-1.2,1-2.2,2.2-2.2s2.2,1,2.2,2.2C709.6,392.3,708.6,393.3,707.4,393.3"/>
<path d="M703.6,401.8c-1.2,0-2.2-1-2.2-2.2c0-1.2,1-2.2,2.2-2.2s2.2,1,2.2,2.2C705.8,400.8,704.9,401.8,703.6,401.8"/>
<path d="M707.8,397c-1.2,0-2.2-1-2.2-2.2s1-2.2,2.2-2.2s2.2,1,2.2,2.2S709,397,707.8,397"/>
<path d="M710,399.6c-1.2,0-2.2-1-2.2-2.2c0-1.2,1-2.2,2.2-2.2s2.2,1,2.2,2.2C712.2,398.6,711.2,399.6,710,399.6"/>
<path d="M714.6,407.6c-1.2,0-2.2-1-2.2-2.2c0-1.2,1-2.2,2.2-2.2s2.2,1,2.2,2.2C716.8,406.7,715.8,407.6,714.6,407.6"/>
<path d="M713.2,403.7c-1.2,0-2.2-1-2.2-2.2c0-1.2,1-2.2,2.2-2.2s2.2,1,2.2,2.2C715.4,402.7,714.4,403.7,713.2,403.7"/>
<path d="M700,391.3c-1.2,0-2.2-1-2.2-2.2c0-1.2,1-2.2,2.2-2.2s2.2,1,2.2,2.2C702.2,390.3,701.2,391.3,700,391.3"/>
<path d="M707.2,404.8c-1.2,0-2.2-1-2.2-2.2c0-1.2,1-2.2,2.2-2.2s2.2,1,2.2,2.2C709.4,403.9,708.4,404.8,707.2,404.8"/>
<path d="M700.8,405.7c-1.2,0-2.2-1-2.2-2.2c0-1.2,1-2.2,2.2-2.2s2.2,1,2.2,2.2C703,404.7,702,405.7,700.8,405.7"/>
<path d="M699.6,398.1c-1.2,0-2.2-1-2.2-2.2c0-1.2,1-2.2,2.2-2.2s2.2,1,2.2,2.2C701.8,397.1,700.8,398.1,699.6,398.1"/>
<path d="M697.8,394.6c-1.2,0-2.2-1-2.2-2.2c0-1.2,1-2.2,2.2-2.2s2.2,1,2.2,2.2C700,393.6,699,394.6,697.8,394.6"/>
<path d="M693.5,393.7c-1.2,0-2.2-1-2.2-2.2c0-1.2,1-2.2,2.2-2.2s2.2,1,2.2,2.2C695.7,392.8,694.7,393.7,693.5,393.7"/>
<path d="M691.7,402c-1.2,0-2.2-1-2.2-2.2s1-2.2,2.2-2.2s2.2,1,2.2,2.2S692.9,402,691.7,402"/>
<path d="M692.2,397.2c-1.2,0-2.2-1-2.2-2.2c0-1.2,1-2.2,2.2-2.2s2.2,1,2.2,2.2C694.4,396.2,693.4,397.2,692.2,397.2"/>
<path d="M690,392.6c-1.2,0-2.2-1-2.2-2.2c0-1.2,1-2.2,2.2-2.2s2.2,1,2.2,2.2C692.2,391.7,691.2,392.6,690,392.6"/>
<path d="M696.7,407.2c-1.2,0-2.2-1-2.2-2.2c0-1.2,1-2.2,2.2-2.2s2.2,1,2.2,2.2C698.9,406.2,697.9,407.2,696.7,407.2"/>
<path d="M694.6,403.7c-1.2,0-2.2-1-2.2-2.2c0-1.2,1-2.2,2.2-2.2s2.2,1,2.2,2.2C696.7,402.8,695.8,403.7,694.6,403.7"/>
<path d="M698,402.4c-1.2,0-2.2-1-2.2-2.2c0-1.2,1-2.2,2.2-2.2s2.2,1,2.2,2.2C700.2,401.5,699.2,402.4,698,402.4"/>
<path d="M691.7,406.1c-1.2,0-2.2-1-2.2-2.2c0-1.2,1-2.2,2.2-2.2s2.2,1,2.2,2.2C693.9,405.2,692.9,406.1,691.7,406.1"/>
<path d="M710.7,406.8c-1.2,0-2.2-1-2.2-2.2c0-1.2,1-2.2,2.2-2.2s2.2,1,2.2,2.2C712.9,405.8,711.9,406.8,710.7,406.8"/>
<path d="M704.4,407.6c-1.2,0-2.2-1-2.2-2.2c0-1.2,1-2.2,2.2-2.2s2.2,1,2.2,2.2C706.6,406.6,705.6,407.6,704.4,407.6"/>
<path d="M703.4,395.2c-1.2,0-2.2-1-2.2-2.2c0-1.2,1-2.2,2.2-2.2s2.2,1,2.2,2.2C705.5,394.3,704.6,395.2,703.4,395.2"/>
<path d="M691.7,400.2c-1.2,0-2.2-1-2.2-2.2c0-1.2,1-2.2,2.2-2.2s2.2,1,2.2,2.2C693.9,399.2,692.9,400.2,691.7,400.2"/>
<path d="M686.3,402.6c-1.2,0-2.2-1-2.2-2.2c0-1.2,1-2.2,2.2-2.2s2.2,1,2.2,2.2C688.5,401.7,687.5,402.6,686.3,402.6"/>
<path d="M685.4,407.6c-1.2,0-2.2-1-2.2-2.2c0-1.2,1-2.2,2.2-2.2s2.2,1,2.2,2.2C687.6,406.6,686.6,407.6,685.4,407.6"/>
<path d="M679.6,403.7c-1.2,0-2.2-1-2.2-2.2c0-1.2,1-2.2,2.2-2.2s2.2,1,2.2,2.2C681.8,402.7,680.8,403.7,679.6,403.7"/>
<path d="M680.6,398.1c-1.2,0-2.2-1-2.2-2.2c0-1.2,1-2.2,2.2-2.2s2.2,1,2.2,2.2C682.8,397.1,681.8,398.1,680.6,398.1"/>
<path d="M672.4,394.8c-1.2,0-2.2-1-2.2-2.2c0-1.2,1-2.2,2.2-2.2s2.2,1,2.2,2.2C674.5,393.8,673.6,394.8,672.4,394.8"/>
<path d="M668.7,390.2c-1.2,0-2.2-1-2.2-2.2c0-1.2,1-2.2,2.2-2.2s2.2,1,2.2,2.2C670.9,389.3,669.9,390.2,668.7,390.2"/>
<path d="M675.7,391.2c-1.1,0.4-2.4-0.3-2.7-1.4c-0.4-1.1,0.3-2.4,1.4-2.7c1.1-0.4,2.4,0.3,2.7,1.4
	C677.4,389.6,676.8,390.9,675.7,391.2"/>
<path d="M677.2,396.3c-1.2,0-2.2-1-2.2-2.2c0-1.2,1-2.2,2.2-2.2s2.2,1,2.2,2.2C679.4,395.3,678.4,396.3,677.2,396.3"/>
<path d="M666.1,404.4c-1.2,0-2.2-1-2.2-2.2c0-1.2,1-2.2,2.2-2.2s2.2,1,2.2,2.2C668.3,403.4,667.3,404.4,666.1,404.4"/>
<path d="M668.2,396.1c1.1,0.5,1.6,1.8,1.1,2.9c-0.5,1.1-1.8,1.6-2.9,1.1c-1.1-0.5-1.6-1.8-1.1-2.9
	C665.9,396.1,667.1,395.6,668.2,396.1"/>
<path d="M674.1,400.2c-1.2,0-2.2-1-2.2-2.2c0-1.2,1-2.2,2.2-2.2s2.2,1,2.2,2.2C676.3,399.2,675.3,400.2,674.1,400.2"/>
<path d="M684.8,398.3c-1.2,0-2.2-1-2.2-2.2c0-1.2,1-2.2,2.2-2.2s2.2,1,2.2,2.2C687,397.3,686,398.3,684.8,398.3"/>
<path d="M680.6,392.6c-1.2,0-2.2-1-2.2-2.2c0-1.2,1-2.2,2.2-2.2s2.2,1,2.2,2.2C682.8,391.7,681.8,392.6,680.6,392.6"/>
<path d="M684.8,391.3c-1.2,0-2.2-1-2.2-2.2c0-1.2,1-2.2,2.2-2.2s2.2,1,2.2,2.2C686.9,390.4,686,391.3,684.8,391.3"/>
<path d="M671.7,404.8c-1.2,0-2.2-1-2.2-2.2c0-1.2,1-2.2,2.2-2.2s2.2,1,2.2,2.2C673.9,403.8,672.9,404.8,671.7,404.8"/>
<path d="M668,395.5c-1.2,0-2.2-1-2.2-2.2s1-2.2,2.2-2.2s2.2,1,2.2,2.2S669.2,395.5,668,395.5"/>
<path d="M662.3,399.4c-1.2,0-2.2-1-2.2-2.2c0-1.2,1-2.2,2.2-2.2s2.2,1,2.2,2.2C664.5,398.4,663.5,399.4,662.3,399.4"/>
<path d="M662.9,392.6c-1.2,0-2.2-1-2.2-2.2c0-1.2,1-2.2,2.2-2.2s2.2,1,2.2,2.2C665,391.7,664.1,392.6,662.9,392.6"/>
<path d="M662.9,403.1c-1.2,0-2.2-1-2.2-2.2c0-1.2,1-2.2,2.2-2.2s2.2,1,2.2,2.2C665,402.1,664.1,403.1,662.9,403.1"/>
<path d="M662,407.2c-1.2,0-2.2-1-2.2-2.2c0-1.2,1-2.2,2.2-2.2s2.2,1,2.2,2.2C664.2,406.2,663.2,407.2,662,407.2"/>
<path d="M676.3,407.2c-1.2,0-2.2-1-2.2-2.2c0-1.2,1-2.2,2.2-2.2s2.2,1,2.2,2.2C678.5,406.2,677.5,407.2,676.3,407.2"/>
<path d="M773.2,390.5c-1.2,0-2.2-1-2.2-2.2s1-2.2,2.2-2.2s2.2,1,2.2,2.2S774.4,390.5,773.2,390.5"/>
<path d="M767.2,396.1c-1.2,0-2.2-1-2.2-2.2c0-1.2,1-2.2,2.2-2.2s2.2,1,2.2,2.2C769.4,395.1,768.4,396.1,767.2,396.1"/>
<path d="M769.4,392.9c-1.2,0-2.2-1-2.2-2.2c0-1.2,1-2.2,2.2-2.2s2.2,1,2.2,2.2C771.5,391.9,770.6,392.9,769.4,392.9"/>
<path d="M766.1,390c-1.2,0-2.2-1-2.2-2.2s1-2.2,2.2-2.2s2.2,1,2.2,2.2S767.3,390,766.1,390"/>
<path d="M770,398.3c-1.2,0-2.2-1-2.2-2.2c0-1.2,1-2.2,2.2-2.2s2.2,1,2.2,2.2C772.2,397.3,771.2,398.3,770,398.3"/>
<path d="M761.7,392.9c-1.2,0-2.2-1-2.2-2.2c0-1.2,1-2.2,2.2-2.2s2.2,1,2.2,2.2C763.9,391.9,762.9,392.9,761.7,392.9"/>
<path d="M758.3,401.1c-1.2,0-2.2-1-2.2-2.2c0-1.2,1-2.2,2.2-2.2s2.2,1,2.2,2.2C760.5,400.1,759.5,401.1,758.3,401.1"/>
<path d="M760.9,397.6c-1.2,0-2.2-1-2.2-2.2c0-1.2,1-2.2,2.2-2.2s2.2,1,2.2,2.2C763.1,396.6,762.1,397.6,760.9,397.6"/>
<path d="M765,401.1c-1.2,0-2.2-1-2.2-2.2c0-1.2,1-2.2,2.2-2.2s2.2,1,2.2,2.2C767.2,400.1,766.2,401.1,765,401.1"/>
<path d="M770.4,407.9c-1.2,0-2.2-1-2.2-2.2c0-1.2,1-2.2,2.2-2.2s2.2,1,2.2,2.2C772.6,406.9,771.6,407.9,770.4,407.9"/>
<path d="M769.6,403.5c-1.2,0-2.2-1-2.2-2.2s1-2.2,2.2-2.2s2.2,1,2.2,2.2S770.8,403.5,769.6,403.5"/>
<path d="M752.6,391.8c-1.2,0-2.2-1-2.2-2.2c0-1.2,1-2.2,2.2-2.2s2.2,1,2.2,2.2C754.8,390.8,753.8,391.8,752.6,391.8"/>
<path d="M762,404.2c-1.2,0-2.2-1-2.2-2.2c0-1.2,1-2.2,2.2-2.2s2.2,1,2.2,2.2C764.1,403.2,763.2,404.2,762,404.2"/>
<path d="M752.6,406.6c-1.2,0-2.2-1-2.2-2.2c0-1.2,1-2.2,2.2-2.2s2.2,1,2.2,2.2C754.8,405.6,753.8,406.6,752.6,406.6"/>
<path d="M753.5,402.2c-1.2,0-2.2-1-2.2-2.2c0-1.2,1-2.2,2.2-2.2s2.2,1,2.2,2.2C755.7,401.2,754.7,402.2,753.5,402.2"/>
<path d="M751.3,395.5c-1.2,0-2.2-1-2.2-2.2s1-2.2,2.2-2.2s2.2,1,2.2,2.2S752.5,395.5,751.3,395.5"/>
<path d="M746.5,391.5c-1.2,0-2.2-1-2.2-2.2s1-2.2,2.2-2.2s2.2,1,2.2,2.2C748.7,390.6,747.7,391.5,746.5,391.5"/>
<path d="M743.9,402.4c-1.2,0-2.2-1-2.2-2.2c0-1.2,1-2.2,2.2-2.2s2.2,1,2.2,2.2C746.1,401.4,745.1,402.4,743.9,402.4"/>
<path d="M743.5,397.6c-1.2,0-2.2-1-2.2-2.2c0-1.2,1-2.2,2.2-2.2s2.2,1,2.2,2.2C745.7,396.6,744.7,397.6,743.5,397.6"/>
<path d="M739.8,396.8c-1.2,0-2.2-1-2.2-2.2c0-1.2,1-2.2,2.2-2.2s2.2,1,2.2,2.2C741.9,395.8,741,396.8,739.8,396.8"/>
<path d="M748,407.6c-1.2,0-2.2-1-2.2-2.2c0-1.2,1-2.2,2.2-2.2s2.2,1,2.2,2.2C750.2,406.7,749.2,407.6,748,407.6"/>
<path d="M747.4,403.5c-1.2,0-2.2-1-2.2-2.2s1-2.2,2.2-2.2s2.2,1,2.2,2.2C749.6,402.5,748.6,403.5,747.4,403.5"/>
<path d="M748.2,399.8c-1.2,0-2.2-1-2.2-2.2c0-1.2,1-2.2,2.2-2.2s2.2,1,2.2,2.2C750.4,398.8,749.5,399.8,748.2,399.8"/>
<path d="M741.5,405.9c-1.2,0-2.2-1-2.2-2.2c0-1.2,1-2.2,2.2-2.2s2.2,1,2.2,2.2C743.7,404.9,742.7,405.9,741.5,405.9"/>
<path d="M765.7,407.2c-1.2,0-2.2-1-2.2-2.2c0-1.2,1-2.2,2.2-2.2s2.2,1,2.2,2.2C767.9,406.2,766.9,407.2,765.7,407.2"/>
<path d="M758.3,406.3c-1.2,0-2.2-1-2.2-2.2c0-1.2,1-2.2,2.2-2.2s2.2,1,2.2,2.2C760.5,405.3,759.5,406.3,758.3,406.3"/>
<path d="M757.2,395.2c-1.2,0-2.2-1-2.2-2.2c0-1.2,1-2.2,2.2-2.2s2.2,1,2.2,2.2C759.3,394.3,758.4,395.2,757.2,395.2"/>
<path d="M741.7,399.4c-1.2,0-2.2-1-2.2-2.2c0-1.2,1-2.2,2.2-2.2s2.2,1,2.2,2.2C743.9,398.4,742.9,399.4,741.7,399.4"/>
<path d="M737.6,402.2c-1.2,0-2.2-1-2.2-2.2c0-1.2,1-2.2,2.2-2.2s2.2,1,2.2,2.2C739.8,401.2,738.8,402.2,737.6,402.2"/>
<path d="M739.3,407.2c-1.2,0-2.2-1-2.2-2.2c0-1.2,1-2.2,2.2-2.2s2.2,1,2.2,2.2C741.5,406.2,740.5,407.2,739.3,407.2"/>
<path d="M734.8,406.1c-1.2,0-2.2-1-2.2-2.2c0-1.2,1-2.2,2.2-2.2s2.2,1,2.2,2.2C737,405.1,736,406.1,734.8,406.1"/>
<path d="M730.8,403.3c-1.2,0-2.2-1-2.2-2.2c0-1.2,1-2.2,2.2-2.2s2.2,1,2.2,2.2C733,402.3,732,403.3,730.8,403.3"/>
<path d="M726.3,393.1c-1.2,0-2.2-1-2.2-2.2c0-1.2,1-2.2,2.2-2.2s2.2,1,2.2,2.2C728.4,392.1,727.5,393.1,726.3,393.1"/>
<path d="M721.9,390c-1.2,0-2.2-1-2.2-2.2s1-2.2,2.2-2.2s2.2,1,2.2,2.2C724.1,389,723.1,390,721.9,390"/>
<path d="M723.4,392.8c-1.2,0-2.2-1-2.2-2.2c0-1.2,1-2.2,2.2-2.2s2.2,1,2.2,2.2C725.6,391.9,724.6,392.8,723.4,392.8"/>
<path d="M730.5,395c-1.2,0-2.2-1-2.2-2.2s1-2.2,2.2-2.2s2.2,1,2.2,2.2S731.7,395,730.5,395"/>
<path d="M724.5,404.6c-1.2,0-2.2-1-2.2-2.2c0-1.2,1-2.2,2.2-2.2s2.2,1,2.2,2.2C726.7,403.6,725.7,404.6,724.5,404.6"/>
<path d="M727,397.4c1.1,0.5,1.6,1.8,1.1,2.9s-1.8,1.6-2.9,1.1c-1.1-0.5-1.6-1.8-1.1-2.9C724.6,397.4,725.9,396.9,727,397.4"/>
<path d="M729.1,399.2c-1.2,0-2.2-1-2.2-2.2c0-1.2,1-2.2,2.2-2.2s2.2,1,2.2,2.2C731.3,398.2,730.3,399.2,729.1,399.2"/>
<path d="M735.2,398.1c-1.2,0-2.2-1-2.2-2.2c0-1.2,1-2.2,2.2-2.2s2.2,1,2.2,2.2C737.4,397.1,736.4,398.1,735.2,398.1"/>
<path d="M735,395.5c-1.2,0-2.2-1-2.2-2.2s1-2.2,2.2-2.2s2.2,1,2.2,2.2S736.2,395.5,735,395.5"/>
<path d="M742.2,390.5c-1.2,0-2.2-1-2.2-2.2s1-2.2,2.2-2.2s2.2,1,2.2,2.2C744.3,389.5,743.4,390.5,742.2,390.5"/>
<path d="M732.1,391.5c-1.2,0-2.2-1-2.2-2.2s1-2.2,2.2-2.2s2.2,1,2.2,2.2C734.3,390.6,733.4,391.5,732.1,391.5"/>
<path d="M722.6,395.9c-1.2,0-2.2-1-2.2-2.2c0-1.2,1-2.2,2.2-2.2s2.2,1,2.2,2.2C724.8,394.9,723.8,395.9,722.6,395.9"/>
<path d="M713.5,400.3c-1.2,0-2.2-1-2.2-2.2c0-1.2,1-2.2,2.2-2.2s2.2,1,2.2,2.2C715.7,399.3,714.7,400.3,713.5,400.3"/>
<path d="M718.7,396.1c-1.2,0-2.2-1-2.2-2.2c0-1.2,1-2.2,2.2-2.2s2.2,1,2.2,2.2C720.9,395.1,719.9,396.1,718.7,396.1"/>
<path d="M718.6,401.3c-1.1-0.5-1.6-1.8-1.1-2.9s1.8-1.6,2.9-1.1c1.1,0.5,1.6,1.8,1.1,2.9S719.7,401.8,718.6,401.3"/>
<path d="M720.8,407.2c-1.2,0-2.2-1-2.2-2.2c0-1.2,1-2.2,2.2-2.2s2.2,1,2.2,2.2C723,406.2,722,407.2,720.8,407.2"/>
<path d="M730,407c-1.2,0-2.2-1-2.2-2.2s1-2.2,2.2-2.2s2.2,1,2.2,2.2C732.1,406,731.2,407,730,407"/>
<path d="M659.8,390.2c-1.2,0-2.2-1-2.2-2.2c0-1.2,1-2.2,2.2-2.2s2.2,1,2.2,2.2C662,389.3,661,390.2,659.8,390.2"/>
<path d="M653.2,393.9c-1.2,0-2.2-1-2.2-2.2c0-1.2,1-2.2,2.2-2.2s2.2,1,2.2,2.2C655.4,392.9,654.4,393.9,653.2,393.9"/>
<path d="M658,393.7c-1.2,0-2.2-1-2.2-2.2c0-1.2,1-2.2,2.2-2.2s2.2,1,2.2,2.2C660.2,392.8,659.2,393.7,658,393.7"/>
<path d="M652.8,390.2c-1.2,0-2.2-1-2.2-2.2c0-1.2,1-2.2,2.2-2.2s2.2,1,2.2,2.2C654.9,389.3,654,390.2,652.8,390.2"/>
<path d="M658.5,397.4c-1.2,0-2.2-1-2.2-2.2c0-1.2,1-2.2,2.2-2.2s2.2,1,2.2,2.2C660.7,396.4,659.7,397.4,658.5,397.4"/>
<path d="M645.6,391.3c-1.2,0-2.2-1-2.2-2.2c0-1.2,1-2.2,2.2-2.2s2.2,1,2.2,2.2C647.8,390.3,646.8,391.3,645.6,391.3"/>
<path d="M645.4,402c-1.2,0-2.2-1-2.2-2.2s1-2.2,2.2-2.2s2.2,1,2.2,2.2S646.6,402,645.4,402"/>
<path d="M649.7,395c-1.2,0-2.2-1-2.2-2.2s1-2.2,2.2-2.2s2.2,1,2.2,2.2S650.9,395,649.7,395"/>
<path d="M648,398.5c-1.2,0-2.2-1-2.2-2.2s1-2.2,2.2-2.2s2.2,1,2.2,2.2S649.2,398.5,648,398.5"/>
<path d="M657.7,407.6c-1.2,0-2.2-1-2.2-2.2c0-1.2,1-2.2,2.2-2.2s2.2,1,2.2,2.2C659.8,406.7,658.9,407.6,657.7,407.6"/>
<path d="M656.5,402.7c-1.2,0-2.2-1-2.2-2.2c0-1.2,1-2.2,2.2-2.2s2.2,1,2.2,2.2C658.7,401.7,657.7,402.7,656.5,402.7"/>
<path d="M637.1,391.3c-1.2,0-2.2-1-2.2-2.2c0-1.2,1-2.2,2.2-2.2s2.2,1,2.2,2.2C639.3,390.3,638.3,391.3,637.1,391.3"/>
<path d="M651,402.6c-1.2,0-2.2-1-2.2-2.2c0-1.2,1-2.2,2.2-2.2s2.2,1,2.2,2.2C653.2,401.7,652.2,402.6,651,402.6"/>
<path d="M639.7,406.6c-1.2,0-2.2-1-2.2-2.2c0-1.2,1-2.2,2.2-2.2s2.2,1,2.2,2.2C641.9,405.6,640.9,406.6,639.7,406.6"/>
<path d="M640.3,397.4c-1.2,0-2.2-1-2.2-2.2c0-1.2,1-2.2,2.2-2.2s2.2,1,2.2,2.2C642.5,396.4,641.5,397.4,640.3,397.4"/>
<path d="M637.5,395.7c-1.2,0-2.2-1-2.2-2.2c0-1.2,1-2.2,2.2-2.2s2.2,1,2.2,2.2C639.7,394.8,638.7,395.7,637.5,395.7"/>
<path d="M632.1,392.8c-1.2,0-2.2-1-2.2-2.2c0-1.2,1-2.2,2.2-2.2s2.2,1,2.2,2.2C634.3,391.9,633.3,392.8,632.1,392.8"/>
<path d="M633.2,402c-1.2,0-2.2-1-2.2-2.2s1-2.2,2.2-2.2s2.2,1,2.2,2.2S634.4,402,633.2,402"/>
<path d="M631.7,397.4c-1.2,0-2.2-1-2.2-2.2c0-1.2,1-2.2,2.2-2.2s2.2,1,2.2,2.2C633.9,396.4,632.9,397.4,631.7,397.4"/>
<path d="M628.4,394.8c-1.2,0-2.2-1-2.2-2.2c0-1.2,1-2.2,2.2-2.2s2.2,1,2.2,2.2C630.6,393.8,629.6,394.8,628.4,394.8"/>
<path d="M635.4,406.1c-1.2,0-2.2-1-2.2-2.2c0-1.2,1-2.2,2.2-2.2s2.2,1,2.2,2.2C637.5,405.2,636.6,406.1,635.4,406.1"/>
<path d="M634.6,400.7c-1.2,0-2.2-1-2.2-2.2c0-1.2,1-2.2,2.2-2.2s2.2,1,2.2,2.2C636.8,399.7,635.8,400.7,634.6,400.7"/>
<path d="M638.6,401.6c-1.2,0-2.2-1-2.2-2.2c0-1.2,1-2.2,2.2-2.2s2.2,1,2.2,2.2C640.8,400.6,639.8,401.6,638.6,401.6"/>
<path d="M629.3,405.5c-1.2,0-2.2-1-2.2-2.2s1-2.2,2.2-2.2s2.2,1,2.2,2.2C631.4,404.5,630.5,405.5,629.3,405.5"/>
<path d="M651,406.1c-1.2,0-2.2-1-2.2-2.2c0-1.2,1-2.2,2.2-2.2s2.2,1,2.2,2.2C653.2,405.1,652.2,406.1,651,406.1"/>
<path d="M645.4,406.1c-1.2,0-2.2-1-2.2-2.2c0-1.2,1-2.2,2.2-2.2s2.2,1,2.2,2.2C647.6,405.1,646.6,406.1,645.4,406.1"/>
<path d="M643.4,395.2c-1.2,0-2.2-1-2.2-2.2c0-1.2,1-2.2,2.2-2.2s2.2,1,2.2,2.2C645.6,394.3,644.6,395.2,643.4,395.2"/>
<path d="M628.6,401.1c-1.2,0-2.2-1-2.2-2.2c0-1.2,1-2.2,2.2-2.2s2.2,1,2.2,2.2C630.8,400.1,629.8,401.1,628.6,401.1"/>
<path d="M623.6,401.1c-1.2,0-2.2-1-2.2-2.2c0-1.2,1-2.2,2.2-2.2s2.2,1,2.2,2.2C625.8,400.1,624.8,401.1,623.6,401.1"/>
<path d="M626.4,407c-1.2,0-2.2-1-2.2-2.2s1-2.2,2.2-2.2s2.2,1,2.2,2.2S627.6,407,626.4,407"/>
<path d="M621,405.7c-1.2,0-2.2-1-2.2-2.2c0-1.2,1-2.2,2.2-2.2s2.2,1,2.2,2.2C623.2,404.7,622.2,405.7,621,405.7"/>
<path d="M617.1,402.6c-1.2,0-2.2-1-2.2-2.2c0-1.2,1-2.2,2.2-2.2s2.2,1,2.2,2.2C619.3,401.6,618.3,402.6,617.1,402.6"/>
<path d="M613.4,394.6c-1.2,0-2.2-1-2.2-2.2c0-1.2,1-2.2,2.2-2.2s2.2,1,2.2,2.2C615.6,393.6,614.6,394.6,613.4,394.6"/>
<path d="M609.7,390.7c-1.2,0-2.2-1-2.2-2.2c0-1.2,1-2.2,2.2-2.2s2.2,1,2.2,2.2C611.9,389.7,610.9,390.7,609.7,390.7"/>
<path d="M616.2,391.5c-1.2,0-2.2-1-2.2-2.2s1-2.2,2.2-2.2s2.2,1,2.2,2.2C618.4,390.6,617.4,391.5,616.2,391.5"/>
<path d="M620.6,396.3c-1.2,0-2.2-1-2.2-2.2c0-1.2,1-2.2,2.2-2.2s2.2,1,2.2,2.2C622.8,395.3,621.8,396.3,620.6,396.3"/>
<path d="M613.2,404.6c-1.2,0-2.2-1-2.2-2.2c0-1.2,1-2.2,2.2-2.2s2.2,1,2.2,2.2C615.4,403.6,614.4,404.6,613.2,404.6"/>
<path d="M613.4,396.9c1.1,0.5,1.6,1.8,1.1,2.9s-1.8,1.6-2.9,1.1c-1.1-0.5-1.6-1.8-1.1-2.9C611,397,612.3,396.5,613.4,396.9"/>
<path d="M616.9,398.5c-1.2,0-2.2-1-2.2-2.2s1-2.2,2.2-2.2s2.2,1,2.2,2.2S618.1,398.5,616.9,398.5"/>
<path d="M625.8,398.5c-1.2,0-2.2-1-2.2-2.2s1-2.2,2.2-2.2s2.2,1,2.2,2.2S627,398.5,625.8,398.5"/>
<path d="M622.1,392.6c-1.2,0-2.2-1-2.2-2.2c0-1.2,1-2.2,2.2-2.2s2.2,1,2.2,2.2C624.3,391.7,623.3,392.6,622.1,392.6"/>
<path d="M627.7,390.2c-1.2,0-2.2-1-2.2-2.2c0-1.2,1-2.2,2.2-2.2s2.2,1,2.2,2.2C629.9,389.3,628.9,390.2,627.7,390.2"/>
<path d="M624,393.9c-1.2,0-2.2-1-2.2-2.2c0-1.2,1-2.2,2.2-2.2s2.2,1,2.2,2.2C626.2,393,625.2,393.9,624,393.9"/>
<path d="M609.7,395.2c-1.2,0-2.2-1-2.2-2.2c0-1.2,1-2.2,2.2-2.2s2.2,1,2.2,2.2C611.9,394.3,610.9,395.2,609.7,395.2"/>
<path d="M605.8,398.3c-1.2,0-2.2-1-2.2-2.2c0-1.2,1-2.2,2.2-2.2s2.2,1,2.2,2.2C608,397.3,607,398.3,605.8,398.3"/>
<path d="M605.8,392.4c-1.2,0-2.2-1-2.2-2.2c0-1.2,1-2.2,2.2-2.2s2.2,1,2.2,2.2C607.9,391.4,607,392.4,605.8,392.4"/>
<path d="M605.3,402.4c-1.2,0-2.2-1-2.2-2.2c0-1.2,1-2.2,2.2-2.2s2.2,1,2.2,2.2C607.5,401.5,606.5,402.4,605.3,402.4"/>
<path d="M610.3,408.3c-1.2,0-2.2-1-2.2-2.2c0-1.2,1-2.2,2.2-2.2s2.2,1,2.2,2.2C612.5,407.3,611.5,408.3,610.3,408.3"/>
<path d="M617.3,407.9c-1.2,0-2.2-1-2.2-2.2c0-1.2,1-2.2,2.2-2.2s2.2,1,2.2,2.2C619.5,406.9,618.5,407.9,617.3,407.9"/>
<path d="M786.3,396.4c-1.2,0-2.2-1-2.2-2.2c0-1.2,1-2.2,2.2-2.2s2.2,1,2.2,2.2C788.4,395.4,787.5,396.4,786.3,396.4"/>
<path d="M781.9,392.9c-1.2,0-2.2-1-2.2-2.2c0-1.2,1-2.2,2.2-2.2s2.2,1,2.2,2.2C784.1,391.9,783.1,392.9,781.9,392.9"/>
<path d="M785.1,397.2c-1.2,0-2.2-1-2.2-2.2c0-1.2,1-2.2,2.2-2.2s2.2,1,2.2,2.2C787.3,396.2,786.3,397.2,785.1,397.2"/>
<path d="M785.6,407.2c-1.2,0-2.2-1-2.2-2.2c0-1.2,1-2.2,2.2-2.2s2.2,1,2.2,2.2C787.8,406.3,786.8,407.2,785.6,407.2"/>
<path d="M780,398.9c1.1,0.5,1.6,1.8,1.1,2.9s-1.8,1.6-2.9,1.1c-1.1-0.5-1.6-1.8-1.1-2.9C777.6,398.9,778.9,398.4,780,398.9"/>
<path d="M786.3,401.1c-1.2,0-2.2-1-2.2-2.2c0-1.2,1-2.2,2.2-2.2s2.2,1,2.2,2.2C788.4,400.1,787.5,401.1,786.3,401.1"/>
<path d="M778.2,398.3c-1.2,0-2.2-1-2.2-2.2c0-1.2,1-2.2,2.2-2.2s2.2,1,2.2,2.2C780.4,397.3,779.4,398.3,778.2,398.3"/>
<path d="M774.8,400.9c-1.2,0-2.2-1-2.2-2.2c0-1.2,1-2.2,2.2-2.2s2.2,1,2.2,2.2C777,400,776,400.9,774.8,400.9"/>
<path d="M774.4,396.8c-1.2,0-2.2-1-2.2-2.2c0-1.2,1-2.2,2.2-2.2s2.2,1,2.2,2.2C776.6,395.8,775.6,396.8,774.4,396.8"/>
<path d="M774.4,406.4c-1.2,0-2.2-1-2.2-2.2c0-1.2,1-2.2,2.2-2.2s2.2,1,2.2,2.2C776.6,405.4,775.6,406.4,774.4,406.4"/>
<path d="M779.7,410c-1.2,0-2.2-1-2.2-2.2s1-2.2,2.2-2.2s2.2,1,2.2,2.2C781.9,409.1,780.9,410,779.7,410"/>
</svg>
