<?xml version="1.0" encoding="utf-8"?>
<!-- Generator: Adobe Illustrator 18.1.1, SVG Export Plug-In . SVG Version: 6.00 Build 0)  -->
<svg version="1.1" id="Layer_1" xmlns="http://www.w3.org/2000/svg" xmlns:xlink="http://www.w3.org/1999/xlink" x="0px" y="0px"
	 viewBox="-292 111.3 25.2 571.7" enable-background="new -292 111.3 25.2 571.7" xml:space="preserve">
<path d="M-287.6,539.8c0,1.2-1,2.2-2.2,2.2c-1.2,0-2.2-1-2.2-2.2s1-2.2,2.2-2.2C-288.6,537.6-287.6,538.6-287.6,539.8"/>
<path d="M-285.5,544.1c0,1.2-1,2.2-2.2,2.2c-1.2,0-2.2-1-2.2-2.2s1-2.2,2.2-2.2C-286.4,541.9-285.5,542.9-285.5,544.1"/>
<path d="M-283.3,538.5c0,1.2-1,2.2-2.2,2.2s-2.2-1-2.2-2.2s1-2.2,2.2-2.2S-283.3,537.3-283.3,538.5"/>
<path d="M-287.2,547.2c0,1.2-1,2.2-2.2,2.2c-1.2,0-2.2-1-2.2-2.2c0-1.2,1-2.2,2.2-2.2C-288.2,545-287.2,546-287.2,547.2"/>
<path d="M-278.3,541.6c-0.3,1.2-1.4,1.9-2.6,1.6c-1.2-0.3-1.9-1.4-1.6-2.6s1.4-1.9,2.6-1.6C-278.8,539.2-278.1,540.4-278.3,541.6"/>
<path d="M-282.9,551.3c0,1.2-1,2.2-2.2,2.2c-1.2,0-2.2-1-2.2-2.2s1-2.2,2.2-2.2C-283.8,549.1-282.9,550.1-282.9,551.3"/>
<path d="M-273.5,554.9c0,1.2-1,2.2-2.2,2.2c-1.2,0-2.2-1-2.2-2.2c0-1.2,1-2.2,2.2-2.2C-274.5,552.7-273.5,553.7-273.5,554.9"/>
<path d="M-279.2,551.3c0,1.2-1,2.2-2.2,2.2c-1.2,0-2.2-1-2.2-2.2s1-2.2,2.2-2.2C-280.1,549.1-279.2,550.1-279.2,551.3"/>
<path d="M-277,545.6c0,1.2-1,2.2-2.2,2.2c-1.2,0-2.2-1-2.2-2.2s1-2.2,2.2-2.2C-278,543.5-277,544.4-277,545.6"/>
<path d="M-276.2,538.2c-0.3,1.2-1.6,1.8-2.7,1.5c-1.2-0.3-1.8-1.6-1.5-2.7c0.3-1.2,1.6-1.8,2.7-1.5
	C-276.5,535.8-275.9,537.1-276.2,538.2"/>
<path d="M-274.4,542.8c0,1.2-1,2.2-2.2,2.2c-1.2,0-2.2-1-2.2-2.2s1-2.2,2.2-2.2C-275.3,540.6-274.4,541.6-274.4,542.8"/>
<path d="M-286.6,557.1c0,1.2-1,2.2-2.2,2.2c-1.2,0-2.2-1-2.2-2.2s1-2.2,2.2-2.2C-287.5,554.9-286.6,555.9-286.6,557.1"/>
<path d="M-273.9,549.8c0,1.2-1,2.2-2.2,2.2c-1.2,0-2.2-1-2.2-2.2s1-2.2,2.2-2.2C-274.9,547.6-273.9,548.6-273.9,549.8"/>
<path d="M-269.6,556.1c0,1.2-1,2.2-2.2,2.2c-1.2,0-2.2-1-2.2-2.2s1-2.2,2.2-2.2C-270.6,553.9-269.6,554.9-269.6,556.1"/>
<path d="M-281.3,557.2c0,1.2-1,2.2-2.2,2.2s-2.2-1-2.2-2.2c0-1.2,1-2.2,2.2-2.2S-281.3,556-281.3,557.2"/>
<path d="M-283.3,560.7c0,1.2-1,2.2-2.2,2.2s-2.2-1-2.2-2.2c0-1.2,1-2.2,2.2-2.2S-283.3,559.5-283.3,560.7"/>
<path d="M-285.7,564.6c0,1.2-1,2.2-2.2,2.2c-1.2,0-2.2-1-2.2-2.2s1-2.2,2.2-2.2C-286.7,562.4-285.7,563.4-285.7,564.6"/>
<path d="M-275.2,564.6c0,1.2-1,2.2-2.2,2.2c-1.2,0-2.2-1-2.2-2.2s1-2.2,2.2-2.2C-276.2,562.4-275.2,563.4-275.2,564.6"/>
<path d="M-279.6,567.2c0,1.2-1,2.2-2.2,2.2c-1.2,0-2.2-1-2.2-2.2c0-1.2,1-2.2,2.2-2.2C-280.6,565-279.6,566-279.6,567.2"/>
<path d="M-282.7,569.5c0,1.2-1,2.2-2.2,2.2c-1.2,0-2.2-1-2.2-2.2s1-2.2,2.2-2.2C-283.7,567.3-282.7,568.3-282.7,569.5"/>
<path d="M-270.2,560.2c0,1.2-1,2.2-2.2,2.2c-1.2,0-2.2-1-2.2-2.2c0-1.2,1-2.2,2.2-2.2C-271.2,558.1-270.2,559-270.2,560.2"/>
<path d="M-274.8,563.9c0,1.2-1,2.2-2.2,2.2s-2.2-1-2.2-2.2c0-1.2,1-2.2,2.2-2.2S-274.8,562.7-274.8,563.9"/>
<path d="M-273.5,559.4c0,1.2-1,2.2-2.2,2.2c-1.2,0-2.2-1-2.2-2.2c0-1.2,1-2.2,2.2-2.2C-274.5,557.2-273.5,558.1-273.5,559.4"/>
<path d="M-271.5,567.2c0,1.2-1,2.2-2.2,2.2c-1.2,0-2.2-1-2.2-2.2c0-1.2,1-2.2,2.2-2.2C-272.5,565-271.5,566-271.5,567.2"/>
<path d="M-272.4,545.6c0,1.2-1,2.2-2.2,2.2c-1.2,0-2.2-1-2.2-2.2s1-2.2,2.2-2.2C-273.4,543.5-272.4,544.4-272.4,545.6"/>
<path d="M-271.8,552.7c0,1.2-1,2.2-2.2,2.2s-2.2-1-2.2-2.2c0-1.2,1-2.2,2.2-2.2C-272.7,550.6-271.8,551.5-271.8,552.7"/>
<path d="M-281.3,554.6c0,1.2-1,2.2-2.2,2.2s-2.2-1-2.2-2.2s1-2.2,2.2-2.2C-282.3,552.4-281.3,553.4-281.3,554.6"/>
<path d="M-276.5,567.8c0,1.2-1,2.2-2.2,2.2c-1.2,0-2.2-1-2.2-2.2s1-2.2,2.2-2.2C-277.5,565.7-276.5,566.6-276.5,567.8"/>
<path d="M-277.6,572c0,1.2-1,2.2-2.2,2.2c-1.2,0-2.2-1-2.2-2.2s1-2.2,2.2-2.2C-278.6,569.8-277.6,570.8-277.6,572"/>
<path d="M-270,571.3c0,1.2-1,2.2-2.2,2.2c-1.2,0-2.2-1-2.2-2.2s1-2.2,2.2-2.2C-271,569.1-270,570.1-270,571.3"/>
<path d="M-275.5,575c0,1.2-1,2.2-2.2,2.2c-1.2,0-2.2-1-2.2-2.2s1-2.2,2.2-2.2C-276.4,572.8-275.5,573.8-275.5,575"/>
<path d="M-274.6,579.8c0,1.2-1,2.2-2.2,2.2c-1.2,0-2.2-1-2.2-2.2s1-2.2,2.2-2.2C-275.6,577.6-274.6,578.6-274.6,579.8"/>
<path d="M-282.7,584.4c0,1.2-1,2.2-2.2,2.2c-1.2,0-2.2-1-2.2-2.2c0-1.2,1-2.2,2.2-2.2C-283.7,582.2-282.7,583.2-282.7,584.4"/>
<path d="M-287.6,583.9c0,1.2-1,2.2-2.2,2.2c-1.2,0-2.2-1-2.2-2.2c0-1.2,1-2.2,2.2-2.2C-288.6,581.8-287.6,582.7-287.6,583.9"/>
<path d="M-271.1,582.2c0,1.2-1,2.2-2.2,2.2c-1.2,0-2.2-1-2.2-2.2c0-1.2,1-2.2,2.2-2.2C-272.1,580-271.1,581-271.1,582.2"/>
<path d="M-280.5,578.3c0,1.2-1,2.2-2.2,2.2c-1.2,0-2.2-1-2.2-2.2s1-2.2,2.2-2.2C-281.5,576.1-280.5,577.1-280.5,578.3"/>
<path d="M-272.2,585c0,1.2-1,2.2-2.2,2.2c-1.2,0-2.2-1-2.2-2.2s1-2.2,2.2-2.2C-273.2,582.9-272.2,583.8-272.2,585"/>
<path d="M-280.3,583.7c0.5-1.1,1.8-1.6,2.9-1.1s1.6,1.8,1.1,2.9c-0.5,1.1-1.8,1.6-2.9,1.1C-280.3,586.1-280.8,584.8-280.3,583.7"/>
<path d="M-278.3,581.1c0,1.2-1,2.2-2.2,2.2s-2.2-1-2.2-2.2s1-2.2,2.2-2.2C-279.3,578.9-278.3,579.9-278.3,581.1"/>
<path d="M-279.2,565c0,1.2-1,2.2-2.2,2.2c-1.2,0-2.2-1-2.2-2.2s1-2.2,2.2-2.2C-280.1,562.8-279.2,563.8-279.2,565"/>
<path d="M-284.6,575.7c0,1.2-1,2.2-2.2,2.2c-1.2,0-2.2-1-2.2-2.2c0-1.2,1-2.2,2.2-2.2C-285.6,573.5-284.6,574.5-284.6,575.7"/>
<path d="M-286.8,570.2c0,1.2-1,2.2-2.2,2.2s-2.2-1-2.2-2.2c0-1.2,1-2.2,2.2-2.2S-286.8,569-286.8,570.2"/>
<path d="M-282.2,574.2c0,1.2-1,2.2-2.2,2.2c-1.2,0-2.2-1-2.2-2.2c0-1.2,1-2.2,2.2-2.2C-283.2,572-282.2,572.9-282.2,574.2"/>
<path d="M-284.2,588.9c0,1.2-1,2.2-2.2,2.2c-1.2,0-2.2-1-2.2-2.2c0-1.2,1-2.2,2.2-2.2C-285.1,586.8-284.2,587.7-284.2,588.9"/>
<path d="M-276.8,596.3c0,1.2-1,2.2-2.2,2.2s-2.2-1-2.2-2.2s1-2.2,2.2-2.2C-277.7,594.2-276.8,595.1-276.8,596.3"/>
<path d="M-277.6,591.4c0,1.2-1,2.2-2.2,2.2c-1.2,0-2.2-1-2.2-2.2c0-1.2,1-2.2,2.2-2.2C-278.6,589.2-277.6,590.2-277.6,591.4"/>
<path d="M-274.2,592.3c0,1.2-1,2.2-2.2,2.2c-1.2,0-2.2-1-2.2-2.2s1-2.2,2.2-2.2C-275.1,590.1-274.2,591.1-274.2,592.3"/>
<path d="M-270.2,591.1c0,1.2-1,2.2-2.2,2.2c-1.2,0-2.2-1-2.2-2.2s1-2.2,2.2-2.2C-271.2,588.9-270.2,589.9-270.2,591.1"/>
<path d="M-270.7,578.5c0,1.2-1,2.2-2.2,2.2c-1.2,0-2.2-1-2.2-2.2s1-2.2,2.2-2.2C-271.6,576.3-270.7,577.3-270.7,578.5"/>
<path d="M-286.1,594.5c0,1.2-1,2.2-2.2,2.2c-1.2,0-2.2-1-2.2-2.2s1-2.2,2.2-2.2C-287.1,592.3-286.1,593.3-286.1,594.5"/>
<path d="M-281.1,600.9c0,1.2-1,2.2-2.2,2.2c-1.2,0-2.2-1-2.2-2.2c0-1.2,1-2.2,2.2-2.2C-282.1,598.7-281.1,599.7-281.1,600.9"/>
<path d="M-281.8,596.3c0,1.2-1,2.2-2.2,2.2s-2.2-1-2.2-2.2s1-2.2,2.2-2.2C-282.7,594.2-281.8,595.1-281.8,596.3"/>
<path d="M-286.1,600.9c0,1.2-1,2.2-2.2,2.2c-1.2,0-2.2-1-2.2-2.2c0-1.2,1-2.2,2.2-2.2C-287.1,598.7-286.1,599.7-286.1,600.9"/>
<path d="M-279.2,599.6c0,1.2-1,2.2-2.2,2.2c-1.2,0-2.2-1-2.2-2.2s1-2.2,2.2-2.2C-280.1,597.4-279.2,598.4-279.2,599.6"/>
<path d="M-284.6,605.3c0,1.2-1,2.2-2.2,2.2c-1.2,0-2.2-1-2.2-2.2s1-2.2,2.2-2.2C-285.6,603.1-284.6,604.1-284.6,605.3"/>
<path d="M-276.3,609.4c0,1.2-1,2.2-2.2,2.2s-2.2-1-2.2-2.2c0-1.2,1-2.2,2.2-2.2S-276.3,608.2-276.3,609.4"/>
<path d="M-280,605.5c0,1.2-1,2.2-2.2,2.2c-1.2,0-2.2-1-2.2-2.2s1-2.2,2.2-2.2C-281,603.3-280,604.3-280,605.5"/>
<path d="M-275.5,603.7c0,1.2-1,2.2-2.2,2.2c-1.2,0-2.2-1-2.2-2.2c0-1.2,1-2.2,2.2-2.2C-276.4,601.6-275.5,602.5-275.5,603.7"/>
<path d="M-269.4,599.8c0,1.2-1,2.2-2.2,2.2c-1.2,0-2.2-1-2.2-2.2s1-2.2,2.2-2.2C-270.3,597.6-269.4,598.6-269.4,599.8"/>
<path d="M-274.4,599.4c0,1.2-1,2.2-2.2,2.2c-1.2,0-2.2-1-2.2-2.2c0-1.2,1-2.2,2.2-2.2C-275.3,597.2-274.4,598.2-274.4,599.4"/>
<path d="M-284.8,613.7c0,1.2-1,2.2-2.2,2.2s-2.2-1-2.2-2.2c0-1.2,1-2.2,2.2-2.2C-285.8,611.6-284.8,612.5-284.8,613.7"/>
<path d="M-272.8,604.7c0,1.2-1,2.2-2.2,2.2s-2.2-1-2.2-2.2c0-1.2,1-2.2,2.2-2.2C-273.7,602.5-272.8,603.5-272.8,604.7"/>
<path d="M-271.1,613.5c0,1.2-1,2.2-2.2,2.2c-1.2,0-2.2-1-2.2-2.2s1-2.2,2.2-2.2C-272.1,611.4-271.1,612.3-271.1,613.5"/>
<path d="M-277.9,614c0,1.2-1,2.2-2.2,2.2c-1.2,0-2.2-1-2.2-2.2s1-2.2,2.2-2.2C-278.8,611.8-277.9,612.8-277.9,614"/>
<path d="M-280.2,615.9c0,1.2-1,2.2-2.2,2.2c-1.2,0-2.2-1-2.2-2.2c0-1.2,1-2.2,2.2-2.2C-281.2,613.7-280.2,614.7-280.2,615.9"/>
<path d="M-280.9,621.7c0,1.2-1,2.2-2.2,2.2c-1.2,0-2.2-1-2.2-2.2s1-2.2,2.2-2.2C-281.9,619.5-280.9,620.5-280.9,621.7"/>
<path d="M-277.6,623.4c0,1.2-1,2.2-2.2,2.2c-1.2,0-2.2-1-2.2-2.2s1-2.2,2.2-2.2C-278.6,621.3-277.6,622.2-277.6,623.4"/>
<path d="M-277,626.9c-0.6,1-1.9,1.4-3,0.8c-1-0.6-1.4-1.9-0.8-3c0.6-1.1,1.9-1.4,3-0.8C-276.8,624.5-276.5,625.8-277,626.9"/>
<path d="M-282.6,626.4c0,1.2-1,2.2-2.2,2.2c-1.2,0-2.2-1-2.2-2.2s1-2.2,2.2-2.2C-283.6,624.3-282.6,625.2-282.6,626.4"/>
<path d="M-268.9,617.9c0,1.2-1,2.2-2.2,2.2c-1.2,0-2.2-1-2.2-2.2c0-1.2,1-2.2,2.2-2.2C-269.9,615.7-268.9,616.7-268.9,617.9"/>
<path d="M-276.5,620.3c0,1.2-1,2.2-2.2,2.2c-1.2,0-2.2-1-2.2-2.2s1-2.2,2.2-2.2C-277.5,618.1-276.5,619.1-276.5,620.3"/>
<path d="M-274.9,616.6c0,1.2-1,2.2-2.2,2.2c-1.2,0-2.2-1-2.2-2.2s1-2.2,2.2-2.2C-275.9,614.4-274.9,615.4-274.9,616.6"/>
<path d="M-271.8,626.2c0,1.2-1,2.2-2.2,2.2s-2.2-1-2.2-2.2s1-2.2,2.2-2.2C-272.7,624-271.8,624.9-271.8,626.2"/>
<path d="M-268.5,605.3c0,1.2-1,2.2-2.2,2.2c-1.2,0-2.2-1-2.2-2.2s1-2.2,2.2-2.2C-269.5,603.1-268.5,604.1-268.5,605.3"/>
<path d="M-271.3,609.4c0,1.2-1,2.2-2.2,2.2s-2.2-1-2.2-2.2c0-1.2,1-2.2,2.2-2.2S-271.3,608.2-271.3,609.4"/>
<path d="M-281.1,609.8c0,1.2-1,2.2-2.2,2.2c-1.2,0-2.2-1-2.2-2.2s1-2.2,2.2-2.2C-282.1,607.7-281.1,608.6-281.1,609.8"/>
<path d="M-284.8,620.3c0,1.2-1,2.2-2.2,2.2s-2.2-1-2.2-2.2s1-2.2,2.2-2.2S-284.8,619.1-284.8,620.3"/>
<path d="M-276.3,631.2c0,1.2-1,2.2-2.2,2.2s-2.2-1-2.2-2.2s1-2.2,2.2-2.2S-276.3,630-276.3,631.2"/>
<path d="M-266.8,630.5c0,1.2-1,2.2-2.2,2.2s-2.2-1-2.2-2.2s1-2.2,2.2-2.2C-267.7,628.3-266.8,629.3-266.8,630.5"/>
<path d="M-271.3,630.3c0,1.2-1,2.2-2.2,2.2s-2.2-1-2.2-2.2s1-2.2,2.2-2.2S-271.3,629.1-271.3,630.3"/>
<path d="M-276.6,635.3c0,1.2-1,2.2-2.2,2.2c-1.2,0-2.2-1-2.2-2.2s1-2.2,2.2-2.2C-277.5,633.1-276.6,634.1-276.6,635.3"/>
<path d="M-270.7,621.3c0,1.2-1,2.2-2.2,2.2c-1.2,0-2.2-1-2.2-2.2s1-2.2,2.2-2.2C-271.6,619.1-270.7,620.1-270.7,621.3"/>
<path d="M-280.9,636.8c0,1.2-1,2.2-2.2,2.2c-1.2,0-2.2-1-2.2-2.2s1-2.2,2.2-2.2C-281.9,634.6-280.9,635.6-280.9,636.8"/>
<path d="M-280,632.7c0,1.2-1,2.2-2.2,2.2c-1.2,0-2.2-1-2.2-2.2s1-2.2,2.2-2.2C-281,630.5-280,631.5-280,632.7"/>
<path d="M-285.7,633.8c0,1.2-1,2.2-2.2,2.2c-1.2,0-2.2-1-2.2-2.2s1-2.2,2.2-2.2C-286.7,631.6-285.7,632.6-285.7,633.8"/>
<path d="M-287,626.8c0,1.2-1,2.2-2.2,2.2c-1.2,0-2.2-1-2.2-2.2s1-2.2,2.2-2.2C-288,624.6-287,625.6-287,626.8"/>
<path d="M-283.1,631.2c0,1.2-1,2.2-2.2,2.2c-1.2,0-2.2-1-2.2-2.2s1-2.2,2.2-2.2C-284.1,629-283.1,630-283.1,631.2"/>
<path d="M-268.5,624.2c0,1.2-1,2.2-2.2,2.2c-1.2,0-2.2-1-2.2-2.2s1-2.2,2.2-2.2C-269.5,622-268.5,623-268.5,624.2"/>
<path d="M-268.9,627.5c0,1.2-1,2.2-2.2,2.2c-1.2,0-2.2-1-2.2-2.2s1-2.2,2.2-2.2C-269.9,625.3-268.9,626.3-268.9,627.5"/>
<path d="M-270.7,636.4c0,1.2-1,2.2-2.2,2.2c-1.2,0-2.2-1-2.2-2.2s1-2.2,2.2-2.2C-271.6,634.2-270.7,635.2-270.7,636.4"/>
<path d="M-286.6,637.9c0,1.2-1,2.2-2.2,2.2c-1.2,0-2.2-1-2.2-2.2s1-2.2,2.2-2.2C-287.5,635.7-286.6,636.7-286.6,637.9"/>
<path d="M-284.2,644.1c0.6,1,0.2,2.4-0.8,3s-2.4,0.2-3-0.8s-0.2-2.4,0.8-3S-284.8,643-284.2,644.1"/>
<path d="M-278.3,640.1c0,1.2-1,2.2-2.2,2.2s-2.2-1-2.2-2.2s1-2.2,2.2-2.2S-278.3,638.9-278.3,640.1"/>
<path d="M-287,643.9c0,1.2-1,2.2-2.2,2.2c-1.2,0-2.2-1-2.2-2.2s1-2.2,2.2-2.2C-288,641.7-287,642.7-287,643.9"/>
<path d="M-277.9,644.3c0,1.2-1,2.2-2.2,2.2c-1.2,0-2.2-1-2.2-2.2s1-2.2,2.2-2.2C-278.8,642.1-277.9,643.1-277.9,644.3"/>
<path d="M-284.4,651.9c0,1.2-1,2.2-2.2,2.2c-1.2,0-2.2-1-2.2-2.2s1-2.2,2.2-2.2C-285.4,649.7-284.4,650.7-284.4,651.9"/>
<path d="M-277.2,653.4c0,1.2-1,2.2-2.2,2.2c-1.2,0-2.2-1-2.2-2.2s1-2.2,2.2-2.2C-278.2,651.3-277.2,652.2-277.2,653.4"/>
<path d="M-281.8,648.9c0,1.2-1,2.2-2.2,2.2s-2.2-1-2.2-2.2s1-2.2,2.2-2.2C-282.7,646.7-281.8,647.7-281.8,648.9"/>
<path d="M-274.6,645.4c0,1.2-1,2.2-2.2,2.2c-1.2,0-2.2-1-2.2-2.2s1-2.2,2.2-2.2C-275.6,643.2-274.6,644.2-274.6,645.4"/>
<path d="M-268.1,639.5c0,1.2-1,2.2-2.2,2.2c-1.2,0-2.2-1-2.2-2.2s1-2.2,2.2-2.2C-269,637.3-268.1,638.3-268.1,639.5"/>
<path d="M-274.2,640c0,1.2-1,2.2-2.2,2.2c-1.2,0-2.2-1-2.2-2.2s1-2.2,2.2-2.2C-275.2,637.8-274.2,638.8-274.2,640"/>
<path d="M-285.5,657.8c0,1.2-1,2.2-2.2,2.2c-1.2,0-2.2-1-2.2-2.2s1-2.2,2.2-2.2C-286.4,655.6-285.5,656.6-285.5,657.8"/>
<path d="M-274.8,650c0,1.2-1,2.2-2.2,2.2s-2.2-1-2.2-2.2s1-2.2,2.2-2.2S-274.8,648.7-274.8,650"/>
<path d="M-269.6,658.2c0,1.2-1,2.2-2.2,2.2c-1.2,0-2.2-1-2.2-2.2s1-2.2,2.2-2.2C-270.6,656-269.6,657-269.6,658.2"/>
<path d="M-276.5,657.6c0,1.2-1,2.2-2.2,2.2c-1.2,0-2.2-1-2.2-2.2s1-2.2,2.2-2.2C-277.5,655.4-276.5,656.4-276.5,657.6"/>
<path d="M-282.6,660.9c0,1.2-1,2.2-2.2,2.2c-1.2,0-2.2-1-2.2-2.2s1-2.2,2.2-2.2C-283.6,658.7-282.6,659.7-282.6,660.9"/>
<path d="M-280.9,665.3c0,1.2-1,2.2-2.2,2.2c-1.2,0-2.2-1-2.2-2.2s1-2.2,2.2-2.2C-281.9,663.1-280.9,664.1-280.9,665.3"/>
<path d="M-275.2,665.6c0,1.2-1,2.2-2.2,2.2c-1.2,0-2.2-1-2.2-2.2s1-2.2,2.2-2.2C-276.2,663.4-275.2,664.4-275.2,665.6"/>
<path d="M-282.4,668.2c0,1.2-1,2.2-2.2,2.2c-1.2,0-2.2-1-2.2-2.2s1-2.2,2.2-2.2C-283.4,666.1-282.4,667-282.4,668.2"/>
<path d="M-282.6,671.9c0,1.2-1,2.2-2.2,2.2c-1.2,0-2.2-1-2.2-2.2s1-2.2,2.2-2.2C-283.6,669.8-282.6,670.7-282.6,671.9"/>
<path d="M-270.2,662.4c0,1.2-1,2.2-2.2,2.2c-1.2,0-2.2-1-2.2-2.2s1-2.2,2.2-2.2C-271.2,660.2-270.2,661.2-270.2,662.4"/>
<path d="M-274.8,665c0,1.2-1,2.2-2.2,2.2s-2.2-1-2.2-2.2s1-2.2,2.2-2.2S-274.8,663.8-274.8,665"/>
<path d="M-273.3,660.4c0,1.2-1,2.2-2.2,2.2s-2.2-1-2.2-2.2s1-2.2,2.2-2.2C-274.3,658.2-273.3,659.2-273.3,660.4"/>
<path d="M-271.3,669.4c0,1.2-1,2.2-2.2,2.2s-2.2-1-2.2-2.2s1-2.2,2.2-2.2C-272.3,667.2-271.3,668.2-271.3,669.4"/>
<path d="M-268.9,646c0,1.2-1,2.2-2.2,2.2c-1.2,0-2.2-1-2.2-2.2s1-2.2,2.2-2.2C-269.9,643.9-268.9,644.8-268.9,646"/>
<path d="M-271.1,654.1c0,1.2-1,2.2-2.2,2.2c-1.2,0-2.2-1-2.2-2.2s1-2.2,2.2-2.2C-272.1,651.9-271.1,652.9-271.1,654.1"/>
<path d="M-280.7,653.4c0,1.2-1,2.2-2.2,2.2c-1.2,0-2.2-1-2.2-2.2s1-2.2,2.2-2.2C-281.7,651.3-280.7,652.2-280.7,653.4"/>
<path d="M-276.4,668.7c0,1.2-1,2.2-2.2,2.2c-1.2,0-2.2-1-2.2-2.2s1-2.2,2.2-2.2C-277.4,666.5-276.4,667.5-276.4,668.7"/>
<path d="M-274.4,671.6c0,1.2-1,2.2-2.2,2.2c-1.2,0-2.2-1-2.2-2.2s1-2.2,2.2-2.2C-275.3,669.4-274.4,670.4-274.4,671.6"/>
<path d="M-266.8,673.7c0,1.2-1,2.2-2.2,2.2s-2.2-1-2.2-2.2s1-2.2,2.2-2.2C-267.7,671.6-266.8,672.5-266.8,673.7"/>
<path d="M-273.9,676.1c0,1.2-1,2.2-2.2,2.2c-1.2,0-2.2-1-2.2-2.2s1-2.2,2.2-2.2C-274.9,673.9-273.9,674.9-273.9,676.1"/>
<path d="M-276.8,678.2c0,1.2-1,2.2-2.2,2.2s-2.2-1-2.2-2.2s1-2.2,2.2-2.2C-277.7,676.1-276.8,677-276.8,678.2"/>
<path d="M-271.8,664.5c0,1.2-1,2.2-2.2,2.2s-2.2-1-2.2-2.2s1-2.2,2.2-2.2C-272.7,662.4-271.8,663.3-271.8,664.5"/>
<path d="M-280.5,680.8c0,1.2-1,2.2-2.2,2.2c-1.2,0-2.2-1-2.2-2.2s1-2.2,2.2-2.2C-281.4,678.7-280.5,679.6-280.5,680.8"/>
<path d="M-279.2,673c0,1.2-1,2.2-2.2,2.2c-1.2,0-2.2-1-2.2-2.2s1-2.2,2.2-2.2C-280.1,670.8-279.2,671.8-279.2,673"/>
<path d="M-282.6,677.1c0,1.2-1,2.2-2.2,2.2c-1.2,0-2.2-1-2.2-2.2s1-2.2,2.2-2.2C-283.6,675-282.6,675.9-282.6,677.1"/>
<path d="M-286.6,670.4c0,1.2-1,2.2-2.2,2.2c-1.2,0-2.2-1-2.2-2.2s1-2.2,2.2-2.2C-287.5,668.2-286.6,669.2-286.6,670.4"/>
<path d="M-282.6,674.7c0,1.2-1,2.2-2.2,2.2c-1.2,0-2.2-1-2.2-2.2s1-2.2,2.2-2.2C-283.6,672.5-282.6,673.5-282.6,674.7"/>
<path d="M-267.2,668.2c0,1.2-1,2.2-2.2,2.2c-1.2,0-2.2-1-2.2-2.2s1-2.2,2.2-2.2C-268.2,666.1-267.2,667-267.2,668.2"/>
<path d="M-269.7,672.6c0,1.2-1,2.2-2.2,2.2c-1.2,0-2.2-1-2.2-2.2s1-2.2,2.2-2.2C-270.6,670.4-269.7,671.4-269.7,672.6"/>
<path d="M-270,679.3c0,1.2-1,2.2-2.2,2.2c-1.2,0-2.2-1-2.2-2.2s1-2.2,2.2-2.2C-271,677.2-270,678.1-270,679.3"/>
<path d="M-287.6,398.7c0,1.2-1,2.2-2.2,2.2c-1.2,0-2.2-1-2.2-2.2s1-2.2,2.2-2.2C-288.6,396.5-287.6,397.5-287.6,398.7"/>
<path d="M-285.5,403c0,1.2-1,2.2-2.2,2.2c-1.2,0-2.2-1-2.2-2.2s1-2.2,2.2-2.2C-286.4,400.9-285.5,401.8-285.5,403"/>
<path d="M-283.3,397.4c0,1.2-1,2.2-2.2,2.2s-2.2-1-2.2-2.2s1-2.2,2.2-2.2S-283.3,396.2-283.3,397.4"/>
<path d="M-287.2,406.1c0,1.2-1,2.2-2.2,2.2c-1.2,0-2.2-1-2.2-2.2s1-2.2,2.2-2.2C-288.2,403.9-287.2,404.9-287.2,406.1"/>
<path d="M-278.3,400.5c-0.3,1.2-1.4,1.9-2.6,1.6c-1.2-0.3-1.9-1.4-1.6-2.6s1.4-1.9,2.6-1.6C-278.8,398.1-278.1,399.3-278.3,400.5"/>
<path d="M-282.9,410.2c0,1.2-1,2.2-2.2,2.2c-1.2,0-2.2-1-2.2-2.2s1-2.2,2.2-2.2C-283.8,408-282.9,409-282.9,410.2"/>
<path d="M-273.5,413.8c0,1.2-1,2.2-2.2,2.2c-1.2,0-2.2-1-2.2-2.2s1-2.2,2.2-2.2C-274.5,411.6-273.5,412.6-273.5,413.8"/>
<path d="M-279.2,410.2c0,1.2-1,2.2-2.2,2.2c-1.2,0-2.2-1-2.2-2.2s1-2.2,2.2-2.2C-280.1,408-279.2,409-279.2,410.2"/>
<path d="M-277,404.6c0,1.2-1,2.2-2.2,2.2c-1.2,0-2.2-1-2.2-2.2s1-2.2,2.2-2.2C-278,402.4-277,403.4-277,404.6"/>
<path d="M-276.2,397.1c-0.3,1.2-1.6,1.8-2.7,1.5c-1.2-0.3-1.8-1.6-1.5-2.7c0.3-1.2,1.6-1.8,2.7-1.5
	C-276.5,394.8-275.9,396-276.2,397.1"/>
<path d="M-274.4,401.7c0,1.2-1,2.2-2.2,2.2c-1.2,0-2.2-1-2.2-2.2s1-2.2,2.2-2.2C-275.3,399.6-274.4,400.5-274.4,401.7"/>
<path d="M-286.6,416c0,1.2-1,2.2-2.2,2.2c-1.2,0-2.2-1-2.2-2.2s1-2.2,2.2-2.2C-287.5,413.8-286.6,414.8-286.6,416"/>
<path d="M-273.9,408.7c0,1.2-1,2.2-2.2,2.2c-1.2,0-2.2-1-2.2-2.2s1-2.2,2.2-2.2C-274.9,406.5-273.9,407.5-273.9,408.7"/>
<path d="M-269.6,415c0,1.2-1,2.2-2.2,2.2c-1.2,0-2.2-1-2.2-2.2s1-2.2,2.2-2.2C-270.6,412.8-269.6,413.8-269.6,415"/>
<path d="M-281.3,416.1c0,1.2-1,2.2-2.2,2.2s-2.2-1-2.2-2.2s1-2.2,2.2-2.2C-282.3,413.9-281.3,414.9-281.3,416.1"/>
<path d="M-283.3,419.6c0,1.2-1,2.2-2.2,2.2s-2.2-1-2.2-2.2s1-2.2,2.2-2.2C-284.3,417.4-283.3,418.4-283.3,419.6"/>
<path d="M-285.7,423.5c0,1.2-1,2.2-2.2,2.2c-1.2,0-2.2-1-2.2-2.2s1-2.2,2.2-2.2C-286.7,421.3-285.7,422.3-285.7,423.5"/>
<path d="M-275.2,423.5c0,1.2-1,2.2-2.2,2.2c-1.2,0-2.2-1-2.2-2.2s1-2.2,2.2-2.2C-276.2,421.3-275.2,422.3-275.2,423.5"/>
<path d="M-279.6,426.1c0,1.2-1,2.2-2.2,2.2c-1.2,0-2.2-1-2.2-2.2s1-2.2,2.2-2.2C-280.6,423.9-279.6,424.9-279.6,426.1"/>
<path d="M-282.7,428.4c0,1.2-1,2.2-2.2,2.2c-1.2,0-2.2-1-2.2-2.2s1-2.2,2.2-2.2C-283.7,426.2-282.7,427.2-282.7,428.4"/>
<path d="M-270.2,419.1c0,1.2-1,2.2-2.2,2.2c-1.2,0-2.2-1-2.2-2.2s1-2.2,2.2-2.2C-271.2,417-270.2,417.9-270.2,419.1"/>
<path d="M-274.8,422.8c0,1.2-1,2.2-2.2,2.2s-2.2-1-2.2-2.2s1-2.2,2.2-2.2C-275.8,420.7-274.8,421.6-274.8,422.8"/>
<path d="M-273.5,418.3c0,1.2-1,2.2-2.2,2.2c-1.2,0-2.2-1-2.2-2.2s1-2.2,2.2-2.2C-274.5,416.1-273.5,417.1-273.5,418.3"/>
<path d="M-271.5,426.1c0,1.2-1,2.2-2.2,2.2c-1.2,0-2.2-1-2.2-2.2s1-2.2,2.2-2.2C-272.5,423.9-271.5,424.9-271.5,426.1"/>
<path d="M-272.4,404.6c0,1.2-1,2.2-2.2,2.2c-1.2,0-2.2-1-2.2-2.2s1-2.2,2.2-2.2C-273.4,402.4-272.4,403.4-272.4,404.6"/>
<path d="M-271.8,411.6c0,1.2-1,2.2-2.2,2.2s-2.2-1-2.2-2.2s1-2.2,2.2-2.2C-272.7,409.5-271.8,410.4-271.8,411.6"/>
<path d="M-281.3,413.5c0,1.2-1,2.2-2.2,2.2s-2.2-1-2.2-2.2s1-2.2,2.2-2.2S-281.3,412.3-281.3,413.5"/>
<path d="M-276.5,426.8c0,1.2-1,2.2-2.2,2.2c-1.2,0-2.2-1-2.2-2.2s1-2.2,2.2-2.2C-277.5,424.6-276.5,425.5-276.5,426.8"/>
<path d="M-277.6,430.9c0,1.2-1,2.2-2.2,2.2c-1.2,0-2.2-1-2.2-2.2s1-2.2,2.2-2.2C-278.6,428.7-277.6,429.7-277.6,430.9"/>
<path d="M-270,430.2c0,1.2-1,2.2-2.2,2.2c-1.2,0-2.2-1-2.2-2.2s1-2.2,2.2-2.2C-271,428-270,429-270,430.2"/>
<path d="M-275.5,433.9c0,1.2-1,2.2-2.2,2.2c-1.2,0-2.2-1-2.2-2.2s1-2.2,2.2-2.2C-276.4,431.8-275.5,432.7-275.5,433.9"/>
<path d="M-274.6,438.7c0,1.2-1,2.2-2.2,2.2c-1.2,0-2.2-1-2.2-2.2s1-2.2,2.2-2.2C-275.6,436.5-274.6,437.5-274.6,438.7"/>
<path d="M-282.7,443.3c0,1.2-1,2.2-2.2,2.2c-1.2,0-2.2-1-2.2-2.2s1-2.2,2.2-2.2C-283.7,441.1-282.7,442.1-282.7,443.3"/>
<path d="M-287.6,442.9c0,1.2-1,2.2-2.2,2.2c-1.2,0-2.2-1-2.2-2.2s1-2.2,2.2-2.2C-288.6,440.7-287.6,441.7-287.6,442.9"/>
<path d="M-271.1,441.1c0,1.2-1,2.2-2.2,2.2c-1.2,0-2.2-1-2.2-2.2s1-2.2,2.2-2.2C-272.1,438.9-271.1,439.9-271.1,441.1"/>
<path d="M-280.5,437.2c0,1.2-1,2.2-2.2,2.2c-1.2,0-2.2-1-2.2-2.2s1-2.2,2.2-2.2C-281.5,435-280.5,436-280.5,437.2"/>
<path d="M-272.2,443.9c0,1.2-1,2.2-2.2,2.2c-1.2,0-2.2-1-2.2-2.2s1-2.2,2.2-2.2C-273.2,441.8-272.2,442.7-272.2,443.9"/>
<path d="M-280.3,442.6c0.5-1.1,1.8-1.6,2.9-1.1s1.6,1.8,1.1,2.9s-1.8,1.6-2.9,1.1C-280.3,445-280.8,443.7-280.3,442.6"/>
<path d="M-278.3,440c0,1.2-1,2.2-2.2,2.2s-2.2-1-2.2-2.2s1-2.2,2.2-2.2C-279.3,437.9-278.3,438.8-278.3,440"/>
<path d="M-279.2,423.9c0,1.2-1,2.2-2.2,2.2c-1.2,0-2.2-1-2.2-2.2s1-2.2,2.2-2.2C-280.1,421.8-279.2,422.7-279.2,423.9"/>
<path d="M-284.6,434.6c0,1.2-1,2.2-2.2,2.2c-1.2,0-2.2-1-2.2-2.2s1-2.2,2.2-2.2C-285.6,432.4-284.6,433.4-284.6,434.6"/>
<path d="M-286.8,429.1c0,1.2-1,2.2-2.2,2.2s-2.2-1-2.2-2.2s1-2.2,2.2-2.2C-287.8,427-286.8,427.9-286.8,429.1"/>
<path d="M-282.2,433.1c0,1.2-1,2.2-2.2,2.2c-1.2,0-2.2-1-2.2-2.2s1-2.2,2.2-2.2C-283.2,430.9-282.2,431.9-282.2,433.1"/>
<path d="M-284.2,447.9c0,1.2-1,2.2-2.2,2.2c-1.2,0-2.2-1-2.2-2.2s1-2.2,2.2-2.2C-285.1,445.7-284.2,446.7-284.2,447.9"/>
<path d="M-276.8,455.3c0,1.2-1,2.2-2.2,2.2s-2.2-1-2.2-2.2s1-2.2,2.2-2.2C-277.7,453.1-276.8,454.1-276.8,455.3"/>
<path d="M-277.6,450.3c0,1.2-1,2.2-2.2,2.2c-1.2,0-2.2-1-2.2-2.2s1-2.2,2.2-2.2C-278.6,448.2-277.6,449.1-277.6,450.3"/>
<path d="M-274.2,451.2c0,1.2-1,2.2-2.2,2.2c-1.2,0-2.2-1-2.2-2.2s1-2.2,2.2-2.2C-275.1,449-274.2,450-274.2,451.2"/>
<path d="M-270.2,450c0,1.2-1,2.2-2.2,2.2c-1.2,0-2.2-1-2.2-2.2s1-2.2,2.2-2.2C-271.2,447.9-270.2,448.8-270.2,450"/>
<path d="M-270.7,437.4c0,1.2-1,2.2-2.2,2.2c-1.2,0-2.2-1-2.2-2.2s1-2.2,2.2-2.2C-271.6,435.2-270.7,436.2-270.7,437.4"/>
<path d="M-286.1,453.4c0,1.2-1,2.2-2.2,2.2c-1.2,0-2.2-1-2.2-2.2s1-2.2,2.2-2.2C-287.1,451.2-286.1,452.2-286.1,453.4"/>
<path d="M-281.1,459.8c0,1.2-1,2.2-2.2,2.2c-1.2,0-2.2-1-2.2-2.2s1-2.2,2.2-2.2C-282.1,457.6-281.1,458.6-281.1,459.8"/>
<path d="M-281.8,455.3c0,1.2-1,2.2-2.2,2.2s-2.2-1-2.2-2.2s1-2.2,2.2-2.2C-282.7,453.1-281.8,454.1-281.8,455.3"/>
<path d="M-286.1,459.8c0,1.2-1,2.2-2.2,2.2c-1.2,0-2.2-1-2.2-2.2s1-2.2,2.2-2.2C-287.1,457.6-286.1,458.6-286.1,459.8"/>
<path d="M-279.2,458.5c0,1.2-1,2.2-2.2,2.2c-1.2,0-2.2-1-2.2-2.2s1-2.2,2.2-2.2C-280.1,456.3-279.2,457.3-279.2,458.5"/>
<path d="M-284.6,464.2c0,1.2-1,2.2-2.2,2.2c-1.2,0-2.2-1-2.2-2.2s1-2.2,2.2-2.2C-285.6,462-284.6,463-284.6,464.2"/>
<path d="M-276.3,468.3c0,1.2-1,2.2-2.2,2.2s-2.2-1-2.2-2.2s1-2.2,2.2-2.2S-276.3,467.1-276.3,468.3"/>
<path d="M-280,464.4c0,1.2-1,2.2-2.2,2.2c-1.2,0-2.2-1-2.2-2.2s1-2.2,2.2-2.2C-281,462.2-280,463.2-280,464.4"/>
<path d="M-275.5,462.7c0,1.2-1,2.2-2.2,2.2c-1.2,0-2.2-1-2.2-2.2s1-2.2,2.2-2.2C-276.4,460.5-275.5,461.5-275.5,462.7"/>
<path d="M-269.4,458.7c0,1.2-1,2.2-2.2,2.2c-1.2,0-2.2-1-2.2-2.2s1-2.2,2.2-2.2C-270.3,456.6-269.4,457.5-269.4,458.7"/>
<path d="M-274.4,458.3c0,1.2-1,2.2-2.2,2.2c-1.2,0-2.2-1-2.2-2.2s1-2.2,2.2-2.2C-275.3,456.1-274.4,457.1-274.4,458.3"/>
<path d="M-284.8,472.7c0,1.2-1,2.2-2.2,2.2s-2.2-1-2.2-2.2s1-2.2,2.2-2.2C-285.8,470.5-284.8,471.5-284.8,472.7"/>
<path d="M-272.8,463.6c0,1.2-1,2.2-2.2,2.2s-2.2-1-2.2-2.2s1-2.2,2.2-2.2C-273.7,461.4-272.8,462.4-272.8,463.6"/>
<path d="M-271.1,472.4c0,1.2-1,2.2-2.2,2.2c-1.2,0-2.2-1-2.2-2.2s1-2.2,2.2-2.2C-272.1,470.3-271.1,471.2-271.1,472.4"/>
<path d="M-277.9,472.9c0,1.2-1,2.2-2.2,2.2c-1.2,0-2.2-1-2.2-2.2s1-2.2,2.2-2.2C-278.8,470.7-277.9,471.7-277.9,472.9"/>
<path d="M-280.2,474.8c0,1.2-1,2.2-2.2,2.2c-1.2,0-2.2-1-2.2-2.2s1-2.2,2.2-2.2C-281.2,472.7-280.2,473.6-280.2,474.8"/>
<path d="M-280.9,480.6c0,1.2-1,2.2-2.2,2.2c-1.2,0-2.2-1-2.2-2.2s1-2.2,2.2-2.2C-281.9,478.4-280.9,479.4-280.9,480.6"/>
<path d="M-277.6,482.4c0,1.2-1,2.2-2.2,2.2c-1.2,0-2.2-1-2.2-2.2s1-2.2,2.2-2.2C-278.6,480.2-277.6,481.2-277.6,482.4"/>
<path d="M-277,485.8c-0.6,1-1.9,1.4-3,0.8c-1-0.6-1.4-1.9-0.8-3c0.6-1.1,1.9-1.4,3-0.8C-276.8,483.4-276.5,484.7-277,485.8"/>
<path d="M-282.6,485.4c0,1.2-1,2.2-2.2,2.2c-1.2,0-2.2-1-2.2-2.2s1-2.2,2.2-2.2C-283.6,483.2-282.6,484.2-282.6,485.4"/>
<path d="M-268.9,476.8c0,1.2-1,2.2-2.2,2.2c-1.2,0-2.2-1-2.2-2.2s1-2.2,2.2-2.2C-269.9,474.6-268.9,475.6-268.9,476.8"/>
<path d="M-276.5,479.2c0,1.2-1,2.2-2.2,2.2c-1.2,0-2.2-1-2.2-2.2s1-2.2,2.2-2.2C-277.5,477-276.5,478-276.5,479.2"/>
<path d="M-274.9,475.5c0,1.2-1,2.2-2.2,2.2c-1.2,0-2.2-1-2.2-2.2s1-2.2,2.2-2.2C-275.9,473.3-274.9,474.3-274.9,475.5"/>
<path d="M-271.8,485.1c0,1.2-1,2.2-2.2,2.2s-2.2-1-2.2-2.2s1-2.2,2.2-2.2C-272.7,482.9-271.8,483.9-271.8,485.1"/>
<path d="M-268.5,464.2c0,1.2-1,2.2-2.2,2.2c-1.2,0-2.2-1-2.2-2.2s1-2.2,2.2-2.2C-269.5,462-268.5,463-268.5,464.2"/>
<path d="M-271.3,468.3c0,1.2-1,2.2-2.2,2.2s-2.2-1-2.2-2.2s1-2.2,2.2-2.2S-271.3,467.1-271.3,468.3"/>
<path d="M-281.1,468.8c0,1.2-1,2.2-2.2,2.2c-1.2,0-2.2-1-2.2-2.2s1-2.2,2.2-2.2C-282.1,466.6-281.1,467.5-281.1,468.8"/>
<path d="M-284.8,479.2c0,1.2-1,2.2-2.2,2.2s-2.2-1-2.2-2.2s1-2.2,2.2-2.2C-285.8,477-284.8,478-284.8,479.2"/>
<path d="M-276.3,490.1c0,1.2-1,2.2-2.2,2.2s-2.2-1-2.2-2.2s1-2.2,2.2-2.2C-277.3,487.9-276.3,488.9-276.3,490.1"/>
<path d="M-266.8,489.4c0,1.2-1,2.2-2.2,2.2s-2.2-1-2.2-2.2s1-2.2,2.2-2.2C-267.7,487.2-266.8,488.2-266.8,489.4"/>
<path d="M-271.3,489.2c0,1.2-1,2.2-2.2,2.2s-2.2-1-2.2-2.2s1-2.2,2.2-2.2C-272.3,487-271.3,488-271.3,489.2"/>
<path d="M-276.6,494.2c0,1.2-1,2.2-2.2,2.2c-1.2,0-2.2-1-2.2-2.2s1-2.2,2.2-2.2C-277.5,492-276.6,493-276.6,494.2"/>
<path d="M-270.7,480.2c0,1.2-1,2.2-2.2,2.2c-1.2,0-2.2-1-2.2-2.2s1-2.2,2.2-2.2C-271.6,478-270.7,479-270.7,480.2"/>
<path d="M-280.9,495.7c0,1.2-1,2.2-2.2,2.2c-1.2,0-2.2-1-2.2-2.2s1-2.2,2.2-2.2C-281.9,493.5-280.9,494.5-280.9,495.7"/>
<path d="M-280,491.6c0,1.2-1,2.2-2.2,2.2c-1.2,0-2.2-1-2.2-2.2s1-2.2,2.2-2.2C-281,489.4-280,490.4-280,491.6"/>
<path d="M-285.7,492.7c0,1.2-1,2.2-2.2,2.2c-1.2,0-2.2-1-2.2-2.2s1-2.2,2.2-2.2C-286.7,490.5-285.7,491.5-285.7,492.7"/>
<path d="M-287,485.7c0,1.2-1,2.2-2.2,2.2c-1.2,0-2.2-1-2.2-2.2s1-2.2,2.2-2.2C-288,483.5-287,484.5-287,485.7"/>
<path d="M-283.1,490.1c0,1.2-1,2.2-2.2,2.2c-1.2,0-2.2-1-2.2-2.2s1-2.2,2.2-2.2C-284.1,487.9-283.1,488.9-283.1,490.1"/>
<path d="M-268.5,483.1c0,1.2-1,2.2-2.2,2.2c-1.2,0-2.2-1-2.2-2.2s1-2.2,2.2-2.2C-269.5,480.9-268.5,481.9-268.5,483.1"/>
<path d="M-268.9,486.4c0,1.2-1,2.2-2.2,2.2c-1.2,0-2.2-1-2.2-2.2s1-2.2,2.2-2.2C-269.9,484.2-268.9,485.2-268.9,486.4"/>
<path d="M-270.7,495.3c0,1.2-1,2.2-2.2,2.2c-1.2,0-2.2-1-2.2-2.2s1-2.2,2.2-2.2C-271.6,493.1-270.7,494.1-270.7,495.3"/>
<path d="M-286.6,496.8c0,1.2-1,2.2-2.2,2.2c-1.2,0-2.2-1-2.2-2.2s1-2.2,2.2-2.2C-287.5,494.6-286.6,495.6-286.6,496.8"/>
<path d="M-284.2,503c0.6,1,0.2,2.4-0.8,3s-2.4,0.2-3-0.8s-0.2-2.4,0.8-3C-286.2,501.6-284.8,502-284.2,503"/>
<path d="M-278.3,499c0,1.2-1,2.2-2.2,2.2s-2.2-1-2.2-2.2s1-2.2,2.2-2.2S-278.3,497.8-278.3,499"/>
<path d="M-287,502.8c0,1.2-1,2.2-2.2,2.2c-1.2,0-2.2-1-2.2-2.2s1-2.2,2.2-2.2C-288,500.6-287,501.6-287,502.8"/>
<path d="M-277.9,503.2c0,1.2-1,2.2-2.2,2.2c-1.2,0-2.2-1-2.2-2.2s1-2.2,2.2-2.2C-278.8,501-277.9,502-277.9,503.2"/>
<path d="M-284.4,510.8c0,1.2-1,2.2-2.2,2.2c-1.2,0-2.2-1-2.2-2.2s1-2.2,2.2-2.2C-285.4,508.6-284.4,509.6-284.4,510.8"/>
<path d="M-277.2,512.3c0,1.2-1,2.2-2.2,2.2c-1.2,0-2.2-1-2.2-2.2s1-2.2,2.2-2.2C-278.2,510.2-277.2,511.1-277.2,512.3"/>
<path d="M-281.8,507.8c0,1.2-1,2.2-2.2,2.2s-2.2-1-2.2-2.2s1-2.2,2.2-2.2C-282.7,505.6-281.8,506.6-281.8,507.8"/>
<path d="M-274.6,504.3c0,1.2-1,2.2-2.2,2.2c-1.2,0-2.2-1-2.2-2.2s1-2.2,2.2-2.2C-275.6,502.1-274.6,503.1-274.6,504.3"/>
<path d="M-268.1,498.4c0,1.2-1,2.2-2.2,2.2c-1.2,0-2.2-1-2.2-2.2s1-2.2,2.2-2.2C-269,496.3-268.1,497.2-268.1,498.4"/>
<path d="M-274.2,498.9c0,1.2-1,2.2-2.2,2.2c-1.2,0-2.2-1-2.2-2.2s1-2.2,2.2-2.2C-275.2,496.7-274.2,497.7-274.2,498.9"/>
<path d="M-285.5,516.7c0,1.2-1,2.2-2.2,2.2c-1.2,0-2.2-1-2.2-2.2c0-1.2,1-2.2,2.2-2.2C-286.4,514.5-285.5,515.5-285.5,516.7"/>
<path d="M-274.8,508.9c0,1.2-1,2.2-2.2,2.2s-2.2-1-2.2-2.2s1-2.2,2.2-2.2S-274.8,507.7-274.8,508.9"/>
<path d="M-269.6,517.1c0,1.2-1,2.2-2.2,2.2c-1.2,0-2.2-1-2.2-2.2s1-2.2,2.2-2.2C-270.6,514.9-269.6,515.9-269.6,517.1"/>
<path d="M-276.5,516.5c0,1.2-1,2.2-2.2,2.2c-1.2,0-2.2-1-2.2-2.2s1-2.2,2.2-2.2C-277.5,514.3-276.5,515.3-276.5,516.5"/>
<path d="M-282.6,519.8c0,1.2-1,2.2-2.2,2.2c-1.2,0-2.2-1-2.2-2.2s1-2.2,2.2-2.2C-283.6,517.6-282.6,518.6-282.6,519.8"/>
<path d="M-280.9,524.2c0,1.2-1,2.2-2.2,2.2c-1.2,0-2.2-1-2.2-2.2c0-1.2,1-2.2,2.2-2.2C-281.9,522-280.9,523-280.9,524.2"/>
<path d="M-275.2,524.5c0,1.2-1,2.2-2.2,2.2c-1.2,0-2.2-1-2.2-2.2s1-2.2,2.2-2.2C-276.2,522.4-275.2,523.3-275.2,524.5"/>
<path d="M-282.4,527.1c0,1.2-1,2.2-2.2,2.2c-1.2,0-2.2-1-2.2-2.2s1-2.2,2.2-2.2C-283.4,525-282.4,525.9-282.4,527.1"/>
<path d="M-282.6,530.8c0,1.2-1,2.2-2.2,2.2c-1.2,0-2.2-1-2.2-2.2s1-2.2,2.2-2.2C-283.6,528.7-282.6,529.6-282.6,530.8"/>
<path d="M-270.2,521.3c0,1.2-1,2.2-2.2,2.2c-1.2,0-2.2-1-2.2-2.2s1-2.2,2.2-2.2C-271.2,519.1-270.2,520.1-270.2,521.3"/>
<path d="M-274.8,523.9c0,1.2-1,2.2-2.2,2.2s-2.2-1-2.2-2.2c0-1.2,1-2.2,2.2-2.2S-274.8,522.7-274.8,523.9"/>
<path d="M-273.3,519.3c0,1.2-1,2.2-2.2,2.2s-2.2-1-2.2-2.2s1-2.2,2.2-2.2S-273.3,518.1-273.3,519.3"/>
<path d="M-271.3,528.3c0,1.2-1,2.2-2.2,2.2s-2.2-1-2.2-2.2s1-2.2,2.2-2.2S-271.3,527.1-271.3,528.3"/>
<path d="M-268.9,505c0,1.2-1,2.2-2.2,2.2c-1.2,0-2.2-1-2.2-2.2s1-2.2,2.2-2.2C-269.9,502.8-268.9,503.7-268.9,505"/>
<path d="M-271.1,513c0,1.2-1,2.2-2.2,2.2c-1.2,0-2.2-1-2.2-2.2s1-2.2,2.2-2.2C-272.1,510.8-271.1,511.8-271.1,513"/>
<path d="M-280.7,512.4c0,1.2-1,2.2-2.2,2.2c-1.2,0-2.2-1-2.2-2.2c0-1.2,1-2.2,2.2-2.2C-281.7,510.2-280.7,511.2-280.7,512.4"/>
<path d="M-276.4,527.6c0,1.2-1,2.2-2.2,2.2c-1.2,0-2.2-1-2.2-2.2s1-2.2,2.2-2.2C-277.4,525.4-276.4,526.4-276.4,527.6"/>
<path d="M-274.4,530.5c0,1.2-1,2.2-2.2,2.2c-1.2,0-2.2-1-2.2-2.2s1-2.2,2.2-2.2C-275.3,528.3-274.4,529.3-274.4,530.5"/>
<path d="M-266.8,532.7c0,1.2-1,2.2-2.2,2.2s-2.2-1-2.2-2.2c0-1.2,1-2.2,2.2-2.2C-267.7,530.5-266.8,531.5-266.8,532.7"/>
<path d="M-273.9,535c0,1.2-1,2.2-2.2,2.2c-1.2,0-2.2-1-2.2-2.2s1-2.2,2.2-2.2C-274.9,532.8-273.9,533.8-273.9,535"/>
<path d="M-276.8,537.2c0,1.2-1,2.2-2.2,2.2s-2.2-1-2.2-2.2c0-1.2,1-2.2,2.2-2.2C-277.7,535-276.8,536-276.8,537.2"/>
<path d="M-271.8,523.5c0,1.2-1,2.2-2.2,2.2s-2.2-1-2.2-2.2s1-2.2,2.2-2.2C-272.7,521.3-271.8,522.2-271.8,523.5"/>
<path d="M-280.5,539.8c0,1.2-1,2.2-2.2,2.2c-1.2,0-2.2-1-2.2-2.2s1-2.2,2.2-2.2C-281.4,537.6-280.5,538.6-280.5,539.8"/>
<path d="M-279.2,531.9c0,1.2-1,2.2-2.2,2.2c-1.2,0-2.2-1-2.2-2.2c0-1.2,1-2.2,2.2-2.2C-280.1,529.8-279.2,530.7-279.2,531.9"/>
<path d="M-282.6,536.1c0,1.2-1,2.2-2.2,2.2c-1.2,0-2.2-1-2.2-2.2s1-2.2,2.2-2.2C-283.6,533.9-282.6,534.9-282.6,536.1"/>
<path d="M-286.6,529.3c0,1.2-1,2.2-2.2,2.2c-1.2,0-2.2-1-2.2-2.2s1-2.2,2.2-2.2C-287.5,527.1-286.6,528.1-286.6,529.3"/>
<path d="M-282.6,533.6c0,1.2-1,2.2-2.2,2.2c-1.2,0-2.2-1-2.2-2.2s1-2.2,2.2-2.2C-283.6,531.4-282.6,532.4-282.6,533.6"/>
<path d="M-267.2,527.1c0,1.2-1,2.2-2.2,2.2c-1.2,0-2.2-1-2.2-2.2s1-2.2,2.2-2.2C-268.2,525-267.2,525.9-267.2,527.1"/>
<path d="M-269.7,531.5c0,1.2-1,2.2-2.2,2.2c-1.2,0-2.2-1-2.2-2.2s1-2.2,2.2-2.2C-270.6,529.3-269.7,530.3-269.7,531.5"/>
<path d="M-270,538.2c0,1.2-1,2.2-2.2,2.2c-1.2,0-2.2-1-2.2-2.2c0-1.2,1-2.2,2.2-2.2C-271,536.1-270,537-270,538.2"/>
<path d="M-287.6,256.7c0,1.2-1,2.2-2.2,2.2c-1.2,0-2.2-1-2.2-2.2c0-1.2,1-2.2,2.2-2.2C-288.6,254.6-287.6,255.5-287.6,256.7"/>
<path d="M-285.5,261.1c0,1.2-1,2.2-2.2,2.2c-1.2,0-2.2-1-2.2-2.2c0-1.2,1-2.2,2.2-2.2C-286.4,258.9-285.5,259.9-285.5,261.1"/>
<path d="M-283.3,255.4c0,1.2-1,2.2-2.2,2.2s-2.2-1-2.2-2.2c0-1.2,1-2.2,2.2-2.2C-284.3,253.3-283.3,254.2-283.3,255.4"/>
<path d="M-287.2,264.1c0,1.2-1,2.2-2.2,2.2c-1.2,0-2.2-1-2.2-2.2c0-1.2,1-2.2,2.2-2.2C-288.2,262-287.2,262.9-287.2,264.1"/>
<path d="M-278.3,258.5c-0.3,1.2-1.4,1.9-2.6,1.6c-1.2-0.3-1.9-1.4-1.6-2.6s1.4-1.9,2.6-1.6C-278.8,256.2-278.1,257.4-278.3,258.5"/>
<path d="M-282.9,268.3c0,1.2-1,2.2-2.2,2.2c-1.2,0-2.2-1-2.2-2.2s1-2.2,2.2-2.2C-283.8,266.1-282.9,267.1-282.9,268.3"/>
<path d="M-273.5,271.9c0,1.2-1,2.2-2.2,2.2c-1.2,0-2.2-1-2.2-2.2s1-2.2,2.2-2.2C-274.5,269.7-273.5,270.7-273.5,271.9"/>
<path d="M-279.2,268.3c0,1.2-1,2.2-2.2,2.2c-1.2,0-2.2-1-2.2-2.2s1-2.2,2.2-2.2C-280.1,266.1-279.2,267.1-279.2,268.3"/>
<path d="M-277,262.6c0,1.2-1,2.2-2.2,2.2c-1.2,0-2.2-1-2.2-2.2c0-1.2,1-2.2,2.2-2.2C-278,260.4-277,261.4-277,262.6"/>
<path d="M-276.2,255.2c-0.3,1.2-1.6,1.8-2.7,1.5c-1.2-0.3-1.8-1.6-1.5-2.7c0.3-1.2,1.6-1.8,2.7-1.5
	C-276.5,252.8-275.9,254-276.2,255.2"/>
<path d="M-274.4,259.8c0,1.2-1,2.2-2.2,2.2c-1.2,0-2.2-1-2.2-2.2s1-2.2,2.2-2.2C-275.3,257.6-274.4,258.6-274.4,259.8"/>
<path d="M-286.6,274.1c0,1.2-1,2.2-2.2,2.2c-1.2,0-2.2-1-2.2-2.2c0-1.2,1-2.2,2.2-2.2C-287.5,271.9-286.6,272.9-286.6,274.1"/>
<path d="M-273.9,266.7c0,1.2-1,2.2-2.2,2.2c-1.2,0-2.2-1-2.2-2.2s1-2.2,2.2-2.2C-274.9,264.6-273.9,265.5-273.9,266.7"/>
<path d="M-269.6,273.1c0,1.2-1,2.2-2.2,2.2c-1.2,0-2.2-1-2.2-2.2c0-1.2,1-2.2,2.2-2.2C-270.6,270.9-269.6,271.8-269.6,273.1"/>
<path d="M-281.3,274.1c0,1.2-1,2.2-2.2,2.2s-2.2-1-2.2-2.2c0-1.2,1-2.2,2.2-2.2C-282.3,272-281.3,272.9-281.3,274.1"/>
<path d="M-283.3,277.6c0,1.2-1,2.2-2.2,2.2s-2.2-1-2.2-2.2c0-1.2,1-2.2,2.2-2.2C-284.3,275.5-283.3,276.4-283.3,277.6"/>
<path d="M-285.7,281.5c0,1.2-1,2.2-2.2,2.2c-1.2,0-2.2-1-2.2-2.2c0-1.2,1-2.2,2.2-2.2C-286.7,279.4-285.7,280.3-285.7,281.5"/>
<path d="M-275.2,281.5c0,1.2-1,2.2-2.2,2.2c-1.2,0-2.2-1-2.2-2.2c0-1.2,1-2.2,2.2-2.2C-276.2,279.4-275.2,280.3-275.2,281.5"/>
<path d="M-279.6,284.1c0,1.2-1,2.2-2.2,2.2c-1.2,0-2.2-1-2.2-2.2c0-1.2,1-2.2,2.2-2.2C-280.6,282-279.6,282.9-279.6,284.1"/>
<path d="M-282.7,286.4c0,1.2-1,2.2-2.2,2.2c-1.2,0-2.2-1-2.2-2.2s1-2.2,2.2-2.2C-283.7,284.3-282.7,285.2-282.7,286.4"/>
<path d="M-270.2,277.2c0,1.2-1,2.2-2.2,2.2c-1.2,0-2.2-1-2.2-2.2s1-2.2,2.2-2.2C-271.2,275-270.2,276-270.2,277.2"/>
<path d="M-274.8,280.9c0,1.2-1,2.2-2.2,2.2s-2.2-1-2.2-2.2s1-2.2,2.2-2.2C-275.8,278.7-274.8,279.7-274.8,280.9"/>
<path d="M-273.5,276.3c0,1.2-1,2.2-2.2,2.2c-1.2,0-2.2-1-2.2-2.2s1-2.2,2.2-2.2C-274.5,274.1-273.5,275.1-273.5,276.3"/>
<path d="M-271.5,284.1c0,1.2-1,2.2-2.2,2.2c-1.2,0-2.2-1-2.2-2.2c0-1.2,1-2.2,2.2-2.2C-272.5,282-271.5,282.9-271.5,284.1"/>
<path d="M-272.4,262.6c0,1.2-1,2.2-2.2,2.2c-1.2,0-2.2-1-2.2-2.2c0-1.2,1-2.2,2.2-2.2C-273.4,260.4-272.4,261.4-272.4,262.6"/>
<path d="M-271.8,269.7c0,1.2-1,2.2-2.2,2.2s-2.2-1-2.2-2.2s1-2.2,2.2-2.2C-272.7,267.5-271.8,268.5-271.8,269.7"/>
<path d="M-281.3,271.5c0,1.2-1,2.2-2.2,2.2s-2.2-1-2.2-2.2c0-1.2,1-2.2,2.2-2.2C-282.3,269.4-281.3,270.3-281.3,271.5"/>
<path d="M-276.5,284.8c0,1.2-1,2.2-2.2,2.2c-1.2,0-2.2-1-2.2-2.2s1-2.2,2.2-2.2C-277.5,282.6-276.5,283.6-276.5,284.8"/>
<path d="M-277.6,288.9c0,1.2-1,2.2-2.2,2.2c-1.2,0-2.2-1-2.2-2.2s1-2.2,2.2-2.2C-278.6,286.8-277.6,287.7-277.6,288.9"/>
<path d="M-270,288.3c0,1.2-1,2.2-2.2,2.2c-1.2,0-2.2-1-2.2-2.2s1-2.2,2.2-2.2C-271,286.1-270,287.1-270,288.3"/>
<path d="M-275.5,292c0,1.2-1,2.2-2.2,2.2c-1.2,0-2.2-1-2.2-2.2c0-1.2,1-2.2,2.2-2.2C-276.4,289.8-275.5,290.8-275.5,292"/>
<path d="M-274.6,296.8c0,1.2-1,2.2-2.2,2.2c-1.2,0-2.2-1-2.2-2.2s1-2.2,2.2-2.2C-275.6,294.6-274.6,295.6-274.6,296.8"/>
<path d="M-282.7,301.3c0,1.2-1,2.2-2.2,2.2c-1.2,0-2.2-1-2.2-2.2s1-2.2,2.2-2.2C-283.7,299.2-282.7,300.1-282.7,301.3"/>
<path d="M-287.6,300.9c0,1.2-1,2.2-2.2,2.2c-1.2,0-2.2-1-2.2-2.2s1-2.2,2.2-2.2C-288.6,298.7-287.6,299.7-287.6,300.9"/>
<path d="M-271.1,299.2c0,1.2-1,2.2-2.2,2.2c-1.2,0-2.2-1-2.2-2.2s1-2.2,2.2-2.2C-272.1,297-271.1,298-271.1,299.2"/>
<path d="M-280.5,295.3c0,1.2-1,2.2-2.2,2.2c-1.2,0-2.2-1-2.2-2.2s1-2.2,2.2-2.2C-281.5,293.1-280.5,294.1-280.5,295.3"/>
<path d="M-272.2,302c0,1.2-1,2.2-2.2,2.2c-1.2,0-2.2-1-2.2-2.2c0-1.2,1-2.2,2.2-2.2C-273.2,299.8-272.2,300.8-272.2,302"/>
<path d="M-280.3,300.7c0.5-1.1,1.8-1.6,2.9-1.1s1.6,1.8,1.1,2.9s-1.8,1.6-2.9,1.1C-280.3,303.1-280.8,301.8-280.3,300.7"/>
<path d="M-278.3,298.1c0,1.2-1,2.2-2.2,2.2s-2.2-1-2.2-2.2c0-1.2,1-2.2,2.2-2.2S-278.3,296.9-278.3,298.1"/>
<path d="M-279.2,282c0,1.2-1,2.2-2.2,2.2c-1.2,0-2.2-1-2.2-2.2c0-1.2,1-2.2,2.2-2.2C-280.1,279.8-279.2,280.8-279.2,282"/>
<path d="M-284.6,292.6c0,1.2-1,2.2-2.2,2.2c-1.2,0-2.2-1-2.2-2.2c0-1.2,1-2.2,2.2-2.2C-285.6,290.5-284.6,291.4-284.6,292.6"/>
<path d="M-286.8,287.2c0,1.2-1,2.2-2.2,2.2s-2.2-1-2.2-2.2s1-2.2,2.2-2.2S-286.8,286-286.8,287.2"/>
<path d="M-282.2,291.1c0,1.2-1,2.2-2.2,2.2c-1.2,0-2.2-1-2.2-2.2c0-1.2,1-2.2,2.2-2.2C-283.2,288.9-282.2,289.9-282.2,291.1"/>
<path d="M-284.2,305.9c0,1.2-1,2.2-2.2,2.2c-1.2,0-2.2-1-2.2-2.2s1-2.2,2.2-2.2C-285.1,303.7-284.2,304.7-284.2,305.9"/>
<path d="M-276.8,313.3c0,1.2-1,2.2-2.2,2.2s-2.2-1-2.2-2.2s1-2.2,2.2-2.2C-277.7,311.1-276.8,312.1-276.8,313.3"/>
<path d="M-277.6,308.4c0,1.2-1,2.2-2.2,2.2c-1.2,0-2.2-1-2.2-2.2s1-2.2,2.2-2.2C-278.6,306.2-277.6,307.2-277.6,308.4"/>
<path d="M-274.2,309.3c0,1.2-1,2.2-2.2,2.2c-1.2,0-2.2-1-2.2-2.2s1-2.2,2.2-2.2C-275.1,307.1-274.2,308.1-274.2,309.3"/>
<path d="M-270.2,308.1c0,1.2-1,2.2-2.2,2.2c-1.2,0-2.2-1-2.2-2.2c0-1.2,1-2.2,2.2-2.2C-271.2,305.9-270.2,306.9-270.2,308.1"/>
<path d="M-270.7,295.5c0,1.2-1,2.2-2.2,2.2c-1.2,0-2.2-1-2.2-2.2c0-1.2,1-2.2,2.2-2.2C-271.6,293.3-270.7,294.3-270.7,295.5"/>
<path d="M-286.1,311.4c0,1.2-1,2.2-2.2,2.2c-1.2,0-2.2-1-2.2-2.2s1-2.2,2.2-2.2C-287.1,309.3-286.1,310.2-286.1,311.4"/>
<path d="M-281.1,317.9c0,1.2-1,2.2-2.2,2.2c-1.2,0-2.2-1-2.2-2.2s1-2.2,2.2-2.2C-282.1,315.7-281.1,316.7-281.1,317.9"/>
<path d="M-281.8,313.3c0,1.2-1,2.2-2.2,2.2s-2.2-1-2.2-2.2s1-2.2,2.2-2.2C-282.7,311.1-281.8,312.1-281.8,313.3"/>
<path d="M-286.1,317.9c0,1.2-1,2.2-2.2,2.2c-1.2,0-2.2-1-2.2-2.2s1-2.2,2.2-2.2C-287.1,315.7-286.1,316.7-286.1,317.9"/>
<path d="M-279.2,316.6c0,1.2-1,2.2-2.2,2.2c-1.2,0-2.2-1-2.2-2.2c0-1.2,1-2.2,2.2-2.2C-280.1,314.4-279.2,315.4-279.2,316.6"/>
<path d="M-284.6,322.2c0,1.2-1,2.2-2.2,2.2c-1.2,0-2.2-1-2.2-2.2s1-2.2,2.2-2.2C-285.6,320.1-284.6,321-284.6,322.2"/>
<path d="M-276.3,326.4c0,1.2-1,2.2-2.2,2.2s-2.2-1-2.2-2.2s1-2.2,2.2-2.2C-277.3,324.2-276.3,325.2-276.3,326.4"/>
<path d="M-280,322.4c0,1.2-1,2.2-2.2,2.2c-1.2,0-2.2-1-2.2-2.2s1-2.2,2.2-2.2C-281,320.3-280,321.2-280,322.4"/>
<path d="M-275.5,320.7c0,1.2-1,2.2-2.2,2.2c-1.2,0-2.2-1-2.2-2.2s1-2.2,2.2-2.2C-276.4,318.5-275.5,319.5-275.5,320.7"/>
<path d="M-269.4,316.8c0,1.2-1,2.2-2.2,2.2c-1.2,0-2.2-1-2.2-2.2s1-2.2,2.2-2.2C-270.3,314.6-269.4,315.6-269.4,316.8"/>
<path d="M-274.4,316.4c0,1.2-1,2.2-2.2,2.2c-1.2,0-2.2-1-2.2-2.2s1-2.2,2.2-2.2C-275.3,314.2-274.4,315.2-274.4,316.4"/>
<path d="M-284.8,330.7c0,1.2-1,2.2-2.2,2.2s-2.2-1-2.2-2.2s1-2.2,2.2-2.2S-284.8,329.5-284.8,330.7"/>
<path d="M-272.8,321.6c0,1.2-1,2.2-2.2,2.2s-2.2-1-2.2-2.2c0-1.2,1-2.2,2.2-2.2C-273.7,319.5-272.8,320.4-272.8,321.6"/>
<path d="M-271.1,330.5c0,1.2-1,2.2-2.2,2.2c-1.2,0-2.2-1-2.2-2.2c0-1.2,1-2.2,2.2-2.2C-272.1,328.3-271.1,329.3-271.1,330.5"/>
<path d="M-277.9,330.9c0,1.2-1,2.2-2.2,2.2c-1.2,0-2.2-1-2.2-2.2s1-2.2,2.2-2.2C-278.8,328.8-277.9,329.7-277.9,330.9"/>
<path d="M-280.2,332.9c0,1.2-1,2.2-2.2,2.2c-1.2,0-2.2-1-2.2-2.2s1-2.2,2.2-2.2C-281.2,330.7-280.2,331.7-280.2,332.9"/>
<path d="M-280.9,338.6c0,1.2-1,2.2-2.2,2.2c-1.2,0-2.2-1-2.2-2.2c0-1.2,1-2.2,2.2-2.2C-281.9,336.5-280.9,337.4-280.9,338.6"/>
<path d="M-277.6,340.4c0,1.2-1,2.2-2.2,2.2c-1.2,0-2.2-1-2.2-2.2s1-2.2,2.2-2.2C-278.6,338.2-277.6,339.2-277.6,340.4"/>
<path d="M-277,343.8c-0.6,1-1.9,1.4-3,0.8c-1-0.6-1.4-1.9-0.8-3c0.6-1.1,1.9-1.4,3-0.8C-276.8,341.5-276.5,342.8-277,343.8"/>
<path d="M-282.6,343.4c0,1.2-1,2.2-2.2,2.2c-1.2,0-2.2-1-2.2-2.2s1-2.2,2.2-2.2C-283.6,341.2-282.6,342.2-282.6,343.4"/>
<path d="M-268.9,334.9c0,1.2-1,2.2-2.2,2.2c-1.2,0-2.2-1-2.2-2.2s1-2.2,2.2-2.2C-269.9,332.7-268.9,333.7-268.9,334.9"/>
<path d="M-276.5,337.2c0,1.2-1,2.2-2.2,2.2c-1.2,0-2.2-1-2.2-2.2s1-2.2,2.2-2.2C-277.5,335.1-276.5,336-276.5,337.2"/>
<path d="M-274.9,333.5c0,1.2-1,2.2-2.2,2.2c-1.2,0-2.2-1-2.2-2.2c0-1.2,1-2.2,2.2-2.2C-275.9,331.4-274.9,332.3-274.9,333.5"/>
<path d="M-271.8,343.1c0,1.2-1,2.2-2.2,2.2s-2.2-1-2.2-2.2c0-1.2,1-2.2,2.2-2.2C-272.7,340.9-271.8,341.9-271.8,343.1"/>
<path d="M-268.5,322.2c0,1.2-1,2.2-2.2,2.2c-1.2,0-2.2-1-2.2-2.2s1-2.2,2.2-2.2C-269.5,320.1-268.5,321-268.5,322.2"/>
<path d="M-271.3,326.4c0,1.2-1,2.2-2.2,2.2s-2.2-1-2.2-2.2s1-2.2,2.2-2.2C-272.3,324.2-271.3,325.2-271.3,326.4"/>
<path d="M-281.1,326.8c0,1.2-1,2.2-2.2,2.2c-1.2,0-2.2-1-2.2-2.2s1-2.2,2.2-2.2C-282.1,324.6-281.1,325.6-281.1,326.8"/>
<path d="M-284.8,337.2c0,1.2-1,2.2-2.2,2.2s-2.2-1-2.2-2.2s1-2.2,2.2-2.2C-285.8,335.1-284.8,336-284.8,337.2"/>
<path d="M-276.3,348.1c0,1.2-1,2.2-2.2,2.2s-2.2-1-2.2-2.2c0-1.2,1-2.2,2.2-2.2S-276.3,346.9-276.3,348.1"/>
<path d="M-266.8,347.5c0,1.2-1,2.2-2.2,2.2s-2.2-1-2.2-2.2c0-1.2,1-2.2,2.2-2.2C-267.7,345.3-266.8,346.3-266.8,347.5"/>
<path d="M-271.3,347.2c0,1.2-1,2.2-2.2,2.2s-2.2-1-2.2-2.2s1-2.2,2.2-2.2C-272.3,345.1-271.3,346-271.3,347.2"/>
<path d="M-276.6,352.3c0,1.2-1,2.2-2.2,2.2c-1.2,0-2.2-1-2.2-2.2s1-2.2,2.2-2.2C-277.5,350.1-276.6,351.1-276.6,352.3"/>
<path d="M-270.7,338.2c0,1.2-1,2.2-2.2,2.2c-1.2,0-2.2-1-2.2-2.2s1-2.2,2.2-2.2C-271.6,336.1-270.7,337-270.7,338.2"/>
<path d="M-280.9,353.8c0,1.2-1,2.2-2.2,2.2c-1.2,0-2.2-1-2.2-2.2s1-2.2,2.2-2.2C-281.9,351.6-280.9,352.6-280.9,353.8"/>
<path d="M-280,349.6c0,1.2-1,2.2-2.2,2.2c-1.2,0-2.2-1-2.2-2.2c0-1.2,1-2.2,2.2-2.2C-281,347.5-280,348.4-280,349.6"/>
<path d="M-285.7,350.7c0,1.2-1,2.2-2.2,2.2c-1.2,0-2.2-1-2.2-2.2s1-2.2,2.2-2.2C-286.7,348.6-285.7,349.5-285.7,350.7"/>
<path d="M-287,343.8c0,1.2-1,2.2-2.2,2.2c-1.2,0-2.2-1-2.2-2.2s1-2.2,2.2-2.2C-288,341.6-287,342.6-287,343.8"/>
<path d="M-283.1,348.1c0,1.2-1,2.2-2.2,2.2c-1.2,0-2.2-1-2.2-2.2c0-1.2,1-2.2,2.2-2.2C-284.1,345.9-283.1,346.9-283.1,348.1"/>
<path d="M-268.5,341.2c0,1.2-1,2.2-2.2,2.2c-1.2,0-2.2-1-2.2-2.2s1-2.2,2.2-2.2C-269.5,339-268.5,340-268.5,341.2"/>
<path d="M-268.9,344.4c0,1.2-1,2.2-2.2,2.2c-1.2,0-2.2-1-2.2-2.2s1-2.2,2.2-2.2C-269.9,342.2-268.9,343.2-268.9,344.4"/>
<path d="M-270.7,353.3c0,1.2-1,2.2-2.2,2.2c-1.2,0-2.2-1-2.2-2.2s1-2.2,2.2-2.2C-271.6,351.2-270.7,352.1-270.7,353.3"/>
<path d="M-286.6,354.9c0,1.2-1,2.2-2.2,2.2c-1.2,0-2.2-1-2.2-2.2s1-2.2,2.2-2.2C-287.5,352.7-286.6,353.7-286.6,354.9"/>
<path d="M-284.2,361c0.6,1,0.2,2.4-0.8,3c-1,0.6-2.4,0.2-3-0.8s-0.2-2.4,0.8-3S-284.8,360-284.2,361"/>
<path d="M-278.3,357c0,1.2-1,2.2-2.2,2.2s-2.2-1-2.2-2.2c0-1.2,1-2.2,2.2-2.2C-279.3,354.9-278.3,355.8-278.3,357"/>
<path d="M-287,360.8c0,1.2-1,2.2-2.2,2.2c-1.2,0-2.2-1-2.2-2.2s1-2.2,2.2-2.2C-288,358.6-287,359.6-287,360.8"/>
<path d="M-277.9,361.3c0,1.2-1,2.2-2.2,2.2c-1.2,0-2.2-1-2.2-2.2s1-2.2,2.2-2.2C-278.8,359.1-277.9,360.1-277.9,361.3"/>
<path d="M-284.4,368.9c0,1.2-1,2.2-2.2,2.2c-1.2,0-2.2-1-2.2-2.2s1-2.2,2.2-2.2C-285.4,366.7-284.4,367.7-284.4,368.9"/>
<path d="M-277.2,370.4c0,1.2-1,2.2-2.2,2.2c-1.2,0-2.2-1-2.2-2.2s1-2.2,2.2-2.2C-278.2,368.2-277.2,369.2-277.2,370.4"/>
<path d="M-281.8,365.8c0,1.2-1,2.2-2.2,2.2s-2.2-1-2.2-2.2c0-1.2,1-2.2,2.2-2.2C-282.7,363.7-281.8,364.6-281.8,365.8"/>
<path d="M-274.6,362.3c0,1.2-1,2.2-2.2,2.2c-1.2,0-2.2-1-2.2-2.2s1-2.2,2.2-2.2C-275.6,360.2-274.6,361.1-274.6,362.3"/>
<path d="M-268.1,356.5c0,1.2-1,2.2-2.2,2.2c-1.2,0-2.2-1-2.2-2.2c0-1.2,1-2.2,2.2-2.2C-269,354.3-268.1,355.3-268.1,356.5"/>
<path d="M-274.2,356.9c0,1.2-1,2.2-2.2,2.2c-1.2,0-2.2-1-2.2-2.2s1-2.2,2.2-2.2C-275.2,354.7-274.2,355.7-274.2,356.9"/>
<path d="M-285.5,374.7c0,1.2-1,2.2-2.2,2.2c-1.2,0-2.2-1-2.2-2.2s1-2.2,2.2-2.2C-286.4,372.6-285.5,373.5-285.5,374.7"/>
<path d="M-274.8,366.9c0,1.2-1,2.2-2.2,2.2s-2.2-1-2.2-2.2c0-1.2,1-2.2,2.2-2.2C-275.8,364.7-274.8,365.7-274.8,366.9"/>
<path d="M-269.6,375.2c0,1.2-1,2.2-2.2,2.2c-1.2,0-2.2-1-2.2-2.2s1-2.2,2.2-2.2C-270.6,373-269.6,374-269.6,375.2"/>
<path d="M-276.5,374.5c0,1.2-1,2.2-2.2,2.2c-1.2,0-2.2-1-2.2-2.2s1-2.2,2.2-2.2C-277.5,372.4-276.5,373.3-276.5,374.5"/>
<path d="M-282.6,377.9c0,1.2-1,2.2-2.2,2.2c-1.2,0-2.2-1-2.2-2.2s1-2.2,2.2-2.2C-283.6,375.7-282.6,376.7-282.6,377.9"/>
<path d="M-280.9,382.2c0,1.2-1,2.2-2.2,2.2c-1.2,0-2.2-1-2.2-2.2s1-2.2,2.2-2.2C-281.9,380.1-280.9,381-280.9,382.2"/>
<path d="M-275.2,382.6c0,1.2-1,2.2-2.2,2.2c-1.2,0-2.2-1-2.2-2.2s1-2.2,2.2-2.2C-276.2,380.4-275.2,381.4-275.2,382.6"/>
<path d="M-282.4,385.2c0,1.2-1,2.2-2.2,2.2c-1.2,0-2.2-1-2.2-2.2s1-2.2,2.2-2.2C-283.4,383-282.4,384-282.4,385.2"/>
<path d="M-282.6,388.9c0,1.2-1,2.2-2.2,2.2c-1.2,0-2.2-1-2.2-2.2s1-2.2,2.2-2.2C-283.6,386.7-282.6,387.7-282.6,388.9"/>
<path d="M-270.2,379.3c0,1.2-1,2.2-2.2,2.2c-1.2,0-2.2-1-2.2-2.2s1-2.2,2.2-2.2C-271.2,377.1-270.2,378.1-270.2,379.3"/>
<path d="M-274.8,381.9c0,1.2-1,2.2-2.2,2.2s-2.2-1-2.2-2.2s1-2.2,2.2-2.2C-275.8,379.8-274.8,380.7-274.8,381.9"/>
<path d="M-273.3,377.4c0,1.2-1,2.2-2.2,2.2s-2.2-1-2.2-2.2s1-2.2,2.2-2.2S-273.3,376.2-273.3,377.4"/>
<path d="M-271.3,386.4c0,1.2-1,2.2-2.2,2.2s-2.2-1-2.2-2.2s1-2.2,2.2-2.2S-271.3,385.2-271.3,386.4"/>
<path d="M-268.9,363c0,1.2-1,2.2-2.2,2.2c-1.2,0-2.2-1-2.2-2.2c0-1.2,1-2.2,2.2-2.2C-269.9,360.8-268.9,361.8-268.9,363"/>
<path d="M-271.1,371.1c0,1.2-1,2.2-2.2,2.2c-1.2,0-2.2-1-2.2-2.2s1-2.2,2.2-2.2C-272.1,368.9-271.1,369.8-271.1,371.1"/>
<path d="M-280.7,370.4c0,1.2-1,2.2-2.2,2.2c-1.2,0-2.2-1-2.2-2.2s1-2.2,2.2-2.2C-281.7,368.2-280.7,369.2-280.7,370.4"/>
<path d="M-276.4,385.6c0,1.2-1,2.2-2.2,2.2c-1.2,0-2.2-1-2.2-2.2s1-2.2,2.2-2.2C-277.4,383.4-276.4,384.4-276.4,385.6"/>
<path d="M-274.4,388.5c0,1.2-1,2.2-2.2,2.2c-1.2,0-2.2-1-2.2-2.2s1-2.2,2.2-2.2C-275.3,386.4-274.4,387.3-274.4,388.5"/>
<path d="M-266.8,390.7c0,1.2-1,2.2-2.2,2.2s-2.2-1-2.2-2.2s1-2.2,2.2-2.2C-267.7,388.5-266.8,389.5-266.8,390.7"/>
<path d="M-273.9,393c0,1.2-1,2.2-2.2,2.2c-1.2,0-2.2-1-2.2-2.2s1-2.2,2.2-2.2C-274.9,390.9-273.9,391.8-273.9,393"/>
<path d="M-276.8,395.2c0,1.2-1,2.2-2.2,2.2s-2.2-1-2.2-2.2s1-2.2,2.2-2.2C-277.7,393-276.8,394-276.8,395.2"/>
<path d="M-271.8,381.5c0,1.2-1,2.2-2.2,2.2s-2.2-1-2.2-2.2s1-2.2,2.2-2.2C-272.7,379.3-271.8,380.3-271.8,381.5"/>
<path d="M-280.5,397.8c0,1.2-1,2.2-2.2,2.2c-1.2,0-2.2-1-2.2-2.2s1-2.2,2.2-2.2C-281.4,395.6-280.5,396.6-280.5,397.8"/>
<path d="M-279.2,390c0,1.2-1,2.2-2.2,2.2c-1.2,0-2.2-1-2.2-2.2s1-2.2,2.2-2.2C-280.1,387.8-279.2,388.8-279.2,390"/>
<path d="M-282.6,394.1c0,1.2-1,2.2-2.2,2.2c-1.2,0-2.2-1-2.2-2.2s1-2.2,2.2-2.2C-283.6,391.9-282.6,392.9-282.6,394.1"/>
<path d="M-286.6,387.4c0,1.2-1,2.2-2.2,2.2c-1.2,0-2.2-1-2.2-2.2s1-2.2,2.2-2.2C-287.5,385.2-286.6,386.2-286.6,387.4"/>
<path d="M-282.6,391.7c0,1.2-1,2.2-2.2,2.2c-1.2,0-2.2-1-2.2-2.2s1-2.2,2.2-2.2C-283.6,389.5-282.6,390.5-282.6,391.7"/>
<path d="M-267.2,385.2c0,1.2-1,2.2-2.2,2.2c-1.2,0-2.2-1-2.2-2.2s1-2.2,2.2-2.2C-268.2,383-267.2,384-267.2,385.2"/>
<path d="M-269.7,389.5c0,1.2-1,2.2-2.2,2.2c-1.2,0-2.2-1-2.2-2.2s1-2.2,2.2-2.2C-270.6,387.4-269.7,388.3-269.7,389.5"/>
<path d="M-270,396.3c0,1.2-1,2.2-2.2,2.2c-1.2,0-2.2-1-2.2-2.2s1-2.2,2.2-2.2C-271,394.1-270,395.1-270,396.3"/>
<path d="M-287.6,115.7c0,1.2-1,2.2-2.2,2.2c-1.2-0.1-2.2-1-2.2-2.2c0-1.2,1-2.2,2.2-2.2C-288.6,113.5-287.6,114.5-287.6,115.7"/>
<path d="M-285.5,120c0,1.2-1,2.2-2.2,2.2c-1.2,0-2.2-1-2.2-2.2c0-1.2,1-2.2,2.2-2.2C-286.4,117.8-285.5,118.8-285.5,120"/>
<path d="M-283.3,114.3c0,1.2-1,2.2-2.2,2.2s-2.2-1-2.2-2.2s1-2.2,2.2-2.2C-284.3,112.2-283.3,113.1-283.3,114.3"/>
<path d="M-287.2,123.1c0,1.2-1,2.2-2.2,2.2c-1.2,0-2.2-1-2.2-2.2c0-1.2,1-2.2,2.2-2.2C-288.2,120.9-287.2,121.8-287.2,123.1"/>
<path d="M-278.3,117.5c-0.3,1.2-1.4,1.9-2.6,1.6c-1.2-0.3-2-1.5-1.7-2.6c0.3-1.2,1.5-1.9,2.6-1.7
	C-278.8,115.1-278.1,116.3-278.3,117.5"/>
<path d="M-282.9,127.2c0,1.2-1,2.2-2.2,2.2c-1.2,0-2.2-1-2.2-2.2s1-2.2,2.2-2.2C-283.8,125-282.9,126-282.9,127.2"/>
<path d="M-273.5,130.8c0,1.2-1,2.2-2.2,2.2c-1.2,0-2.2-1-2.2-2.2s1-2.2,2.2-2.2C-274.5,128.6-273.5,129.6-273.5,130.8"/>
<path d="M-279.2,127.2c0,1.2-1,2.2-2.2,2.2c-1.2,0-2.2-1-2.2-2.2s1-2.2,2.2-2.2C-280.1,125-279.2,126-279.2,127.2"/>
<path d="M-277,121.5c0,1.2-1,2.2-2.2,2.2c-1.2,0-2.2-1-2.2-2.2c0-1.2,1-2.2,2.2-2.2C-278,119.4-277,120.3-277,121.5"/>
<path d="M-276.2,114.1c-0.3,1.2-1.6,1.8-2.7,1.5c-1.2-0.3-1.8-1.6-1.5-2.7c0.3-1.2,1.6-1.8,2.7-1.5
	C-276.5,111.7-275.9,112.9-276.2,114.1"/>
<path d="M-274.4,118.7c0,1.2-1,2.2-2.2,2.2c-1.2,0-2.2-1-2.2-2.2c0-1.2,1-2.2,2.2-2.2C-275.3,116.5-274.4,117.5-274.4,118.7"/>
<path d="M-286.6,133c0,1.2-1,2.2-2.2,2.2c-1.2,0-2.2-1-2.2-2.2s1-2.2,2.2-2.2C-287.5,130.8-286.6,131.8-286.6,133"/>
<path d="M-273.9,125.7c0,1.2-1,2.2-2.2,2.2c-1.2,0-2.2-1-2.2-2.2c0-1.2,1-2.2,2.2-2.2C-274.9,123.5-273.9,124.5-273.9,125.7"/>
<path d="M-269.6,132c0,1.2-1,2.2-2.2,2.2c-1.2,0-2.2-1-2.2-2.2s1-2.2,2.2-2.2C-270.6,129.8-269.6,130.8-269.6,132"/>
<path d="M-281.3,133.1c0,1.2-1,2.2-2.2,2.2s-2.2-1-2.2-2.2s1-2.2,2.2-2.2S-281.3,131.9-281.3,133.1"/>
<path d="M-283.3,136.6c0,1.2-1,2.2-2.2,2.2s-2.2-1-2.2-2.2s1-2.2,2.2-2.2S-283.3,135.3-283.3,136.6"/>
<path d="M-285.7,140.5c0,1.2-1,2.2-2.2,2.2c-1.2,0-2.2-1-2.2-2.2c0.1-1.2,1-2.2,2.2-2.2C-286.7,138.3-285.7,139.3-285.7,140.5"/>
<path d="M-275.2,140.5c0,1.2-1,2.2-2.2,2.2c-1.2,0-2.2-1-2.2-2.2s1-2.2,2.2-2.2C-276.2,138.3-275.2,139.3-275.2,140.5"/>
<path d="M-279.6,143.1c0,1.2-1,2.2-2.2,2.2c-1.2,0-2.2-1-2.2-2.2s1-2.2,2.2-2.2C-280.6,140.9-279.6,141.9-279.6,143.1"/>
<path d="M-282.7,145.4c0,1.2-1,2.2-2.2,2.2c-1.2,0-2.2-1-2.2-2.2c0-1.2,1-2.2,2.2-2.2C-283.7,143.2-282.7,144.2-282.7,145.4"/>
<path d="M-270.2,136.1c0,1.2-1,2.2-2.2,2.2c-1.2,0-2.2-1-2.2-2.2s1-2.2,2.2-2.2C-271.2,133.9-270.2,134.9-270.2,136.1"/>
<path d="M-274.8,139.8c0,1.2-1,2.2-2.2,2.2s-2.2-1-2.2-2.2s1-2.2,2.2-2.2S-274.8,138.6-274.8,139.8"/>
<path d="M-273.5,135.2c0,1.2-1,2.2-2.2,2.2c-1.2,0-2.2-1-2.2-2.2c0-1.2,1-2.2,2.2-2.2C-274.5,133.1-273.5,134-273.5,135.2"/>
<path d="M-271.5,143.1c0,1.2-1,2.2-2.2,2.2c-1.2,0-2.2-1-2.2-2.2s1-2.2,2.2-2.2C-272.5,140.9-271.5,141.9-271.5,143.1"/>
<path d="M-272.4,121.5c0,1.2-1,2.2-2.2,2.2c-1.2,0-2.2-1-2.2-2.2c0-1.2,1-2.2,2.2-2.2C-273.4,119.3-272.4,120.3-272.4,121.5"/>
<path d="M-271.8,128.6c0,1.2-1,2.2-2.2,2.2s-2.2-1-2.2-2.2c0-1.2,1-2.2,2.2-2.2C-272.7,126.4-271.8,127.4-271.8,128.6"/>
<path d="M-281.3,130.4c0,1.2-1,2.2-2.2,2.2s-2.2-1-2.2-2.2c0-1.2,1-2.2,2.2-2.2C-282.3,128.3-281.3,129.2-281.3,130.4"/>
<path d="M-276.5,143.7c0,1.2-1,2.2-2.2,2.2c-1.2,0-2.2-1-2.2-2.2c0-1.2,1-2.2,2.2-2.2C-277.5,141.5-276.5,142.5-276.5,143.7"/>
<path d="M-277.6,147.9c0,1.2-1,2.2-2.2,2.2c-1.2,0-2.2-1-2.2-2.2c0-1.2,1-2.2,2.2-2.2C-278.6,145.7-277.6,146.7-277.6,147.9"/>
<path d="M-270,147.2c0,1.2-1,2.2-2.2,2.2c-1.2,0-2.2-1-2.2-2.2c0-1.2,1-2.2,2.2-2.2C-271,145-270,146-270,147.2"/>
<path d="M-275.5,150.9c0,1.2-1,2.2-2.2,2.2c-1.2,0-2.2-1-2.2-2.2c0-1.2,1-2.2,2.2-2.2C-276.4,148.7-275.5,149.7-275.5,150.9"/>
<path d="M-274.6,155.7c0,1.2-1,2.2-2.2,2.2c-1.2,0-2.2-1-2.2-2.2c0-1.2,1-2.2,2.2-2.2C-275.6,153.5-274.6,154.5-274.6,155.7"/>
<path d="M-282.7,160.3c0,1.2-1,2.2-2.2,2.2c-1.2,0-2.2-1-2.2-2.2s1-2.2,2.2-2.2C-283.7,158.1-282.7,159.1-282.7,160.3"/>
<path d="M-287.6,159.8c0,1.2-1,2.2-2.2,2.2c-1.2,0-2.2-1-2.2-2.2s1-2.2,2.2-2.2C-288.6,157.7-287.6,158.6-287.6,159.8"/>
<path d="M-271.1,158.1c0,1.2-1,2.2-2.2,2.2c-1.2,0-2.2-1-2.2-2.2s1-2.2,2.2-2.2C-272.1,155.9-271.1,156.9-271.1,158.1"/>
<path d="M-280.5,154.2c0,1.2-1,2.2-2.2,2.2c-1.2,0-2.2-1-2.2-2.2c0-1.2,1-2.2,2.2-2.2C-281.5,152-280.5,153-280.5,154.2"/>
<path d="M-272.2,160.9c0,1.2-1,2.2-2.2,2.2c-1.2,0-2.2-1-2.2-2.2c0-1.2,1-2.2,2.2-2.2C-273.2,158.7-272.2,159.7-272.2,160.9"/>
<path d="M-280.3,159.6c0.5-1.1,1.8-1.6,2.9-1.1s1.6,1.8,1.1,2.9c-0.5,1.1-1.8,1.6-2.9,1.1C-280.3,162-280.8,160.7-280.3,159.6"/>
<path d="M-278.3,157c0,1.2-1,2.2-2.2,2.2s-2.2-1-2.2-2.2s1-2.2,2.2-2.2S-278.3,155.8-278.3,157"/>
<path d="M-279.2,140.9c0,1.2-1,2.2-2.2,2.2c-1.2,0-2.2-1-2.2-2.2c0-1.2,1-2.2,2.2-2.2C-280.1,138.7-279.2,139.7-279.2,140.9"/>
<path d="M-284.6,151.6c0,1.2-1,2.2-2.2,2.2c-1.2,0-2.2-1-2.2-2.2s1-2.2,2.2-2.2C-285.6,149.4-284.6,150.4-284.6,151.6"/>
<path d="M-286.8,146.1c0,1.2-1,2.2-2.2,2.2s-2.2-1-2.2-2.2s1-2.2,2.2-2.2S-286.8,144.9-286.8,146.1"/>
<path d="M-282.2,150c0,1.2-1,2.2-2.2,2.2c-1.2,0-2.2-1-2.2-2.2s1-2.2,2.2-2.2C-283.2,147.9-282.2,148.8-282.2,150"/>
<path d="M-284.2,164.8c0,1.2-1,2.2-2.2,2.2c-1.2,0-2.2-1-2.2-2.2s1-2.2,2.2-2.2C-285.1,162.6-284.2,163.6-284.2,164.8"/>
<path d="M-276.8,172.2c0,1.2-1,2.2-2.2,2.2s-2.2-1-2.2-2.2c0-1.2,1-2.2,2.2-2.2C-277.7,170.1-276.8,171-276.8,172.2"/>
<path d="M-277.6,167.3c0,1.2-1,2.2-2.2,2.2c-1.2,0-2.2-1-2.2-2.2s1-2.2,2.2-2.2C-278.6,165.1-277.6,166.1-277.6,167.3"/>
<path d="M-274.2,168.2c0,1.2-1,2.2-2.2,2.2c-1.2,0-2.2-1-2.2-2.2c0-1.2,1-2.2,2.2-2.2C-275.1,166-274.2,167-274.2,168.2"/>
<path d="M-270.2,167c0,1.2-1,2.2-2.2,2.2c-1.2,0-2.2-1-2.2-2.2s1-2.2,2.2-2.2C-271.2,164.8-270.2,165.8-270.2,167"/>
<path d="M-270.7,154.4c0,1.2-1,2.2-2.2,2.2c-1.2,0-2.2-1-2.2-2.2c0-1.2,1-2.2,2.2-2.2C-271.6,152.2-270.7,153.2-270.7,154.4"/>
<path d="M-286.1,170.4c0,1.2-1,2.2-2.2,2.2c-1.2,0-2.2-1-2.2-2.2c0-1.2,1-2.2,2.2-2.2C-287.1,168.2-286.1,169.2-286.1,170.4"/>
<path d="M-281.1,176.8c0,1.2-1,2.2-2.2,2.2c-1.2,0-2.2-1-2.2-2.2s1-2.2,2.2-2.2C-282.1,174.6-281.1,175.6-281.1,176.8"/>
<path d="M-281.8,172.2c0,1.2-1,2.2-2.2,2.2s-2.2-1-2.2-2.2c0-1.2,1-2.2,2.2-2.2C-282.7,170-281.8,171-281.8,172.2"/>
<path d="M-286.1,176.8c0,1.2-1,2.2-2.2,2.2c-1.2,0-2.2-1-2.2-2.2s1-2.2,2.2-2.2C-287.1,174.6-286.1,175.6-286.1,176.8"/>
<path d="M-279.2,175.5c0,1.2-1,2.2-2.2,2.2c-1.2,0-2.2-1-2.2-2.2s1-2.2,2.2-2.2C-280.1,173.3-279.2,174.3-279.2,175.5"/>
<path d="M-284.6,181.2c0,1.2-1,2.2-2.2,2.2c-1.2-0.1-2.2-1-2.2-2.2c0-1.2,1-2.2,2.2-2.2C-285.6,179-284.6,179.9-284.6,181.2"/>
<path d="M-276.3,185.3c0,1.2-1,2.2-2.2,2.2s-2.2-1-2.2-2.2s1-2.2,2.2-2.2S-276.3,184.1-276.3,185.3"/>
<path d="M-280,181.4c0,1.2-1,2.2-2.2,2.2c-1.2,0-2.2-1-2.2-2.2c0-1.2,1-2.2,2.2-2.2C-281,179.2-280,180.2-280,181.4"/>
<path d="M-275.5,179.6c0,1.2-1,2.2-2.2,2.2c-1.2,0-2.2-1-2.2-2.2s1-2.2,2.2-2.2C-276.4,177.4-275.5,178.4-275.5,179.6"/>
<path d="M-269.4,175.7c0,1.2-1,2.2-2.2,2.2c-1.2,0-2.2-1-2.2-2.2c0-1.2,1-2.2,2.2-2.2C-270.3,173.5-269.4,174.5-269.4,175.7"/>
<path d="M-274.4,175.3c0,1.2-1,2.2-2.2,2.2c-1.2,0-2.2-1-2.2-2.2c0-1.2,1-2.2,2.2-2.2C-275.3,173.1-274.4,174.1-274.4,175.3"/>
<path d="M-284.8,189.6c0,1.2-1,2.2-2.2,2.2s-2.2-1-2.2-2.2s1-2.2,2.2-2.2C-285.8,187.5-284.8,188.4-284.8,189.6"/>
<path d="M-272.8,180.6c0,1.2-1,2.2-2.2,2.2s-2.2-1-2.2-2.2s1-2.2,2.2-2.2C-273.7,178.4-272.8,179.4-272.8,180.6"/>
<path d="M-271.1,189.4c0,1.2-1,2.2-2.2,2.2c-1.2,0-2.2-1-2.2-2.2c0-1.2,1-2.2,2.2-2.2C-272.1,187.2-271.1,188.2-271.1,189.4"/>
<path d="M-277.9,189.8c0,1.2-1,2.2-2.2,2.2c-1.2,0-2.2-1-2.2-2.2s1-2.2,2.2-2.2C-278.8,187.7-277.9,188.6-277.9,189.8"/>
<path d="M-280.2,191.8c0,1.2-1,2.2-2.2,2.2c-1.2,0-2.2-1-2.2-2.2s1-2.2,2.2-2.2C-281.2,189.6-280.2,190.6-280.2,191.8"/>
<path d="M-280.9,197.5c0,1.2-1,2.2-2.2,2.2c-1.2,0-2.2-1-2.2-2.2s1-2.2,2.2-2.2C-281.9,195.4-280.9,196.3-280.9,197.5"/>
<path d="M-277.6,199.3c0,1.2-1,2.2-2.2,2.2c-1.2,0-2.2-1-2.2-2.2s1-2.2,2.2-2.2C-278.6,197.1-277.6,198.1-277.6,199.3"/>
<path d="M-277,202.8c-0.6,1-1.9,1.4-3,0.8c-1-0.6-1.4-1.9-0.8-3c0.6-1.1,1.9-1.4,3-0.8C-276.8,200.4-276.5,201.7-277,202.8"/>
<path d="M-282.6,202.3c0,1.2-1,2.2-2.2,2.2c-1.2,0-2.2-1-2.2-2.2s1-2.2,2.2-2.2C-283.6,200.2-282.6,201.1-282.6,202.3"/>
<path d="M-268.9,193.8c0,1.2-1,2.2-2.2,2.2c-1.2,0-2.2-1-2.2-2.2s1-2.2,2.2-2.2C-269.9,191.6-268.9,192.6-268.9,193.8"/>
<path d="M-276.5,196.2c0,1.2-1,2.2-2.2,2.2c-1.2,0-2.2-1-2.2-2.2c0-1.2,1-2.2,2.2-2.2C-277.5,194-276.5,195-276.5,196.2"/>
<path d="M-274.9,192.5c0,1.2-1,2.2-2.2,2.2c-1.2,0-2.2-1-2.2-2.2s1-2.2,2.2-2.2C-275.9,190.3-274.9,191.3-274.9,192.5"/>
<path d="M-271.8,202c0,1.2-1,2.2-2.2,2.2s-2.2-1-2.2-2.2s1-2.2,2.2-2.2C-272.7,199.9-271.8,200.8-271.8,202"/>
<path d="M-268.5,181.1c0,1.2-1,2.2-2.2,2.2c-1.2,0-2.2-1-2.2-2.2s1-2.2,2.2-2.2C-269.5,179-268.5,179.9-268.5,181.1"/>
<path d="M-271.3,185.3c0,1.2-1,2.2-2.2,2.2s-2.2-1-2.2-2.2s1-2.2,2.2-2.2S-271.3,184.1-271.3,185.3"/>
<path d="M-281.1,185.7c0,1.2-1,2.2-2.2,2.2c-1.2,0-2.2-1-2.2-2.2c0-1.2,1-2.2,2.2-2.2C-282.1,183.5-281.1,184.5-281.1,185.7"/>
<path d="M-284.8,196.2c0,1.2-1,2.2-2.2,2.2s-2.2-1-2.2-2.2c0-1.2,1-2.2,2.2-2.2C-285.8,194-284.8,195-284.8,196.2"/>
<path d="M-276.3,207c0,1.2-1,2.2-2.2,2.2s-2.2-1-2.2-2.2s1-2.2,2.2-2.2C-277.3,204.9-276.3,205.8-276.3,207"/>
<path d="M-266.8,206.4c0,1.2-1,2.2-2.2,2.2s-2.2-1-2.2-2.2c0-1.2,1-2.2,2.2-2.2C-267.7,204.2-266.8,205.2-266.8,206.4"/>
<path d="M-271.3,206.2c0,1.2-1,2.2-2.2,2.2s-2.2-1-2.2-2.2c0-1.2,1-2.2,2.2-2.2C-272.3,204-271.3,205-271.3,206.2"/>
<path d="M-276.6,211.2c0,1.2-1,2.2-2.2,2.2c-1.2,0-2.2-1-2.2-2.2c0-1.2,1-2.2,2.2-2.2C-277.5,209-276.6,210-276.6,211.2"/>
<path d="M-270.7,197.1c0,1.2-1,2.2-2.2,2.2c-1.2,0-2.2-1-2.2-2.2s1-2.2,2.2-2.2C-271.6,195-270.7,195.9-270.7,197.1"/>
<path d="M-280.9,212.7c0,1.2-1,2.2-2.2,2.2c-1.2,0-2.2-1-2.2-2.2c0-1.2,1-2.2,2.2-2.2C-281.9,210.5-280.9,211.5-280.9,212.7"/>
<path d="M-280,208.6c0,1.2-1,2.2-2.2,2.2c-1.2,0-2.2-1-2.2-2.2s1-2.2,2.2-2.2C-281,206.4-280,207.4-280,208.6"/>
<path d="M-285.7,209.7c0,1.2-1,2.2-2.2,2.2c-1.2,0-2.2-1-2.2-2.2c0-1.2,1-2.2,2.2-2.2C-286.7,207.5-285.7,208.5-285.7,209.7"/>
<path d="M-287,202.7c0,1.2-1,2.2-2.2,2.2c-1.2,0-2.2-1-2.2-2.2c0-1.2,1-2.2,2.2-2.2C-288,200.5-287,201.5-287,202.7"/>
<path d="M-283.1,207c0,1.2-1,2.2-2.2,2.2c-1.2,0-2.2-1-2.2-2.2s1-2.2,2.2-2.2C-284.1,204.9-283.1,205.8-283.1,207"/>
<path d="M-268.5,200.1c0,1.2-1,2.2-2.2,2.2c-1.2,0-2.2-1-2.2-2.2s1-2.2,2.2-2.2C-269.5,197.9-268.5,198.9-268.5,200.1"/>
<path d="M-268.9,203.3c0,1.2-1,2.2-2.2,2.2c-1.2,0-2.2-1-2.2-2.2s1-2.2,2.2-2.2C-269.9,201.2-268.9,202.1-268.9,203.3"/>
<path d="M-270.7,212.3c0,1.2-1,2.2-2.2,2.2c-1.2,0-2.2-1-2.2-2.2s1-2.2,2.2-2.2C-271.6,210.1-270.7,211.1-270.7,212.3"/>
<path d="M-286.6,213.8c0,1.2-1,2.2-2.2,2.2c-1.2,0-2.2-1-2.2-2.2s1-2.2,2.2-2.2C-287.5,211.6-286.6,212.6-286.6,213.8"/>
<path d="M-284.2,220c0.6,1,0.2,2.4-0.8,3s-2.4,0.2-3-0.8s-0.2-2.4,0.8-3C-286.2,218.6-284.8,218.9-284.2,220"/>
<path d="M-278.3,216c0,1.2-1,2.2-2.2,2.2s-2.2-1-2.2-2.2s1-2.2,2.2-2.2S-278.3,214.8-278.3,216"/>
<path d="M-287,219.7c0,1.2-1,2.2-2.2,2.2c-1.2,0-2.2-1-2.2-2.2c0-1.2,1-2.2,2.2-2.2C-288,217.6-287,218.5-287,219.7"/>
<path d="M-277.9,220.2c0,1.2-1,2.2-2.2,2.2c-1.2,0-2.2-1-2.2-2.2c0-1.2,1-2.2,2.2-2.2C-278.8,218-277.9,219-277.9,220.2"/>
<path d="M-284.4,227.8c0,1.2-1,2.2-2.2,2.2c-1.2,0-2.2-1-2.2-2.2s1-2.2,2.2-2.2C-285.4,225.6-284.4,226.6-284.4,227.8"/>
<path d="M-277.2,229.3c0,1.2-1,2.2-2.2,2.2c-1.2,0-2.2-1-2.2-2.2s1-2.2,2.2-2.2C-278.2,227.1-277.2,228.1-277.2,229.3"/>
<path d="M-281.8,224.7c0,1.2-1,2.2-2.2,2.2s-2.2-1-2.2-2.2c0-1.2,1-2.2,2.2-2.2C-282.7,222.6-281.8,223.5-281.8,224.7"/>
<path d="M-274.6,221.3c0,1.2-1,2.2-2.2,2.2c-1.2,0-2.2-1-2.2-2.2s1-2.2,2.2-2.2C-275.6,219.1-274.6,220.1-274.6,221.3"/>
<path d="M-268.1,215.4c0,1.2-1,2.2-2.2,2.2c-1.2,0-2.2-1-2.2-2.2c0-1.2,1-2.2,2.2-2.2C-269,213.2-268.1,214.2-268.1,215.4"/>
<path d="M-274.2,215.8c0,1.2-1,2.2-2.2,2.2c-1.2,0-2.2-1-2.2-2.2s1-2.2,2.2-2.2C-275.2,213.7-274.2,214.6-274.2,215.8"/>
<path d="M-285.5,233.7c0,1.2-1,2.2-2.2,2.2c-1.2,0-2.2-1-2.2-2.2c0-1.2,1-2.2,2.2-2.2C-286.4,231.5-285.5,232.5-285.5,233.7"/>
<path d="M-274.8,225.8c0,1.2-1,2.2-2.2,2.2s-2.2-1-2.2-2.2s1-2.2,2.2-2.2C-275.8,223.7-274.8,224.6-274.8,225.8"/>
<path d="M-269.6,234.1c0,1.2-1,2.2-2.2,2.2c-1.2,0-2.2-1-2.2-2.2s1-2.2,2.2-2.2C-270.6,231.9-269.6,232.9-269.6,234.1"/>
<path d="M-276.5,233.5c0,1.2-1,2.2-2.2,2.2c-1.2,0-2.2-1-2.2-2.2s1-2.2,2.2-2.2C-277.5,231.3-276.5,232.2-276.5,233.5"/>
<path d="M-282.6,236.8c0,1.2-1,2.2-2.2,2.2c-1.2,0-2.2-1-2.2-2.2s1-2.2,2.2-2.2C-283.6,234.6-282.6,235.6-282.6,236.8"/>
<path d="M-280.9,241.2c0,1.2-1,2.2-2.2,2.2c-1.2,0-2.2-1-2.2-2.2s1-2.2,2.2-2.2C-281.9,239-280.9,239.9-280.9,241.2"/>
<path d="M-275.2,241.5c0,1.2-1,2.2-2.2,2.2c-1.2,0-2.2-1-2.2-2.2s1-2.2,2.2-2.2C-276.2,239.3-275.2,240.3-275.2,241.5"/>
<path d="M-282.4,244.1c0,1.2-1,2.2-2.2,2.2c-1.2,0-2.2-1-2.2-2.2s1-2.2,2.2-2.2C-283.4,241.9-282.4,242.9-282.4,244.1"/>
<path d="M-282.6,247.8c0,1.2-1,2.2-2.2,2.2c-1.2,0-2.2-1-2.2-2.2s1-2.2,2.2-2.2C-283.6,245.6-282.6,246.6-282.6,247.8"/>
<path d="M-270.2,238.2c0,1.2-1,2.2-2.2,2.2c-1.2,0-2.2-1-2.2-2.2s1-2.2,2.2-2.2C-271.2,236.1-270.2,237-270.2,238.2"/>
<path d="M-274.8,240.8c0,1.2-1,2.2-2.2,2.2s-2.2-1-2.2-2.2s1-2.2,2.2-2.2C-275.8,238.7-274.8,239.6-274.8,240.8"/>
<path d="M-273.3,236.3c0,1.2-1,2.2-2.2,2.2s-2.2-1-2.2-2.2s1-2.2,2.2-2.2S-273.3,235.1-273.3,236.3"/>
<path d="M-271.3,245.3c0,1.2-1,2.2-2.2,2.2s-2.2-1-2.2-2.2s1-2.2,2.2-2.2S-271.3,244.1-271.3,245.3"/>
<path d="M-268.9,221.9c0,1.2-1,2.2-2.2,2.2c-1.2,0-2.2-1-2.2-2.2c0-1.2,1-2.2,2.2-2.2C-269.9,219.7-268.9,220.7-268.9,221.9"/>
<path d="M-271.1,230c0,1.2-1,2.2-2.2,2.2c-1.2,0-2.2-1-2.2-2.2s1-2.2,2.2-2.2C-272.1,227.8-271.1,228.8-271.1,230"/>
<path d="M-280.7,229.3c0,1.2-1,2.2-2.2,2.2c-1.2,0-2.2-1-2.2-2.2s1-2.2,2.2-2.2C-281.7,227.1-280.7,228.1-280.7,229.3"/>
<path d="M-276.4,244.5c0,1.2-1,2.2-2.2,2.2c-1.2,0-2.2-1-2.2-2.2s1-2.2,2.2-2.2C-277.4,242.4-276.4,243.3-276.4,244.5"/>
<path d="M-274.4,247.5c0,1.2-1,2.2-2.2,2.2c-1.2,0-2.2-1-2.2-2.2s1-2.2,2.2-2.2C-275.3,245.3-274.4,246.3-274.4,247.5"/>
<path d="M-266.8,249.6c0,1.2-1,2.2-2.2,2.2s-2.2-1-2.2-2.2s1-2.2,2.2-2.2C-267.7,247.5-266.8,248.4-266.8,249.6"/>
<path d="M-273.9,252c0,1.2-1,2.2-2.2,2.2c-1.2,0-2.2-1-2.2-2.2s1-2.2,2.2-2.2C-274.9,249.8-273.9,250.7-273.9,252"/>
<path d="M-276.8,254.1c0,1.2-1,2.2-2.2,2.2s-2.2-1-2.2-2.2s1-2.2,2.2-2.2C-277.7,252-276.8,252.9-276.8,254.1"/>
<path d="M-271.8,240.4c0,1.2-1,2.2-2.2,2.2s-2.2-1-2.2-2.2s1-2.2,2.2-2.2C-272.7,238.2-271.8,239.2-271.8,240.4"/>
<path d="M-280.5,256.7c0,1.2-1,2.2-2.2,2.2c-1.2,0-2.2-1-2.2-2.2c0-1.2,1-2.2,2.2-2.2C-281.4,254.6-280.5,255.5-280.5,256.7"/>
<path d="M-279.2,248.9c0,1.2-1,2.2-2.2,2.2c-1.2,0-2.2-1-2.2-2.2s1-2.2,2.2-2.2C-280.1,246.7-279.2,247.7-279.2,248.9"/>
<path d="M-282.6,253c0,1.2-1,2.2-2.2,2.2c-1.2,0-2.2-1-2.2-2.2s1-2.2,2.2-2.2C-283.6,250.9-282.6,251.8-282.6,253"/>
<path d="M-286.6,246.3c0,1.2-1,2.2-2.2,2.2c-1.2,0-2.2-1-2.2-2.2s1-2.2,2.2-2.2C-287.5,244.1-286.6,245.1-286.6,246.3"/>
<path d="M-282.6,250.6c0,1.2-1,2.2-2.2,2.2c-1.2,0-2.2-1-2.2-2.2s1-2.2,2.2-2.2C-283.6,248.4-282.6,249.4-282.6,250.6"/>
<path d="M-267.2,244.1c0,1.2-1,2.2-2.2,2.2c-1.2,0-2.2-1-2.2-2.2s1-2.2,2.2-2.2C-268.2,241.9-267.2,242.9-267.2,244.1"/>
<path d="M-269.7,248.5c0,1.2-1,2.2-2.2,2.2c-1.2,0-2.2-1-2.2-2.2s1-2.2,2.2-2.2C-270.6,246.3-269.7,247.3-269.7,248.5"/>
<path d="M-270,255.2c0,1.2-1,2.2-2.2,2.2c-1.2,0-2.2-1-2.2-2.2c0-1.2,1-2.2,2.2-2.2C-271,253-270,254-270,255.2"/>
</svg>
